G04 Layer: TopSilkLayer*
G04 EasyEDA v5.9.42, Fri, 15 Feb 2019 08:44:07 GMT*
G04 63fce91bb22149d2a5f5640f5a0d42c2*
G04 Gerber Generator version 0.2*
G04 Scale: 100 percent, Rotated: No, Reflected: No *
G04 Dimensions in inches *
G04 leading zeros omitted , absolute positions ,2 integer and 4 decimal *
%FSLAX24Y24*%
%MOIN*%
G90*
G70D02*

%ADD10C,0.010000*%
%ADD21C,0.009842*%
%ADD22C,0.007000*%
%ADD23C,0.008000*%
%ADD24C,0.006000*%
%ADD25C,0.015748*%
%ADD26C,0.011810*%

%LPD*%

%LPD*%
G36*
G01X20787Y21365D02*
G01X20764Y21366D01*
G01X20741Y21365D01*
G01X20717Y21365D01*
G01X20669Y21361D01*
G01X20644Y21359D01*
G01X20594Y21353D01*
G01X20569Y21348D01*
G01X20544Y21344D01*
G01X20518Y21339D01*
G01X20493Y21334D01*
G01X20467Y21328D01*
G01X20417Y21316D01*
G01X20391Y21309D01*
G01X20366Y21301D01*
G01X20341Y21294D01*
G01X20316Y21285D01*
G01X20292Y21277D01*
G01X20244Y21259D01*
G01X20175Y21229D01*
G01X20153Y21219D01*
G01X20132Y21208D01*
G01X20111Y21196D01*
G01X20091Y21185D01*
G01X20071Y21173D01*
G01X20052Y21161D01*
G01X20035Y21149D01*
G01X19999Y21124D01*
G01X19967Y21100D01*
G01X19939Y21078D01*
G01X19915Y21056D01*
G01X19894Y21036D01*
G01X19877Y21016D01*
G01X19863Y20997D01*
G01X19852Y20978D01*
G01X19844Y20960D01*
G01X19838Y20941D01*
G01X19835Y20921D01*
G01X19834Y20901D01*
G01X19839Y20867D01*
G01X19854Y20836D01*
G01X19874Y20813D01*
G01X19896Y20804D01*
G01X19910Y20805D01*
G01X19926Y20810D01*
G01X19943Y20818D01*
G01X19963Y20829D01*
G01X19983Y20843D01*
G01X20005Y20860D01*
G01X20029Y20880D01*
G01X20053Y20903D01*
G01X20069Y20917D01*
G01X20086Y20932D01*
G01X20103Y20946D01*
G01X20160Y20985D01*
G01X20202Y21009D01*
G01X20223Y21020D01*
G01X20246Y21031D01*
G01X20268Y21042D01*
G01X20292Y21052D01*
G01X20315Y21061D01*
G01X20340Y21070D01*
G01X20390Y21086D01*
G01X20416Y21094D01*
G01X20442Y21101D01*
G01X20468Y21107D01*
G01X20495Y21113D01*
G01X20549Y21123D01*
G01X20577Y21127D01*
G01X20604Y21130D01*
G01X20637Y21134D01*
G01X20699Y21138D01*
G01X20728Y21139D01*
G01X20757Y21139D01*
G01X20811Y21137D01*
G01X20836Y21135D01*
G01X20861Y21132D01*
G01X20885Y21128D01*
G01X20907Y21123D01*
G01X20928Y21118D01*
G01X20949Y21112D01*
G01X20968Y21105D01*
G01X20987Y21097D01*
G01X21004Y21089D01*
G01X21021Y21080D01*
G01X21036Y21070D01*
G01X21064Y21048D01*
G01X21076Y21035D01*
G01X21087Y21022D01*
G01X21097Y21009D01*
G01X21106Y20994D01*
G01X21114Y20979D01*
G01X21121Y20963D01*
G01X21127Y20946D01*
G01X21132Y20929D01*
G01X21138Y20891D01*
G01X21140Y20872D01*
G01X21140Y20851D01*
G01X21139Y20810D01*
G01X21134Y20779D01*
G01X21125Y20753D01*
G01X21110Y20727D01*
G01X21100Y20715D01*
G01X21089Y20702D01*
G01X21075Y20688D01*
G01X21059Y20674D01*
G01X21041Y20660D01*
G01X21003Y20632D01*
G01X20983Y20619D01*
G01X20963Y20607D01*
G01X20943Y20596D01*
G01X20923Y20586D01*
G01X20904Y20578D01*
G01X20889Y20570D01*
G01X20874Y20559D01*
G01X20861Y20547D01*
G01X20849Y20532D01*
G01X20840Y20517D01*
G01X20832Y20500D01*
G01X20828Y20483D01*
G01X20826Y20466D01*
G01X20829Y20450D01*
G01X20836Y20434D01*
G01X20847Y20417D01*
G01X20861Y20401D01*
G01X20878Y20386D01*
G01X20896Y20373D01*
G01X20915Y20364D01*
G01X20933Y20359D01*
G01X20956Y20352D01*
G01X20979Y20341D01*
G01X21002Y20326D01*
G01X21025Y20307D01*
G01X21046Y20286D01*
G01X21066Y20261D01*
G01X21084Y20235D01*
G01X21098Y20207D01*
G01X21109Y20182D01*
G01X21116Y20157D01*
G01X21122Y20131D01*
G01X21126Y20105D01*
G01X21127Y20078D01*
G01X21127Y20052D01*
G01X21125Y20026D01*
G01X21120Y20000D01*
G01X21114Y19975D01*
G01X21106Y19951D01*
G01X21096Y19928D01*
G01X21085Y19907D01*
G01X21072Y19887D01*
G01X21057Y19869D01*
G01X21040Y19853D01*
G01X21022Y19838D01*
G01X21006Y19828D01*
G01X20988Y19818D01*
G01X20969Y19809D01*
G01X20949Y19801D01*
G01X20928Y19793D01*
G01X20906Y19786D01*
G01X20883Y19779D01*
G01X20859Y19773D01*
G01X20834Y19768D01*
G01X20807Y19764D01*
G01X20781Y19760D01*
G01X20753Y19757D01*
G01X20725Y19755D01*
G01X20695Y19753D01*
G01X20603Y19753D01*
G01X20572Y19754D01*
G01X20539Y19757D01*
G01X20506Y19759D01*
G01X20482Y19762D01*
G01X20436Y19768D01*
G01X20414Y19771D01*
G01X20372Y19779D01*
G01X20330Y19789D01*
G01X20308Y19795D01*
G01X20287Y19802D01*
G01X20243Y19816D01*
G01X20221Y19825D01*
G01X20198Y19834D01*
G01X20150Y19854D01*
G01X20124Y19866D01*
G01X20097Y19878D01*
G01X20069Y19891D01*
G01X20040Y19905D01*
G01X20012Y19919D01*
G01X19984Y19932D01*
G01X19957Y19944D01*
G01X19932Y19954D01*
G01X19910Y19963D01*
G01X19892Y19969D01*
G01X19877Y19973D01*
G01X19868Y19975D01*
G01X19852Y19973D01*
G01X19837Y19967D01*
G01X19824Y19958D01*
G01X19812Y19946D01*
G01X19802Y19931D01*
G01X19795Y19915D01*
G01X19789Y19897D01*
G01X19786Y19878D01*
G01X19785Y19858D01*
G01X19787Y19838D01*
G01X19792Y19819D01*
G01X19800Y19800D01*
G01X19804Y19793D01*
G01X19811Y19786D01*
G01X19820Y19778D01*
G01X19831Y19769D01*
G01X19844Y19761D01*
G01X19860Y19751D01*
G01X19877Y19742D01*
G01X19896Y19731D01*
G01X19938Y19710D01*
G01X19961Y19699D01*
G01X19985Y19688D01*
G01X20010Y19677D01*
G01X20036Y19666D01*
G01X20063Y19655D01*
G01X20090Y19645D01*
G01X20118Y19634D01*
G01X20202Y19604D01*
G01X20258Y19586D01*
G01X20286Y19578D01*
G01X20313Y19570D01*
G01X20330Y19566D01*
G01X20346Y19562D01*
G01X20361Y19558D01*
G01X20377Y19555D01*
G01X20392Y19553D01*
G01X20408Y19550D01*
G01X20424Y19548D01*
G01X20442Y19546D01*
G01X20461Y19545D01*
G01X20482Y19544D01*
G01X20505Y19543D01*
G01X20531Y19543D01*
G01X20559Y19542D01*
G01X20753Y19542D01*
G01X20790Y19543D01*
G01X20823Y19544D01*
G01X20851Y19544D01*
G01X20875Y19546D01*
G01X20897Y19548D01*
G01X20915Y19550D01*
G01X20932Y19553D01*
G01X20948Y19557D01*
G01X20963Y19561D01*
G01X20977Y19565D01*
G01X21004Y19575D01*
G01X21030Y19585D01*
G01X21055Y19596D01*
G01X21079Y19608D01*
G01X21102Y19620D01*
G01X21124Y19634D01*
G01X21145Y19648D01*
G01X21166Y19663D01*
G01X21185Y19679D01*
G01X21204Y19696D01*
G01X21222Y19713D01*
G01X21239Y19731D01*
G01X21255Y19750D01*
G01X21269Y19767D01*
G01X21282Y19785D01*
G01X21294Y19803D01*
G01X21305Y19821D01*
G01X21314Y19839D01*
G01X21322Y19857D01*
G01X21329Y19876D01*
G01X21341Y19916D01*
G01X21345Y19938D01*
G01X21348Y19960D01*
G01X21351Y19984D01*
G01X21353Y20009D01*
G01X21354Y20035D01*
G01X21354Y20089D01*
G01X21353Y20113D01*
G01X21349Y20157D01*
G01X21346Y20178D01*
G01X21342Y20198D01*
G01X21332Y20236D01*
G01X21325Y20255D01*
G01X21318Y20273D01*
G01X21309Y20292D01*
G01X21299Y20311D01*
G01X21288Y20330D01*
G01X21276Y20349D01*
G01X21262Y20370D01*
G01X21247Y20391D01*
G01X21230Y20415D01*
G01X21216Y20436D01*
G01X21207Y20452D01*
G01X21203Y20459D01*
G01X21207Y20468D01*
G01X21219Y20487D01*
G01X21236Y20513D01*
G01X21257Y20544D01*
G01X21277Y20573D01*
G01X21295Y20600D01*
G01X21310Y20625D01*
G01X21322Y20648D01*
G01X21332Y20670D01*
G01X21341Y20692D01*
G01X21347Y20714D01*
G01X21352Y20736D01*
G01X21356Y20760D01*
G01X21358Y20785D01*
G01X21359Y20812D01*
G01X21359Y20841D01*
G01X21358Y20867D01*
G01X21356Y20892D01*
G01X21353Y20917D01*
G01X21349Y20942D01*
G01X21344Y20965D01*
G01X21338Y20988D01*
G01X21331Y21011D01*
G01X21323Y21033D01*
G01X21314Y21055D01*
G01X21305Y21076D01*
G01X21294Y21096D01*
G01X21282Y21116D01*
G01X21256Y21154D01*
G01X21241Y21171D01*
G01X21226Y21189D01*
G01X21210Y21205D01*
G01X21193Y21221D01*
G01X21175Y21236D01*
G01X21156Y21250D01*
G01X21116Y21276D01*
G01X21095Y21288D01*
G01X21073Y21300D01*
G01X21051Y21310D01*
G01X21003Y21328D01*
G01X20979Y21336D01*
G01X20953Y21343D01*
G01X20927Y21349D01*
G01X20900Y21355D01*
G01X20873Y21359D01*
G01X20831Y21363D01*
G01X20809Y21365D01*
G01X20787Y21365D01*
G37*

%LPD*%
G36*
G01X21006Y22095D02*
G01X20979Y22096D01*
G01X20953Y22095D01*
G01X20929Y22093D01*
G01X20906Y22088D01*
G01X20884Y22083D01*
G01X20864Y22076D01*
G01X20845Y22067D01*
G01X20827Y22056D01*
G01X20811Y22044D01*
G01X20796Y22031D01*
G01X20783Y22016D01*
G01X20771Y21999D01*
G01X20760Y21981D01*
G01X20751Y21961D01*
G01X20743Y21940D01*
G01X20737Y21917D01*
G01X20732Y21893D01*
G01X20729Y21867D01*
G01X20727Y21840D01*
G01X20727Y21812D01*
G01X20728Y21776D01*
G01X20731Y21741D01*
G01X20735Y21711D01*
G01X20739Y21689D01*
G01X20747Y21669D01*
G01X20760Y21647D01*
G01X20776Y21623D01*
G01X20796Y21599D01*
G01X20817Y21575D01*
G01X20839Y21553D01*
G01X20863Y21534D01*
G01X20885Y21518D01*
G01X20912Y21504D01*
G01X20941Y21496D01*
G01X20977Y21491D01*
G01X21026Y21490D01*
G01X21052Y21491D01*
G01X21076Y21492D01*
G01X21099Y21495D01*
G01X21121Y21499D01*
G01X21142Y21503D01*
G01X21161Y21509D01*
G01X21180Y21517D01*
G01X21197Y21525D01*
G01X21214Y21534D01*
G01X21228Y21544D01*
G01X21243Y21555D01*
G01X21256Y21568D01*
G01X21268Y21582D01*
G01X21278Y21596D01*
G01X21288Y21612D01*
G01X21297Y21629D01*
G01X21311Y21667D01*
G01X21321Y21709D01*
G01X21324Y21732D01*
G01X21327Y21757D01*
G01X21328Y21782D01*
G01X21328Y21809D01*
G01X21327Y21845D01*
G01X21325Y21880D01*
G01X21321Y21913D01*
G01X21315Y21943D01*
G01X21309Y21969D01*
G01X21301Y21993D01*
G01X21292Y22011D01*
G01X21282Y22025D01*
G01X21270Y22035D01*
G01X21253Y22042D01*
G01X21233Y22046D01*
G01X21207Y22048D01*
G01X21172Y22046D01*
G01X21157Y22039D01*
G01X21158Y22019D01*
G01X21172Y21978D01*
G01X21178Y21955D01*
G01X21183Y21927D01*
G01X21187Y21894D01*
G01X21189Y21860D01*
G01X21190Y21827D01*
G01X21189Y21796D01*
G01X21187Y21771D01*
G01X21183Y21753D01*
G01X21169Y21735D01*
G01X21143Y21717D01*
G01X21115Y21702D01*
G01X21091Y21696D01*
G01X21088Y21699D01*
G01X21085Y21709D01*
G01X21083Y21726D01*
G01X21081Y21748D01*
G01X21079Y21776D01*
G01X21077Y21810D01*
G01X21076Y21849D01*
G01X21075Y21894D01*
G01X21071Y22092D01*
G01X21006Y22095D01*
G37*

%LPC*%
G36*
G01X20945Y21901D02*
G01X20941Y21909D01*
G01X20934Y21907D01*
G01X20924Y21902D01*
G01X20911Y21893D01*
G01X20897Y21883D01*
G01X20881Y21869D01*
G01X20871Y21853D01*
G01X20866Y21834D01*
G01X20864Y21811D01*
G01X20868Y21777D01*
G01X20878Y21750D01*
G01X20897Y21728D01*
G01X20924Y21710D01*
G01X20952Y21695D01*
G01X20952Y21802D01*
G01X20951Y21844D01*
G01X20949Y21878D01*
G01X20945Y21901D01*
G37*

%LPD*%
G36*
G01X21316Y23203D02*
G01X20525Y23203D01*
G01X20525Y23084D01*
G01X20526Y23023D01*
G01X20529Y22984D01*
G01X20535Y22963D01*
G01X20547Y22952D01*
G01X20552Y22949D01*
G01X20561Y22944D01*
G01X20574Y22938D01*
G01X20632Y22909D01*
G01X20657Y22898D01*
G01X20684Y22884D01*
G01X20712Y22871D01*
G01X20743Y22857D01*
G01X20774Y22842D01*
G01X20806Y22827D01*
G01X20856Y22803D01*
G01X20899Y22782D01*
G01X20934Y22765D01*
G01X20963Y22751D01*
G01X20985Y22740D01*
G01X21002Y22730D01*
G01X21014Y22722D01*
G01X21021Y22716D01*
G01X21023Y22711D01*
G01X21023Y22707D01*
G01X21019Y22704D01*
G01X21014Y22701D01*
G01X21007Y22698D01*
G01X20997Y22694D01*
G01X20984Y22688D01*
G01X20967Y22681D01*
G01X20948Y22673D01*
G01X20926Y22664D01*
G01X20902Y22654D01*
G01X20875Y22644D01*
G01X20847Y22632D01*
G01X20818Y22621D01*
G01X20788Y22608D01*
G01X20757Y22596D01*
G01X20531Y22505D01*
G01X20527Y22365D01*
G01X20524Y22226D01*
G01X20829Y22217D01*
G01X20860Y22217D01*
G01X20892Y22216D01*
G01X20923Y22215D01*
G01X20955Y22214D01*
G01X20985Y22214D01*
G01X21014Y22213D01*
G01X21070Y22213D01*
G01X21096Y22212D01*
G01X21198Y22212D01*
G01X21211Y22213D01*
G01X21222Y22213D01*
G01X21310Y22217D01*
G01X21318Y22387D01*
G01X21044Y22387D01*
G01X20770Y22388D01*
G01X21317Y22630D01*
G01X21314Y22705D01*
G01X21310Y22780D01*
G01X21059Y22892D01*
G01X21026Y22907D01*
G01X20993Y22921D01*
G01X20962Y22935D01*
G01X20932Y22948D01*
G01X20906Y22961D01*
G01X20881Y22971D01*
G01X20860Y22981D01*
G01X20841Y22990D01*
G01X20826Y22996D01*
G01X20815Y23002D01*
G01X20808Y23005D01*
G01X20805Y23007D01*
G01X20807Y23007D01*
G01X20814Y23008D01*
G01X20880Y23008D01*
G01X20906Y23007D01*
G01X20964Y23007D01*
G01X20997Y23006D01*
G01X21031Y23005D01*
G01X21067Y23005D01*
G01X21333Y22999D01*
G01X21325Y23048D01*
G01X21322Y23071D01*
G01X21319Y23098D01*
G01X21317Y23125D01*
G01X21317Y23150D01*
G01X21316Y23203D01*
G37*

%LPD*%
G36*
G01X20148Y24392D02*
G01X20139Y24395D01*
G01X20129Y24388D01*
G01X20115Y24375D01*
G01X20097Y24355D01*
G01X20077Y24332D01*
G01X20056Y24306D01*
G01X20034Y24277D01*
G01X20014Y24248D01*
G01X19994Y24220D01*
G01X19981Y24198D01*
G01X19967Y24177D01*
G01X19955Y24155D01*
G01X19943Y24134D01*
G01X19932Y24113D01*
G01X19921Y24091D01*
G01X19911Y24070D01*
G01X19902Y24048D01*
G01X19893Y24027D01*
G01X19885Y24005D01*
G01X19878Y23984D01*
G01X19872Y23962D01*
G01X19865Y23940D01*
G01X19855Y23896D01*
G01X19850Y23873D01*
G01X19847Y23850D01*
G01X19843Y23827D01*
G01X19840Y23804D01*
G01X19838Y23780D01*
G01X19837Y23756D01*
G01X19835Y23731D01*
G01X19835Y23650D01*
G01X19836Y23619D01*
G01X19838Y23587D01*
G01X19840Y23557D01*
G01X19843Y23528D01*
G01X19846Y23502D01*
G01X19849Y23479D01*
G01X19852Y23461D01*
G01X19859Y23432D01*
G01X19866Y23404D01*
G01X19874Y23376D01*
G01X19882Y23349D01*
G01X19890Y23323D01*
G01X19899Y23297D01*
G01X19909Y23271D01*
G01X19929Y23223D01*
G01X19940Y23199D01*
G01X19964Y23153D01*
G01X19976Y23132D01*
G01X19989Y23110D01*
G01X20015Y23070D01*
G01X20030Y23050D01*
G01X20044Y23032D01*
G01X20060Y23013D01*
G01X20075Y22996D01*
G01X20138Y22927D01*
G01X20199Y22980D01*
G01X20223Y23002D01*
G01X20243Y23020D01*
G01X20256Y23034D01*
G01X20261Y23040D01*
G01X20257Y23048D01*
G01X20246Y23065D01*
G01X20229Y23088D01*
G01X20209Y23116D01*
G01X20195Y23135D01*
G01X20181Y23155D01*
G01X20155Y23197D01*
G01X20143Y23218D01*
G01X20131Y23240D01*
G01X20109Y23284D01*
G01X20089Y23330D01*
G01X20081Y23353D01*
G01X20072Y23376D01*
G01X20064Y23399D01*
G01X20057Y23422D01*
G01X20051Y23446D01*
G01X20045Y23469D01*
G01X20040Y23493D01*
G01X20035Y23516D01*
G01X20031Y23540D01*
G01X20028Y23563D01*
G01X20026Y23586D01*
G01X20024Y23610D01*
G01X20023Y23633D01*
G01X20022Y23655D01*
G01X20023Y23682D01*
G01X20024Y23708D01*
G01X20026Y23735D01*
G01X20029Y23762D01*
G01X20037Y23816D01*
G01X20042Y23842D01*
G01X20054Y23896D01*
G01X20068Y23948D01*
G01X20077Y23973D01*
G01X20085Y23998D01*
G01X20094Y24023D01*
G01X20114Y24069D01*
G01X20136Y24113D01*
G01X20147Y24133D01*
G01X20159Y24152D01*
G01X20172Y24170D01*
G01X20184Y24187D01*
G01X20197Y24203D01*
G01X20210Y24217D01*
G01X20230Y24238D01*
G01X20246Y24258D01*
G01X20257Y24272D01*
G01X20261Y24280D01*
G01X20256Y24290D01*
G01X20244Y24306D01*
G01X20226Y24326D01*
G01X20205Y24346D01*
G01X20183Y24365D01*
G01X20163Y24382D01*
G01X20148Y24392D01*
G37*

%LPD*%
G36*
G01X20354Y24198D02*
G01X20343Y24200D01*
G01X20331Y24192D01*
G01X20315Y24176D01*
G01X20296Y24154D01*
G01X20275Y24127D01*
G01X20253Y24097D01*
G01X20232Y24067D01*
G01X20214Y24037D01*
G01X20199Y24010D01*
G01X20177Y23962D01*
G01X20159Y23910D01*
G01X20150Y23883D01*
G01X20143Y23856D01*
G01X20136Y23828D01*
G01X20130Y23801D01*
G01X20125Y23773D01*
G01X20121Y23745D01*
G01X20115Y23689D01*
G01X20113Y23635D01*
G01X20114Y23609D01*
G01X20115Y23584D01*
G01X20117Y23559D01*
G01X20120Y23536D01*
G01X20124Y23513D01*
G01X20130Y23492D01*
G01X20137Y23467D01*
G01X20146Y23441D01*
G01X20155Y23416D01*
G01X20177Y23364D01*
G01X20189Y23339D01*
G01X20203Y23313D01*
G01X20231Y23263D01*
G01X20263Y23215D01*
G01X20279Y23192D01*
G01X20339Y23112D01*
G01X20407Y23179D01*
G01X20433Y23206D01*
G01X20455Y23230D01*
G01X20469Y23248D01*
G01X20475Y23258D01*
G01X20472Y23266D01*
G01X20463Y23279D01*
G01X20451Y23296D01*
G01X20435Y23314D01*
G01X20417Y23337D01*
G01X20398Y23366D01*
G01X20379Y23398D01*
G01X20363Y23429D01*
G01X20354Y23451D01*
G01X20346Y23470D01*
G01X20340Y23490D01*
G01X20336Y23511D01*
G01X20334Y23535D01*
G01X20332Y23564D01*
G01X20331Y23600D01*
G01X20331Y23699D01*
G01X20333Y23724D01*
G01X20335Y23748D01*
G01X20337Y23770D01*
G01X20341Y23792D01*
G01X20345Y23813D01*
G01X20350Y23833D01*
G01X20356Y23853D01*
G01X20372Y23893D01*
G01X20382Y23914D01*
G01X20393Y23935D01*
G01X20405Y23957D01*
G01X20419Y23980D01*
G01X20434Y24005D01*
G01X20476Y24072D01*
G01X20418Y24140D01*
G01X20393Y24167D01*
G01X20371Y24187D01*
G01X20354Y24198D01*
G37*

%LPD*%
G36*
G01X20577Y23974D02*
G01X20561Y23985D01*
G01X20548Y23984D01*
G01X20534Y23973D01*
G01X20519Y23958D01*
G01X20505Y23942D01*
G01X20492Y23925D01*
G01X20480Y23905D01*
G01X20469Y23885D01*
G01X20458Y23863D01*
G01X20449Y23841D01*
G01X20440Y23817D01*
G01X20433Y23793D01*
G01X20427Y23769D01*
G01X20422Y23743D01*
G01X20418Y23718D01*
G01X20415Y23692D01*
G01X20413Y23667D01*
G01X20413Y23641D01*
G01X20415Y23591D01*
G01X20419Y23567D01*
G01X20424Y23544D01*
G01X20430Y23521D01*
G01X20439Y23496D01*
G01X20450Y23470D01*
G01X20463Y23443D01*
G01X20477Y23417D01*
G01X20492Y23392D01*
G01X20506Y23371D01*
G01X20519Y23353D01*
G01X20531Y23341D01*
G01X20544Y23335D01*
G01X20559Y23338D01*
G01X20581Y23355D01*
G01X20615Y23388D01*
G01X20678Y23451D01*
G01X20646Y23512D01*
G01X20635Y23534D01*
G01X20627Y23555D01*
G01X20620Y23578D01*
G01X20616Y23601D01*
G01X20613Y23625D01*
G01X20612Y23648D01*
G01X20613Y23672D01*
G01X20615Y23696D01*
G01X20620Y23721D01*
G01X20626Y23744D01*
G01X20635Y23769D01*
G01X20644Y23792D01*
G01X20656Y23817D01*
G01X20664Y23836D01*
G01X20667Y23851D01*
G01X20666Y23865D01*
G01X20659Y23879D01*
G01X20647Y23896D01*
G01X20627Y23919D01*
G01X20601Y23948D01*
G01X20577Y23974D01*
G37*

%LPD*%
G36*
G01X21037Y23900D02*
G01X21013Y23900D01*
G01X20989Y23898D01*
G01X20965Y23891D01*
G01X20940Y23882D01*
G01X20915Y23869D01*
G01X20889Y23853D01*
G01X20870Y23839D01*
G01X20853Y23821D01*
G01X20838Y23801D01*
G01X20825Y23779D01*
G01X20814Y23755D01*
G01X20805Y23730D01*
G01X20798Y23703D01*
G01X20794Y23676D01*
G01X20792Y23649D01*
G01X20793Y23622D01*
G01X20796Y23595D01*
G01X20802Y23569D01*
G01X20811Y23545D01*
G01X20822Y23522D01*
G01X20835Y23501D01*
G01X20850Y23482D01*
G01X20867Y23465D01*
G01X20885Y23449D01*
G01X20905Y23436D01*
G01X20926Y23425D01*
G01X20948Y23416D01*
G01X20972Y23409D01*
G01X20996Y23405D01*
G01X21021Y23404D01*
G01X21045Y23405D01*
G01X21067Y23409D01*
G01X21089Y23415D01*
G01X21110Y23423D01*
G01X21129Y23432D01*
G01X21147Y23444D01*
G01X21164Y23458D01*
G01X21179Y23473D01*
G01X21193Y23490D01*
G01X21205Y23509D01*
G01X21216Y23529D01*
G01X21225Y23551D01*
G01X21231Y23574D01*
G01X21237Y23598D01*
G01X21240Y23623D01*
G01X21241Y23649D01*
G01X21240Y23677D01*
G01X21236Y23703D01*
G01X21230Y23728D01*
G01X21222Y23753D01*
G01X21211Y23775D01*
G01X21199Y23797D01*
G01X21184Y23817D01*
G01X21168Y23835D01*
G01X21149Y23851D01*
G01X21129Y23866D01*
G01X21107Y23878D01*
G01X21084Y23889D01*
G01X21060Y23896D01*
G01X21037Y23900D01*
G37*

%LPD*%
G36*
G01X21218Y24531D02*
G01X21192Y24534D01*
G01X21148Y24532D01*
G01X21127Y24530D01*
G01X21109Y24528D01*
G01X21093Y24524D01*
G01X21078Y24518D01*
G01X21065Y24510D01*
G01X21053Y24500D01*
G01X21042Y24486D01*
G01X21031Y24469D01*
G01X21019Y24448D01*
G01X21006Y24423D01*
G01X20993Y24392D01*
G01X20977Y24357D01*
G01X20959Y24317D01*
G01X20941Y24283D01*
G01X20927Y24259D01*
G01X20917Y24249D01*
G01X20910Y24250D01*
G01X20901Y24257D01*
G01X20892Y24270D01*
G01X20884Y24286D01*
G01X20878Y24301D01*
G01X20875Y24317D01*
G01X20873Y24334D01*
G01X20873Y24353D01*
G01X20876Y24375D01*
G01X20880Y24400D01*
G01X20886Y24429D01*
G01X20895Y24463D01*
G01X20899Y24482D01*
G01X20896Y24492D01*
G01X20882Y24496D01*
G01X20854Y24497D01*
G01X20833Y24498D01*
G01X20813Y24499D01*
G01X20796Y24502D01*
G01X20784Y24505D01*
G01X20775Y24504D01*
G01X20766Y24495D01*
G01X20758Y24479D01*
G01X20751Y24458D01*
G01X20744Y24432D01*
G01X20739Y24402D01*
G01X20736Y24371D01*
G01X20734Y24338D01*
G01X20733Y24306D01*
G01X20735Y24276D01*
G01X20739Y24247D01*
G01X20744Y24223D01*
G01X20755Y24192D01*
G01X20768Y24164D01*
G01X20781Y24139D01*
G01X20796Y24117D01*
G01X20812Y24098D01*
G01X20830Y24083D01*
G01X20848Y24070D01*
G01X20868Y24061D01*
G01X20889Y24055D01*
G01X20910Y24053D01*
G01X20933Y24053D01*
G01X20957Y24057D01*
G01X20981Y24064D01*
G01X21003Y24074D01*
G01X21022Y24088D01*
G01X21039Y24105D01*
G01X21055Y24127D01*
G01X21070Y24154D01*
G01X21084Y24187D01*
G01X21099Y24227D01*
G01X21119Y24280D01*
G01X21134Y24311D01*
G01X21148Y24325D01*
G01X21165Y24328D01*
G01X21182Y24326D01*
G01X21192Y24319D01*
G01X21198Y24305D01*
G01X21201Y24280D01*
G01X21201Y24256D01*
G01X21198Y24227D01*
G01X21193Y24195D01*
G01X21185Y24165D01*
G01X21177Y24137D01*
G01X21171Y24109D01*
G01X21167Y24086D01*
G01X21165Y24070D01*
G01X21167Y24054D01*
G01X21175Y24047D01*
G01X21195Y24046D01*
G01X21231Y24051D01*
G01X21257Y24055D01*
G01X21281Y24061D01*
G01X21298Y24067D01*
G01X21307Y24074D01*
G01X21315Y24090D01*
G01X21322Y24110D01*
G01X21328Y24133D01*
G01X21333Y24158D01*
G01X21337Y24185D01*
G01X21339Y24214D01*
G01X21339Y24242D01*
G01X21337Y24271D01*
G01X21333Y24311D01*
G01X21327Y24347D01*
G01X21321Y24378D01*
G01X21313Y24405D01*
G01X21304Y24430D01*
G01X21292Y24452D01*
G01X21279Y24473D01*
G01X21263Y24492D01*
G01X21239Y24518D01*
G01X21218Y24531D01*
G37*

%LPD*%
G36*
G01X32515Y27171D02*
G01X32488Y27171D01*
G01X32461Y27167D01*
G01X32435Y27162D01*
G01X32411Y27154D01*
G01X32390Y27143D01*
G01X32373Y27131D01*
G01X32359Y27116D01*
G01X32347Y27099D01*
G01X32337Y27080D01*
G01X32330Y27058D01*
G01X32325Y27036D01*
G01X32322Y27011D01*
G01X32322Y26987D01*
G01X32325Y26962D01*
G01X32331Y26936D01*
G01X32339Y26911D01*
G01X32350Y26887D01*
G01X32363Y26865D01*
G01X32377Y26845D01*
G01X32392Y26827D01*
G01X32409Y26812D01*
G01X32427Y26800D01*
G01X32446Y26790D01*
G01X32466Y26782D01*
G01X32487Y26778D01*
G01X32510Y26775D01*
G01X32533Y26775D01*
G01X32558Y26778D01*
G01X32584Y26783D01*
G01X32621Y26791D01*
G01X32638Y26789D01*
G01X32638Y26774D01*
G01X32624Y26743D01*
G01X32613Y26727D01*
G01X32600Y26713D01*
G01X32585Y26703D01*
G01X32569Y26694D01*
G01X32552Y26689D01*
G01X32534Y26686D01*
G01X32517Y26687D01*
G01X32499Y26690D01*
G01X32481Y26696D01*
G01X32465Y26705D01*
G01X32451Y26716D01*
G01X32438Y26731D01*
G01X32421Y26748D01*
G01X32400Y26760D01*
G01X32377Y26767D01*
G01X32355Y26767D01*
G01X32330Y26759D01*
G01X32321Y26748D01*
G01X32328Y26727D01*
G01X32352Y26692D01*
G01X32363Y26678D01*
G01X32377Y26666D01*
G01X32393Y26655D01*
G01X32411Y26646D01*
G01X32431Y26639D01*
G01X32452Y26633D01*
G01X32474Y26629D01*
G01X32497Y26627D01*
G01X32520Y26626D01*
G01X32543Y26628D01*
G01X32567Y26630D01*
G01X32590Y26635D01*
G01X32613Y26642D01*
G01X32635Y26650D01*
G01X32655Y26660D01*
G01X32674Y26672D01*
G01X32687Y26683D01*
G01X32698Y26697D01*
G01X32709Y26714D01*
G01X32717Y26734D01*
G01X32725Y26755D01*
G01X32731Y26778D01*
G01X32736Y26803D01*
G01X32740Y26830D01*
G01X32742Y26857D01*
G01X32743Y26884D01*
G01X32743Y26912D01*
G01X32742Y26939D01*
G01X32739Y26966D01*
G01X32734Y26993D01*
G01X32729Y27018D01*
G01X32722Y27042D01*
G01X32714Y27063D01*
G01X32704Y27083D01*
G01X32693Y27100D01*
G01X32681Y27115D01*
G01X32664Y27129D01*
G01X32643Y27142D01*
G01X32621Y27152D01*
G01X32596Y27160D01*
G01X32570Y27166D01*
G01X32543Y27170D01*
G01X32515Y27171D01*
G37*

%LPC*%
G36*
G01X32527Y27112D02*
G01X32510Y27112D01*
G01X32493Y27107D01*
G01X32477Y27096D01*
G01X32459Y27080D01*
G01X32439Y27060D01*
G01X32425Y27043D01*
G01X32414Y27026D01*
G01X32406Y27009D01*
G01X32401Y26992D01*
G01X32399Y26975D01*
G01X32400Y26958D01*
G01X32404Y26942D01*
G01X32411Y26926D01*
G01X32421Y26910D01*
G01X32433Y26895D01*
G01X32448Y26881D01*
G01X32467Y26868D01*
G01X32499Y26849D01*
G01X32526Y26844D01*
G01X32554Y26852D01*
G01X32589Y26873D01*
G01X32607Y26888D01*
G01X32622Y26905D01*
G01X32634Y26924D01*
G01X32642Y26944D01*
G01X32648Y26964D01*
G01X32650Y26985D01*
G01X32649Y27005D01*
G01X32645Y27025D01*
G01X32638Y27043D01*
G01X32627Y27059D01*
G01X32614Y27074D01*
G01X32596Y27085D01*
G01X32570Y27098D01*
G01X32547Y27107D01*
G01X32527Y27112D01*
G37*

%LPD*%
G36*
G01X32785Y27170D02*
G01X32777Y27172D01*
G01X32761Y27171D01*
G01X32749Y27165D01*
G01X32741Y27158D01*
G01X32738Y27149D01*
G01X32739Y27142D01*
G01X32748Y27115D01*
G01X32755Y27096D01*
G01X32764Y27075D01*
G01X32774Y27052D01*
G01X32785Y27028D01*
G01X32797Y27003D01*
G01X32812Y26971D01*
G01X32825Y26943D01*
G01X32835Y26918D01*
G01X32843Y26894D01*
G01X32848Y26872D01*
G01X32852Y26851D01*
G01X32854Y26829D01*
G01X32854Y26807D01*
G01X32852Y26784D01*
G01X32848Y26759D01*
G01X32843Y26732D01*
G01X32836Y26702D01*
G01X32829Y26665D01*
G01X32829Y26642D01*
G01X32836Y26631D01*
G01X32851Y26631D01*
G01X32856Y26635D01*
G01X32863Y26642D01*
G01X32872Y26653D01*
G01X32881Y26668D01*
G01X32892Y26685D01*
G01X32903Y26705D01*
G01X32915Y26727D01*
G01X32940Y26777D01*
G01X32954Y26803D01*
G01X32967Y26831D01*
G01X32981Y26860D01*
G01X32994Y26888D01*
G01X33006Y26917D01*
G01X33019Y26946D01*
G01X33031Y26973D01*
G01X33041Y27000D01*
G01X33051Y27025D01*
G01X33060Y27049D01*
G01X33068Y27070D01*
G01X33074Y27090D01*
G01X33078Y27106D01*
G01X33081Y27120D01*
G01X33082Y27130D01*
G01X33081Y27148D01*
G01X33078Y27161D01*
G01X33072Y27169D01*
G01X33066Y27172D01*
G01X33057Y27171D01*
G01X33047Y27166D01*
G01X33036Y27156D01*
G01X33025Y27143D01*
G01X33012Y27125D01*
G01X32999Y27104D01*
G01X32985Y27079D01*
G01X32971Y27050D01*
G01X32916Y26928D01*
G01X32865Y27050D01*
G01X32855Y27075D01*
G01X32843Y27098D01*
G01X32831Y27118D01*
G01X32819Y27136D01*
G01X32807Y27151D01*
G01X32796Y27163D01*
G01X32785Y27170D01*
G37*

%LPD*%
G36*
G01X26905Y27179D02*
G01X26884Y27179D01*
G01X26864Y27176D01*
G01X26845Y27170D01*
G01X26827Y27163D01*
G01X26812Y27154D01*
G01X26797Y27144D01*
G01X26782Y27131D01*
G01X26767Y27117D01*
G01X26753Y27103D01*
G01X26740Y27087D01*
G01X26730Y27072D01*
G01X26721Y27057D01*
G01X26714Y27042D01*
G01X26709Y27024D01*
G01X26704Y27003D01*
G01X26700Y26980D01*
G01X26697Y26955D01*
G01X26694Y26929D01*
G01X26692Y26902D01*
G01X26691Y26874D01*
G01X26691Y26846D01*
G01X26692Y26818D01*
G01X26693Y26791D01*
G01X26695Y26764D01*
G01X26698Y26739D01*
G01X26701Y26716D01*
G01X26705Y26694D01*
G01X26710Y26676D01*
G01X26715Y26660D01*
G01X26721Y26648D01*
G01X26728Y26639D01*
G01X26735Y26634D01*
G01X26751Y26635D01*
G01X26762Y26651D01*
G01X26768Y26681D01*
G01X26771Y26726D01*
G01X26771Y26757D01*
G01X26772Y26781D01*
G01X26775Y26797D01*
G01X26779Y26807D01*
G01X26786Y26811D01*
G01X26796Y26810D01*
G01X26810Y26804D01*
G01X26844Y26784D01*
G01X26861Y26778D01*
G01X26879Y26774D01*
G01X26897Y26772D01*
G01X26916Y26773D01*
G01X26934Y26776D01*
G01X26952Y26780D01*
G01X26969Y26787D01*
G01X26987Y26795D01*
G01X27003Y26805D01*
G01X27019Y26817D01*
G01X27034Y26830D01*
G01X27048Y26844D01*
G01X27061Y26859D01*
G01X27073Y26875D01*
G01X27083Y26892D01*
G01X27092Y26910D01*
G01X27099Y26929D01*
G01X27105Y26948D01*
G01X27108Y26967D01*
G01X27109Y26987D01*
G01X27109Y27007D01*
G01X27105Y27027D01*
G01X27100Y27046D01*
G01X27092Y27065D01*
G01X27081Y27083D01*
G01X27069Y27100D01*
G01X27055Y27115D01*
G01X27039Y27129D01*
G01X27022Y27142D01*
G01X27004Y27153D01*
G01X26985Y27162D01*
G01X26966Y27169D01*
G01X26946Y27175D01*
G01X26925Y27178D01*
G01X26905Y27179D01*
G37*

%LPC*%
G36*
G01X26904Y27112D02*
G01X26886Y27113D01*
G01X26869Y27109D01*
G01X26852Y27100D01*
G01X26835Y27087D01*
G01X26816Y27070D01*
G01X26798Y27051D01*
G01X26785Y27034D01*
G01X26777Y27017D01*
G01X26773Y27000D01*
G01X26773Y26981D01*
G01X26778Y26961D01*
G01X26787Y26938D01*
G01X26800Y26912D01*
G01X26810Y26898D01*
G01X26823Y26886D01*
G01X26837Y26875D01*
G01X26854Y26867D01*
G01X26872Y26862D01*
G01X26890Y26859D01*
G01X26909Y26858D01*
G01X26928Y26859D01*
G01X26947Y26863D01*
G01X26964Y26870D01*
G01X26980Y26879D01*
G01X26994Y26891D01*
G01X27006Y26905D01*
G01X27015Y26921D01*
G01X27022Y26939D01*
G01X27026Y26957D01*
G01X27028Y26977D01*
G01X27027Y26996D01*
G01X27024Y27014D01*
G01X27018Y27032D01*
G01X27010Y27048D01*
G01X27000Y27063D01*
G01X26988Y27075D01*
G01X26973Y27085D01*
G01X26947Y27098D01*
G01X26924Y27107D01*
G01X26904Y27112D01*
G37*

%LPD*%
G36*
G01X31264Y27172D02*
G01X31103Y27172D01*
G01X31103Y26930D01*
G01X31105Y26892D01*
G01X31107Y26857D01*
G01X31111Y26828D01*
G01X31115Y26804D01*
G01X31120Y26786D01*
G01X31125Y26775D01*
G01X31131Y26771D01*
G01X31143Y26779D01*
G01X31152Y26803D01*
G01X31158Y26837D01*
G01X31160Y26879D01*
G01X31161Y26908D01*
G01X31165Y26937D01*
G01X31171Y26965D01*
G01X31179Y26992D01*
G01X31189Y27017D01*
G01X31201Y27041D01*
G01X31213Y27062D01*
G01X31227Y27080D01*
G01X31242Y27094D01*
G01X31257Y27105D01*
G01X31273Y27113D01*
G01X31289Y27115D01*
G01X31307Y27113D01*
G01X31325Y27108D01*
G01X31341Y27099D01*
G01X31356Y27087D01*
G01X31370Y27072D01*
G01X31382Y27055D01*
G01X31393Y27034D01*
G01X31402Y27011D01*
G01X31409Y26986D01*
G01X31414Y26959D01*
G01X31417Y26929D01*
G01X31418Y26898D01*
G01X31421Y26848D01*
G01X31427Y26808D01*
G01X31436Y26781D01*
G01X31447Y26771D01*
G01X31453Y26774D01*
G01X31458Y26783D01*
G01X31463Y26797D01*
G01X31467Y26816D01*
G01X31471Y26838D01*
G01X31473Y26865D01*
G01X31475Y26893D01*
G01X31476Y26924D01*
G01X31475Y26952D01*
G01X31474Y26978D01*
G01X31472Y27002D01*
G01X31469Y27024D01*
G01X31464Y27045D01*
G01X31459Y27063D01*
G01X31453Y27080D01*
G01X31445Y27095D01*
G01X31436Y27109D01*
G01X31426Y27121D01*
G01X31414Y27132D01*
G01X31402Y27141D01*
G01X31387Y27149D01*
G01X31371Y27155D01*
G01X31353Y27161D01*
G01X31333Y27165D01*
G01X31312Y27168D01*
G01X31289Y27171D01*
G01X31264Y27172D01*
G37*

%LPD*%
G36*
G01X30171Y27172D02*
G01X30013Y27172D01*
G01X30013Y26917D01*
G01X30014Y26875D01*
G01X30017Y26840D01*
G01X30021Y26814D01*
G01X30025Y26795D01*
G01X30031Y26783D01*
G01X30039Y26777D01*
G01X30048Y26778D01*
G01X30056Y26783D01*
G01X30063Y26793D01*
G01X30071Y26808D01*
G01X30078Y26827D01*
G01X30084Y26848D01*
G01X30090Y26873D01*
G01X30095Y26900D01*
G01X30098Y26928D01*
G01X30102Y26958D01*
G01X30107Y26986D01*
G01X30113Y27011D01*
G01X30120Y27034D01*
G01X30128Y27053D01*
G01X30137Y27070D01*
G01X30147Y27084D01*
G01X30157Y27094D01*
G01X30169Y27102D01*
G01X30181Y27107D01*
G01X30194Y27109D01*
G01X30207Y27108D01*
G01X30222Y27104D01*
G01X30237Y27097D01*
G01X30253Y27087D01*
G01X30269Y27073D01*
G01X30284Y27058D01*
G01X30296Y27042D01*
G01X30306Y27024D01*
G01X30314Y27003D01*
G01X30321Y26981D01*
G01X30325Y26955D01*
G01X30327Y26927D01*
G01X30328Y26895D01*
G01X30330Y26847D01*
G01X30336Y26807D01*
G01X30344Y26780D01*
G01X30355Y26771D01*
G01X30367Y26773D01*
G01X30377Y26780D01*
G01X30386Y26790D01*
G01X30393Y26805D01*
G01X30399Y26822D01*
G01X30403Y26842D01*
G01X30406Y26865D01*
G01X30407Y26888D01*
G01X30407Y26913D01*
G01X30406Y26940D01*
G01X30404Y26966D01*
G01X30400Y26992D01*
G01X30395Y27018D01*
G01X30389Y27042D01*
G01X30381Y27065D01*
G01X30372Y27087D01*
G01X30363Y27106D01*
G01X30352Y27122D01*
G01X30340Y27135D01*
G01X30327Y27144D01*
G01X30314Y27150D01*
G01X30297Y27155D01*
G01X30275Y27160D01*
G01X30252Y27164D01*
G01X30226Y27167D01*
G01X30198Y27170D01*
G01X30171Y27172D01*
G37*

%LPD*%
G36*
G01X28915Y27160D02*
G01X28779Y27163D01*
G01X28779Y26967D01*
G01X28780Y26926D01*
G01X28781Y26889D01*
G01X28784Y26855D01*
G01X28787Y26827D01*
G01X28791Y26803D01*
G01X28796Y26786D01*
G01X28802Y26775D01*
G01X28807Y26771D01*
G01X28819Y26780D01*
G01X28828Y26807D01*
G01X28834Y26845D01*
G01X28837Y26892D01*
G01X28838Y26930D01*
G01X28840Y26963D01*
G01X28844Y26992D01*
G01X28850Y27017D01*
G01X28858Y27038D01*
G01X28868Y27056D01*
G01X28880Y27070D01*
G01X28894Y27082D01*
G01X28911Y27090D01*
G01X28931Y27096D01*
G01X28953Y27100D01*
G01X28979Y27101D01*
G01X29003Y27101D01*
G01X29023Y27103D01*
G01X29039Y27106D01*
G01X29050Y27109D01*
G01X29057Y27114D01*
G01X29061Y27119D01*
G01X29060Y27124D01*
G01X29056Y27130D01*
G01X29049Y27135D01*
G01X29038Y27140D01*
G01X29024Y27145D01*
G01X29007Y27150D01*
G01X28988Y27154D01*
G01X28966Y27157D01*
G01X28942Y27159D01*
G01X28915Y27160D01*
G37*

%LPD*%
G36*
G01X27758Y27179D02*
G01X27734Y27179D01*
G01X27710Y27178D01*
G01X27603Y27169D01*
G01X27603Y26953D01*
G01X27604Y26923D01*
G01X27606Y26896D01*
G01X27609Y26871D01*
G01X27611Y26849D01*
G01X27615Y26830D01*
G01X27619Y26813D01*
G01X27624Y26800D01*
G01X27629Y26790D01*
G01X27634Y26783D01*
G01X27640Y26779D01*
G01X27646Y26779D01*
G01X27652Y26782D01*
G01X27658Y26790D01*
G01X27665Y26801D01*
G01X27671Y26816D01*
G01X27678Y26841D01*
G01X27684Y26875D01*
G01X27687Y26914D01*
G01X27689Y26954D01*
G01X27692Y26992D01*
G01X27699Y27029D01*
G01X27710Y27060D01*
G01X27723Y27080D01*
G01X27740Y27095D01*
G01X27757Y27106D01*
G01X27775Y27112D01*
G01X27792Y27115D01*
G01X27809Y27114D01*
G01X27825Y27109D01*
G01X27840Y27101D01*
G01X27855Y27089D01*
G01X27868Y27074D01*
G01X27881Y27057D01*
G01X27891Y27036D01*
G01X27901Y27013D01*
G01X27908Y26988D01*
G01X27914Y26960D01*
G01X27917Y26930D01*
G01X27918Y26898D01*
G01X27921Y26848D01*
G01X27927Y26808D01*
G01X27936Y26781D01*
G01X27947Y26771D01*
G01X27953Y26774D01*
G01X27958Y26784D01*
G01X27963Y26800D01*
G01X27967Y26821D01*
G01X27971Y26846D01*
G01X27973Y26875D01*
G01X27975Y26907D01*
G01X27976Y26942D01*
G01X27976Y26979D01*
G01X27975Y27010D01*
G01X27973Y27037D01*
G01X27971Y27059D01*
G01X27968Y27078D01*
G01X27964Y27093D01*
G01X27957Y27106D01*
G01X27950Y27117D01*
G01X27940Y27126D01*
G01X27928Y27134D01*
G01X27914Y27142D01*
G01X27897Y27151D01*
G01X27879Y27158D01*
G01X27857Y27164D01*
G01X27834Y27169D01*
G01X27809Y27174D01*
G01X27784Y27177D01*
G01X27758Y27179D01*
G37*

%LPD*%
G36*
G01X29785Y27171D02*
G01X29756Y27172D01*
G01X29733Y27171D01*
G01X29711Y27169D01*
G01X29689Y27166D01*
G01X29669Y27161D01*
G01X29651Y27155D01*
G01X29635Y27149D01*
G01X29623Y27142D01*
G01X29614Y27134D01*
G01X29601Y27112D01*
G01X29587Y27080D01*
G01X29574Y27044D01*
G01X29565Y27007D01*
G01X29561Y26982D01*
G01X29559Y26959D01*
G01X29561Y26940D01*
G01X29565Y26921D01*
G01X29573Y26903D01*
G01X29585Y26884D01*
G01X29601Y26865D01*
G01X29621Y26844D01*
G01X29641Y26826D01*
G01X29662Y26810D01*
G01X29684Y26797D01*
G01X29706Y26787D01*
G01X29728Y26779D01*
G01X29750Y26774D01*
G01X29772Y26772D01*
G01X29793Y26773D01*
G01X29813Y26776D01*
G01X29831Y26783D01*
G01X29848Y26792D01*
G01X29863Y26805D01*
G01X29881Y26825D01*
G01X29892Y26841D01*
G01X29896Y26854D01*
G01X29892Y26863D01*
G01X29881Y26869D01*
G01X29863Y26872D01*
G01X29836Y26871D01*
G01X29803Y26866D01*
G01X29758Y26862D01*
G01X29722Y26866D01*
G01X29693Y26877D01*
G01X29671Y26897D01*
G01X29660Y26911D01*
G01X29655Y26921D01*
G01X29656Y26930D01*
G01X29665Y26935D01*
G01X29681Y26939D01*
G01X29707Y26941D01*
G01X29743Y26942D01*
G01X29791Y26943D01*
G01X29823Y26943D01*
G01X29853Y26945D01*
G01X29879Y26948D01*
G01X29902Y26951D01*
G01X29921Y26956D01*
G01X29937Y26962D01*
G01X29950Y26970D01*
G01X29959Y26978D01*
G01X29965Y26988D01*
G01X29968Y27000D01*
G01X29968Y27013D01*
G01X29965Y27027D01*
G01X29959Y27042D01*
G01X29950Y27059D01*
G01X29938Y27078D01*
G01X29923Y27099D01*
G01X29906Y27118D01*
G01X29890Y27134D01*
G01X29872Y27146D01*
G01X29854Y27157D01*
G01X29834Y27164D01*
G01X29811Y27169D01*
G01X29785Y27171D01*
G37*

%LPC*%
G36*
G01X29794Y27109D02*
G01X29774Y27112D01*
G01X29753Y27111D01*
G01X29731Y27104D01*
G01X29707Y27092D01*
G01X29681Y27074D01*
G01X29652Y27051D01*
G01X29642Y27036D01*
G01X29649Y27026D01*
G01X29673Y27015D01*
G01X29698Y27008D01*
G01X29734Y27004D01*
G01X29774Y27003D01*
G01X29814Y27005D01*
G01X29844Y27008D01*
G01X29866Y27011D01*
G01X29881Y27015D01*
G01X29888Y27020D01*
G01X29889Y27027D01*
G01X29884Y27036D01*
G01X29874Y27049D01*
G01X29858Y27065D01*
G01X29836Y27085D01*
G01X29815Y27099D01*
G01X29794Y27109D01*
G37*

%LPD*%
G36*
G01X27374Y27171D02*
G01X27353Y27171D01*
G01X27331Y27169D01*
G01X27309Y27166D01*
G01X27288Y27161D01*
G01X27268Y27155D01*
G01X27249Y27147D01*
G01X27231Y27138D01*
G01X27215Y27127D01*
G01X27201Y27115D01*
G01X27183Y27095D01*
G01X27169Y27073D01*
G01X27158Y27051D01*
G01X27151Y27028D01*
G01X27147Y27005D01*
G01X27147Y26981D01*
G01X27149Y26957D01*
G01X27156Y26933D01*
G01X27165Y26909D01*
G01X27178Y26886D01*
G01X27194Y26863D01*
G01X27214Y26841D01*
G01X27233Y26823D01*
G01X27252Y26809D01*
G01X27272Y26796D01*
G01X27292Y26786D01*
G01X27312Y26779D01*
G01X27332Y26775D01*
G01X27353Y26772D01*
G01X27374Y26773D01*
G01X27395Y26776D01*
G01X27417Y26782D01*
G01X27439Y26790D01*
G01X27461Y26800D01*
G01X27482Y26813D01*
G01X27497Y26824D01*
G01X27509Y26835D01*
G01X27515Y26844D01*
G01X27516Y26853D01*
G01X27513Y26860D01*
G01X27506Y26866D01*
G01X27494Y26870D01*
G01X27478Y26873D01*
G01X27459Y26873D01*
G01X27435Y26872D01*
G01X27408Y26869D01*
G01X27379Y26865D01*
G01X27355Y26863D01*
G01X27333Y26863D01*
G01X27314Y26865D01*
G01X27298Y26870D01*
G01X27284Y26877D01*
G01X27272Y26886D01*
G01X27261Y26897D01*
G01X27250Y26911D01*
G01X27245Y26921D01*
G01X27247Y26930D01*
G01X27255Y26935D01*
G01X27272Y26939D01*
G01X27299Y26941D01*
G01X27336Y26942D01*
G01X27384Y26943D01*
G01X27435Y26943D01*
G01X27473Y26944D01*
G01X27502Y26948D01*
G01X27522Y26953D01*
G01X27534Y26961D01*
G01X27541Y26974D01*
G01X27544Y26991D01*
G01X27545Y27013D01*
G01X27542Y27043D01*
G01X27532Y27075D01*
G01X27518Y27104D01*
G01X27500Y27127D01*
G01X27487Y27138D01*
G01X27472Y27148D01*
G01X27455Y27156D01*
G01X27436Y27162D01*
G01X27417Y27167D01*
G01X27396Y27170D01*
G01X27374Y27171D01*
G37*

%LPC*%
G36*
G01X27376Y27110D02*
G01X27347Y27112D01*
G01X27318Y27104D01*
G01X27280Y27084D01*
G01X27261Y27072D01*
G01X27247Y27061D01*
G01X27238Y27050D01*
G01X27232Y27040D01*
G01X27232Y27032D01*
G01X27235Y27024D01*
G01X27243Y27017D01*
G01X27255Y27011D01*
G01X27272Y27006D01*
G01X27292Y27003D01*
G01X27316Y27001D01*
G01X27344Y27000D01*
G01X27372Y27001D01*
G01X27397Y27005D01*
G01X27418Y27010D01*
G01X27436Y27017D01*
G01X27449Y27026D01*
G01X27459Y27035D01*
G01X27463Y27046D01*
G01X27464Y27056D01*
G01X27459Y27067D01*
G01X27449Y27078D01*
G01X27434Y27088D01*
G01X27414Y27098D01*
G01X27376Y27110D01*
G37*

%LPD*%
G36*
G01X28527Y27342D02*
G01X28504Y27342D01*
G01X28480Y27340D01*
G01X28457Y27336D01*
G01X28435Y27331D01*
G01X28414Y27324D01*
G01X28394Y27315D01*
G01X28376Y27305D01*
G01X28359Y27294D01*
G01X28341Y27278D01*
G01X28324Y27261D01*
G01X28309Y27244D01*
G01X28295Y27226D01*
G01X28282Y27207D01*
G01X28272Y27188D01*
G01X28263Y27169D01*
G01X28256Y27150D01*
G01X28250Y27130D01*
G01X28245Y27110D01*
G01X28243Y27090D01*
G01X28242Y27069D01*
G01X28242Y27049D01*
G01X28244Y27029D01*
G01X28248Y27009D01*
G01X28253Y26989D01*
G01X28260Y26969D01*
G01X28268Y26950D01*
G01X28278Y26931D01*
G01X28289Y26913D01*
G01X28303Y26894D01*
G01X28318Y26877D01*
G01X28334Y26860D01*
G01X28352Y26844D01*
G01X28370Y26829D01*
G01X28389Y26816D01*
G01X28407Y26805D01*
G01X28426Y26795D01*
G01X28444Y26787D01*
G01X28463Y26781D01*
G01X28482Y26777D01*
G01X28501Y26774D01*
G01X28520Y26773D01*
G01X28539Y26774D01*
G01X28560Y26777D01*
G01X28580Y26781D01*
G01X28601Y26787D01*
G01X28622Y26795D01*
G01X28644Y26804D01*
G01X28667Y26815D01*
G01X28693Y26829D01*
G01X28712Y26842D01*
G01X28727Y26855D01*
G01X28737Y26870D01*
G01X28743Y26888D01*
G01X28747Y26909D01*
G01X28747Y26934D01*
G01X28745Y26966D01*
G01X28742Y26999D01*
G01X28737Y27025D01*
G01X28731Y27044D01*
G01X28721Y27058D01*
G01X28707Y27067D01*
G01X28688Y27073D01*
G01X28662Y27078D01*
G01X28628Y27081D01*
G01X28585Y27082D01*
G01X28551Y27078D01*
G01X28529Y27071D01*
G01X28521Y27059D01*
G01X28525Y27048D01*
G01X28538Y27038D01*
G01X28556Y27031D01*
G01X28578Y27029D01*
G01X28606Y27025D01*
G01X28623Y27011D01*
G01X28633Y26984D01*
G01X28635Y26943D01*
G01X28633Y26900D01*
G01X28623Y26873D01*
G01X28603Y26861D01*
G01X28571Y26857D01*
G01X28541Y26858D01*
G01X28514Y26860D01*
G01X28488Y26864D01*
G01X28465Y26869D01*
G01X28444Y26876D01*
G01X28425Y26885D01*
G01X28408Y26895D01*
G01X28393Y26907D01*
G01X28379Y26921D01*
G01X28367Y26936D01*
G01X28357Y26954D01*
G01X28348Y26973D01*
G01X28338Y27001D01*
G01X28331Y27028D01*
G01X28327Y27054D01*
G01X28327Y27080D01*
G01X28329Y27105D01*
G01X28334Y27129D01*
G01X28342Y27153D01*
G01X28353Y27175D01*
G01X28367Y27196D01*
G01X28383Y27215D01*
G01X28402Y27232D01*
G01X28423Y27248D01*
G01X28445Y27262D01*
G01X28464Y27272D01*
G01X28482Y27278D01*
G01X28501Y27282D01*
G01X28519Y27282D01*
G01X28540Y27278D01*
G01X28563Y27272D01*
G01X28623Y27252D01*
G01X28652Y27243D01*
G01X28677Y27236D01*
G01X28698Y27232D01*
G01X28714Y27231D01*
G01X28726Y27232D01*
G01X28733Y27235D01*
G01X28735Y27241D01*
G01X28733Y27249D01*
G01X28726Y27260D01*
G01X28714Y27273D01*
G01X28697Y27288D01*
G01X28680Y27300D01*
G01X28661Y27311D01*
G01X28642Y27320D01*
G01X28620Y27328D01*
G01X28598Y27334D01*
G01X28575Y27338D01*
G01X28551Y27341D01*
G01X28527Y27342D01*
G37*

%LPD*%
G36*
G01X26391Y27344D02*
G01X26336Y27344D01*
G01X26307Y27340D01*
G01X26281Y27335D01*
G01X26257Y27327D01*
G01X26235Y27316D01*
G01X26212Y27301D01*
G01X26190Y27283D01*
G01X26166Y27261D01*
G01X26148Y27242D01*
G01X26132Y27222D01*
G01X26118Y27202D01*
G01X26107Y27182D01*
G01X26097Y27162D01*
G01X26089Y27141D01*
G01X26083Y27121D01*
G01X26079Y27100D01*
G01X26077Y27079D01*
G01X26077Y27058D01*
G01X26079Y27037D01*
G01X26082Y27016D01*
G01X26088Y26996D01*
G01X26096Y26975D01*
G01X26106Y26955D01*
G01X26118Y26935D01*
G01X26131Y26916D01*
G01X26147Y26896D01*
G01X26164Y26878D01*
G01X26184Y26860D01*
G01X26205Y26842D01*
G01X26226Y26826D01*
G01X26246Y26813D01*
G01X26266Y26801D01*
G01X26286Y26792D01*
G01X26306Y26784D01*
G01X26326Y26778D01*
G01X26346Y26775D01*
G01X26366Y26773D01*
G01X26386Y26774D01*
G01X26406Y26777D01*
G01X26427Y26781D01*
G01X26448Y26787D01*
G01X26469Y26796D01*
G01X26490Y26806D01*
G01X26513Y26818D01*
G01X26531Y26830D01*
G01X26548Y26842D01*
G01X26564Y26855D01*
G01X26578Y26869D01*
G01X26591Y26884D01*
G01X26603Y26899D01*
G01X26614Y26914D01*
G01X26623Y26930D01*
G01X26631Y26947D01*
G01X26638Y26963D01*
G01X26644Y26980D01*
G01X26648Y26998D01*
G01X26652Y27015D01*
G01X26654Y27033D01*
G01X26656Y27050D01*
G01X26656Y27068D01*
G01X26655Y27086D01*
G01X26653Y27103D01*
G01X26650Y27120D01*
G01X26646Y27137D01*
G01X26634Y27171D01*
G01X26627Y27186D01*
G01X26619Y27202D01*
G01X26610Y27217D01*
G01X26600Y27232D01*
G01X26589Y27246D01*
G01X26577Y27259D01*
G01X26551Y27283D01*
G01X26536Y27294D01*
G01X26521Y27304D01*
G01X26505Y27313D01*
G01X26488Y27321D01*
G01X26470Y27328D01*
G01X26451Y27334D01*
G01X26432Y27338D01*
G01X26411Y27342D01*
G01X26391Y27344D01*
G37*

%LPC*%
G36*
G01X26386Y27282D02*
G01X26368Y27283D01*
G01X26350Y27282D01*
G01X26331Y27279D01*
G01X26310Y27275D01*
G01X26289Y27267D01*
G01X26265Y27259D01*
G01X26246Y27248D01*
G01X26228Y27234D01*
G01X26212Y27216D01*
G01X26197Y27194D01*
G01X26184Y27171D01*
G01X26174Y27145D01*
G01X26166Y27118D01*
G01X26160Y27090D01*
G01X26157Y27063D01*
G01X26158Y27036D01*
G01X26161Y27010D01*
G01X26168Y26986D01*
G01X26176Y26968D01*
G01X26186Y26951D01*
G01X26199Y26935D01*
G01X26213Y26920D01*
G01X26228Y26905D01*
G01X26245Y26893D01*
G01X26263Y26881D01*
G01X26282Y26871D01*
G01X26302Y26863D01*
G01X26322Y26856D01*
G01X26342Y26851D01*
G01X26362Y26847D01*
G01X26382Y26846D01*
G01X26401Y26847D01*
G01X26420Y26850D01*
G01X26438Y26855D01*
G01X26459Y26865D01*
G01X26478Y26877D01*
G01X26497Y26891D01*
G01X26513Y26906D01*
G01X26527Y26923D01*
G01X26539Y26942D01*
G01X26550Y26962D01*
G01X26558Y26982D01*
G01X26564Y27004D01*
G01X26569Y27026D01*
G01X26571Y27048D01*
G01X26571Y27070D01*
G01X26569Y27092D01*
G01X26565Y27115D01*
G01X26559Y27136D01*
G01X26551Y27157D01*
G01X26540Y27176D01*
G01X26527Y27195D01*
G01X26512Y27212D01*
G01X26494Y27228D01*
G01X26475Y27242D01*
G01X26456Y27255D01*
G01X26438Y27265D01*
G01X26421Y27273D01*
G01X26403Y27278D01*
G01X26386Y27282D01*
G37*

%LPD*%
G36*
G01X30885Y27344D02*
G01X30642Y27344D01*
G01X30650Y27065D01*
G01X30658Y26785D01*
G01X30852Y26777D01*
G01X30890Y26775D01*
G01X30927Y26775D01*
G01X30960Y26776D01*
G01X30988Y26778D01*
G01X31012Y26781D01*
G01X31030Y26785D01*
G01X31041Y26790D01*
G01X31045Y26795D01*
G01X31043Y26803D01*
G01X31035Y26812D01*
G01X31022Y26819D01*
G01X31006Y26826D01*
G01X30986Y26832D01*
G01X30963Y26836D01*
G01X30939Y26840D01*
G01X30913Y26842D01*
G01X30886Y26843D01*
G01X30860Y26842D01*
G01X30834Y26840D01*
G01X30784Y26832D01*
G01X30764Y26830D01*
G01X30750Y26832D01*
G01X30741Y26840D01*
G01X30735Y26853D01*
G01X30731Y26873D01*
G01X30730Y26902D01*
G01X30730Y27057D01*
G01X30843Y27057D01*
G01X30888Y27060D01*
G01X30928Y27066D01*
G01X30958Y27075D01*
G01X30973Y27086D01*
G01X30972Y27098D01*
G01X30951Y27107D01*
G01X30913Y27113D01*
G01X30860Y27115D01*
G01X30819Y27115D01*
G01X30787Y27117D01*
G01X30764Y27120D01*
G01X30748Y27127D01*
G01X30738Y27137D01*
G01X30732Y27153D01*
G01X30730Y27173D01*
G01X30730Y27229D01*
G01X30732Y27250D01*
G01X30739Y27266D01*
G01X30750Y27276D01*
G01X30769Y27282D01*
G01X30797Y27286D01*
G01X30836Y27287D01*
G01X30888Y27287D01*
G01X30919Y27288D01*
G01X30949Y27289D01*
G01X30976Y27292D01*
G01X30999Y27296D01*
G01X31018Y27300D01*
G01X31033Y27305D01*
G01X31042Y27310D01*
G01X31045Y27316D01*
G01X31041Y27322D01*
G01X31030Y27327D01*
G01X31012Y27332D01*
G01X30988Y27336D01*
G01X30958Y27340D01*
G01X30924Y27342D01*
G01X30885Y27344D01*
G37*

%LPD*%
G36*
G01X29339Y27178D02*
G01X29317Y27179D01*
G01X29295Y27178D01*
G01X29264Y27171D01*
G01X29233Y27161D01*
G01X29205Y27148D01*
G01X29185Y27135D01*
G01X29168Y27120D01*
G01X29154Y27104D01*
G01X29143Y27087D01*
G01X29133Y27069D01*
G01X29126Y27051D01*
G01X29120Y27033D01*
G01X29117Y27014D01*
G01X29116Y26995D01*
G01X29116Y26976D01*
G01X29118Y26957D01*
G01X29122Y26938D01*
G01X29127Y26919D01*
G01X29135Y26901D01*
G01X29143Y26884D01*
G01X29153Y26867D01*
G01X29164Y26852D01*
G01X29176Y26838D01*
G01X29190Y26824D01*
G01X29204Y26812D01*
G01X29220Y26802D01*
G01X29236Y26793D01*
G01X29254Y26786D01*
G01X29272Y26780D01*
G01X29291Y26777D01*
G01X29311Y26776D01*
G01X29331Y26777D01*
G01X29352Y26781D01*
G01X29372Y26787D01*
G01X29402Y26798D01*
G01X29426Y26810D01*
G01X29443Y26822D01*
G01X29456Y26833D01*
G01X29462Y26844D01*
G01X29462Y26853D01*
G01X29457Y26862D01*
G01X29447Y26869D01*
G01X29431Y26875D01*
G01X29410Y26878D01*
G01X29383Y26880D01*
G01X29351Y26879D01*
G01X29323Y26878D01*
G01X29299Y26878D01*
G01X29277Y26880D01*
G01X29258Y26882D01*
G01X29243Y26887D01*
G01X29231Y26892D01*
G01X29222Y26899D01*
G01X29217Y26907D01*
G01X29216Y26916D01*
G01X29219Y26923D01*
G01X29227Y26930D01*
G01X29241Y26934D01*
G01X29259Y26938D01*
G01X29283Y26941D01*
G01X29313Y26942D01*
G01X29348Y26943D01*
G01X29385Y26943D01*
G01X29416Y26945D01*
G01X29443Y26948D01*
G01X29465Y26953D01*
G01X29484Y26959D01*
G01X29498Y26966D01*
G01X29509Y26976D01*
G01X29515Y26987D01*
G01X29519Y27001D01*
G01X29519Y27017D01*
G01X29517Y27035D01*
G01X29511Y27055D01*
G01X29503Y27074D01*
G01X29493Y27091D01*
G01X29480Y27108D01*
G01X29464Y27123D01*
G01X29446Y27137D01*
G01X29427Y27150D01*
G01X29406Y27160D01*
G01X29384Y27168D01*
G01X29362Y27175D01*
G01X29339Y27178D01*
G37*

%LPC*%
G36*
G01X29301Y27109D02*
G01X29282Y27109D01*
G01X29264Y27105D01*
G01X29249Y27100D01*
G01X29235Y27093D01*
G01X29225Y27083D01*
G01X29216Y27071D01*
G01X29211Y27058D01*
G01X29209Y27042D01*
G01X29216Y27025D01*
G01X29236Y27013D01*
G01X29272Y27008D01*
G01X29324Y27008D01*
G01X29353Y27009D01*
G01X29378Y27012D01*
G01X29398Y27015D01*
G01X29414Y27020D01*
G01X29426Y27025D01*
G01X29433Y27031D01*
G01X29436Y27038D01*
G01X29434Y27046D01*
G01X29428Y27054D01*
G01X29418Y27064D01*
G01X29402Y27074D01*
G01X29383Y27085D01*
G01X29362Y27095D01*
G01X29341Y27102D01*
G01X29320Y27107D01*
G01X29301Y27109D01*
G37*

%LPD*%
G36*
G01X31742Y27175D02*
G01X31719Y27175D01*
G01X31696Y27173D01*
G01X31673Y27169D01*
G01X31652Y27163D01*
G01X31631Y27155D01*
G01X31611Y27145D01*
G01X31594Y27132D01*
G01X31578Y27117D01*
G01X31566Y27103D01*
G01X31556Y27087D01*
G01X31548Y27071D01*
G01X31542Y27053D01*
G01X31538Y27036D01*
G01X31535Y27018D01*
G01X31535Y27000D01*
G01X31536Y26982D01*
G01X31538Y26964D01*
G01X31542Y26946D01*
G01X31547Y26929D01*
G01X31554Y26912D01*
G01X31562Y26895D01*
G01X31571Y26879D01*
G01X31581Y26864D01*
G01X31592Y26849D01*
G01X31604Y26836D01*
G01X31618Y26823D01*
G01X31631Y26812D01*
G01X31661Y26794D01*
G01X31677Y26787D01*
G01X31694Y26782D01*
G01X31711Y26779D01*
G01X31728Y26778D01*
G01X31746Y26778D01*
G01X31764Y26781D01*
G01X31781Y26786D01*
G01X31810Y26798D01*
G01X31834Y26809D01*
G01X31851Y26821D01*
G01X31863Y26831D01*
G01X31869Y26842D01*
G01X31870Y26851D01*
G01X31865Y26859D01*
G01X31855Y26866D01*
G01X31839Y26871D01*
G01X31818Y26875D01*
G01X31792Y26877D01*
G01X31760Y26877D01*
G01X31733Y26876D01*
G01X31709Y26877D01*
G01X31687Y26879D01*
G01X31668Y26882D01*
G01X31653Y26886D01*
G01X31640Y26892D01*
G01X31632Y26899D01*
G01X31627Y26907D01*
G01X31626Y26916D01*
G01X31629Y26923D01*
G01X31638Y26930D01*
G01X31651Y26934D01*
G01X31670Y26938D01*
G01X31694Y26941D01*
G01X31725Y26942D01*
G01X31761Y26943D01*
G01X31791Y26943D01*
G01X31818Y26945D01*
G01X31842Y26948D01*
G01X31864Y26952D01*
G01X31882Y26957D01*
G01X31897Y26963D01*
G01X31909Y26971D01*
G01X31919Y26979D01*
G01X31925Y26990D01*
G01X31929Y27001D01*
G01X31930Y27014D01*
G01X31928Y27028D01*
G01X31924Y27044D01*
G01X31917Y27061D01*
G01X31907Y27080D01*
G01X31894Y27101D01*
G01X31881Y27117D01*
G01X31867Y27131D01*
G01X31849Y27143D01*
G01X31830Y27154D01*
G01X31810Y27162D01*
G01X31788Y27168D01*
G01X31765Y27173D01*
G01X31742Y27175D01*
G37*

%LPC*%
G36*
G01X31754Y27112D02*
G01X31734Y27115D01*
G01X31715Y27113D01*
G01X31695Y27106D01*
G01X31676Y27096D01*
G01X31658Y27083D01*
G01X31642Y27069D01*
G01X31630Y27053D01*
G01X31622Y27037D01*
G01X31619Y27022D01*
G01X31628Y27013D01*
G01X31653Y27007D01*
G01X31689Y27004D01*
G01X31734Y27005D01*
G01X31775Y27008D01*
G01X31806Y27012D01*
G01X31827Y27017D01*
G01X31840Y27025D01*
G01X31845Y27034D01*
G01X31842Y27046D01*
G01X31831Y27061D01*
G01X31814Y27080D01*
G01X31797Y27094D01*
G01X31776Y27105D01*
G01X31754Y27112D01*
G37*

%LPD*%
G36*
G01X32206Y27167D02*
G01X32175Y27167D01*
G01X32136Y27166D01*
G01X32107Y27164D01*
G01X32080Y27162D01*
G01X32055Y27159D01*
G01X32032Y27155D01*
G01X32014Y27151D01*
G01X31999Y27147D01*
G01X31989Y27142D01*
G01X31985Y27138D01*
G01X31982Y27125D01*
G01X31981Y27108D01*
G01X31980Y27087D01*
G01X31980Y27063D01*
G01X31981Y27036D01*
G01X31983Y27008D01*
G01X31986Y26978D01*
G01X31992Y26920D01*
G01X31996Y26892D01*
G01X32001Y26867D01*
G01X32005Y26845D01*
G01X32010Y26826D01*
G01X32014Y26812D01*
G01X32019Y26803D01*
G01X32023Y26799D01*
G01X32034Y26809D01*
G01X32042Y26837D01*
G01X32047Y26878D01*
G01X32049Y26927D01*
G01X32051Y26961D01*
G01X32055Y26991D01*
G01X32061Y27019D01*
G01X32071Y27042D01*
G01X32082Y27063D01*
G01X32096Y27079D01*
G01X32112Y27092D01*
G01X32130Y27102D01*
G01X32150Y27107D01*
G01X32172Y27109D01*
G01X32197Y27107D01*
G01X32222Y27100D01*
G01X32248Y27095D01*
G01X32265Y27097D01*
G01X32276Y27108D01*
G01X32279Y27127D01*
G01X32277Y27139D01*
G01X32272Y27149D01*
G01X32264Y27157D01*
G01X32250Y27162D01*
G01X32231Y27165D01*
G01X32206Y27167D01*
G37*

%LPD*%
G36*
G01X30520Y29173D02*
G01X30397Y29173D01*
G01X30368Y29172D01*
G01X30341Y29172D01*
G01X30315Y29171D01*
G01X30290Y29171D01*
G01X30267Y29170D01*
G01X30245Y29169D01*
G01X30226Y29169D01*
G01X30207Y29168D01*
G01X30191Y29167D01*
G01X30177Y29165D01*
G01X30165Y29164D01*
G01X30156Y29163D01*
G01X30122Y29157D01*
G01X30089Y29150D01*
G01X30056Y29144D01*
G01X30024Y29138D01*
G01X29992Y29131D01*
G01X29961Y29124D01*
G01X29931Y29117D01*
G01X29900Y29110D01*
G01X29842Y29096D01*
G01X29813Y29088D01*
G01X29785Y29080D01*
G01X29758Y29073D01*
G01X29731Y29065D01*
G01X29705Y29056D01*
G01X29678Y29048D01*
G01X29653Y29040D01*
G01X29603Y29022D01*
G01X29580Y29013D01*
G01X29556Y29004D01*
G01X29533Y28994D01*
G01X29510Y28985D01*
G01X29466Y28965D01*
G01X29424Y28945D01*
G01X29403Y28934D01*
G01X29384Y28923D01*
G01X29364Y28913D01*
G01X29345Y28902D01*
G01X29326Y28890D01*
G01X29308Y28879D01*
G01X29272Y28855D01*
G01X29255Y28843D01*
G01X29238Y28830D01*
G01X29222Y28818D01*
G01X29190Y28792D01*
G01X29175Y28778D01*
G01X29160Y28765D01*
G01X29146Y28751D01*
G01X29131Y28737D01*
G01X29117Y28723D01*
G01X29104Y28708D01*
G01X29091Y28694D01*
G01X29078Y28678D01*
G01X29065Y28663D01*
G01X29053Y28648D01*
G01X29041Y28632D01*
G01X29030Y28616D01*
G01X29018Y28600D01*
G01X29008Y28583D01*
G01X28997Y28566D01*
G01X28977Y28532D01*
G01X28968Y28513D01*
G01X28958Y28492D01*
G01X28948Y28469D01*
G01X28939Y28445D01*
G01X28930Y28419D01*
G01X28920Y28392D01*
G01X28911Y28365D01*
G01X28903Y28338D01*
G01X28887Y28282D01*
G01X28880Y28255D01*
G01X28868Y28201D01*
G01X28863Y28176D01*
G01X28859Y28153D01*
G01X28856Y28130D01*
G01X28854Y28110D01*
G01X28853Y28092D01*
G01X28853Y28076D01*
G01X28856Y28028D01*
G01X28858Y27990D01*
G01X28860Y27959D01*
G01X28863Y27935D01*
G01X28866Y27918D01*
G01X28871Y27907D01*
G01X28878Y27902D01*
G01X28887Y27902D01*
G01X28899Y27906D01*
G01X28914Y27914D01*
G01X28934Y27925D01*
G01X28957Y27938D01*
G01X28977Y27950D01*
G01X29000Y27963D01*
G01X29050Y27993D01*
G01X29075Y28009D01*
G01X29100Y28024D01*
G01X29123Y28039D01*
G01X29144Y28052D01*
G01X29184Y28078D01*
G01X29203Y28090D01*
G01X29222Y28101D01*
G01X29239Y28110D01*
G01X29253Y28119D01*
G01X29266Y28125D01*
G01X29275Y28129D01*
G01X29290Y28137D01*
G01X29295Y28146D01*
G01X29290Y28155D01*
G01X29275Y28168D01*
G01X29272Y28171D01*
G01X29272Y28176D01*
G01X29274Y28182D01*
G01X29278Y28188D01*
G01X29286Y28196D01*
G01X29296Y28205D01*
G01X29309Y28215D01*
G01X29342Y28237D01*
G01X29363Y28250D01*
G01X29386Y28264D01*
G01X29412Y28278D01*
G01X29440Y28294D01*
G01X29471Y28311D01*
G01X29505Y28329D01*
G01X29541Y28348D01*
G01X29572Y28365D01*
G01X29603Y28381D01*
G01X29631Y28397D01*
G01X29659Y28412D01*
G01X29685Y28427D01*
G01X29709Y28442D01*
G01X29731Y28455D01*
G01X29752Y28468D01*
G01X29770Y28481D01*
G01X29786Y28492D01*
G01X29800Y28502D01*
G01X29811Y28512D01*
G01X29820Y28520D01*
G01X29826Y28527D01*
G01X29829Y28532D01*
G01X29829Y28537D01*
G01X29830Y28540D01*
G01X29835Y28545D01*
G01X29843Y28552D01*
G01X29855Y28559D01*
G01X29869Y28568D01*
G01X29886Y28577D01*
G01X29906Y28588D01*
G01X29928Y28599D01*
G01X29953Y28611D01*
G01X29979Y28623D01*
G01X30007Y28636D01*
G01X30036Y28649D01*
G01X30066Y28662D01*
G01X30097Y28676D01*
G01X30128Y28689D01*
G01X30160Y28703D01*
G01X30256Y28742D01*
G01X30287Y28754D01*
G01X30317Y28766D01*
G01X30346Y28777D01*
G01X30373Y28787D01*
G01X30399Y28796D01*
G01X30423Y28805D01*
G01X30445Y28812D01*
G01X30465Y28818D01*
G01X30482Y28823D01*
G01X30496Y28826D01*
G01X30507Y28828D01*
G01X30515Y28828D01*
G01X30520Y28826D01*
G01X30519Y28822D01*
G01X30512Y28813D01*
G01X30499Y28802D01*
G01X30481Y28787D01*
G01X30460Y28770D01*
G01X30434Y28752D01*
G01X30405Y28731D01*
G01X30373Y28710D01*
G01X30332Y28682D01*
G01X30296Y28657D01*
G01X30266Y28635D01*
G01X30241Y28616D01*
G01X30222Y28599D01*
G01X30208Y28585D01*
G01X30200Y28574D01*
G01X30196Y28565D01*
G01X30198Y28558D01*
G01X30205Y28553D01*
G01X30216Y28550D01*
G01X30232Y28549D01*
G01X30258Y28548D01*
G01X30266Y28543D01*
G01X30256Y28531D01*
G01X30227Y28510D01*
G01X30214Y28502D01*
G01X30199Y28492D01*
G01X30182Y28481D01*
G01X30163Y28470D01*
G01X30143Y28457D01*
G01X30121Y28444D01*
G01X30073Y28416D01*
G01X30048Y28402D01*
G01X29970Y28357D01*
G01X29918Y28329D01*
G01X29868Y28301D01*
G01X29844Y28288D01*
G01X29821Y28276D01*
G01X29761Y28246D01*
G01X29744Y28238D01*
G01X29730Y28231D01*
G01X29718Y28226D01*
G01X29691Y28213D01*
G01X29669Y28199D01*
G01X29653Y28186D01*
G01X29643Y28174D01*
G01X29640Y28163D01*
G01X29643Y28155D01*
G01X29655Y28150D01*
G01X29674Y28148D01*
G01X29685Y28147D01*
G01X29693Y28145D01*
G01X29697Y28142D01*
G01X29697Y28138D01*
G01X29693Y28133D01*
G01X29687Y28126D01*
G01X29677Y28119D01*
G01X29664Y28111D01*
G01X29647Y28102D01*
G01X29628Y28092D01*
G01X29606Y28081D01*
G01X29581Y28070D01*
G01X29552Y28058D01*
G01X29522Y28046D01*
G01X29489Y28032D01*
G01X29453Y28019D01*
G01X29389Y27995D01*
G01X29356Y27983D01*
G01X29324Y27971D01*
G01X29258Y27946D01*
G01X29226Y27934D01*
G01X29193Y27922D01*
G01X29097Y27886D01*
G01X29035Y27864D01*
G01X29006Y27853D01*
G01X28976Y27842D01*
G01X28948Y27831D01*
G01X28920Y27821D01*
G01X28893Y27811D01*
G01X28867Y27802D01*
G01X28819Y27784D01*
G01X28797Y27776D01*
G01X28776Y27769D01*
G01X28756Y27761D01*
G01X28738Y27755D01*
G01X28721Y27749D01*
G01X28706Y27744D01*
G01X28693Y27739D01*
G01X28681Y27735D01*
G01X28671Y27731D01*
G01X28663Y27728D01*
G01X28657Y27727D01*
G01X28638Y27720D01*
G01X28623Y27714D01*
G01X28613Y27708D01*
G01X28606Y27703D01*
G01X28605Y27698D01*
G01X28607Y27694D01*
G01X28614Y27690D01*
G01X28625Y27687D01*
G01X28639Y27684D01*
G01X28658Y27682D01*
G01X28680Y27680D01*
G01X28770Y27680D01*
G01X28807Y27681D01*
G01X28847Y27683D01*
G01X28878Y27684D01*
G01X28908Y27685D01*
G01X28992Y27685D01*
G01X29018Y27684D01*
G01X29043Y27682D01*
G01X29068Y27681D01*
G01X29093Y27678D01*
G01X29116Y27676D01*
G01X29139Y27672D01*
G01X29161Y27669D01*
G01X29205Y27659D01*
G01X29226Y27654D01*
G01X29246Y27648D01*
G01X29269Y27642D01*
G01X29293Y27636D01*
G01X29319Y27631D01*
G01X29345Y27625D01*
G01X29372Y27621D01*
G01X29400Y27616D01*
G01X29427Y27612D01*
G01X29453Y27609D01*
G01X29478Y27606D01*
G01X29502Y27604D01*
G01X29525Y27603D01*
G01X29566Y27603D01*
G01X29587Y27604D01*
G01X29609Y27605D01*
G01X29631Y27607D01*
G01X29652Y27609D01*
G01X29675Y27613D01*
G01X29697Y27616D01*
G01X29720Y27620D01*
G01X29789Y27635D01*
G01X29835Y27647D01*
G01X29859Y27654D01*
G01X29882Y27661D01*
G01X29906Y27669D01*
G01X29952Y27685D01*
G01X29976Y27694D01*
G01X29998Y27703D01*
G01X30022Y27713D01*
G01X30044Y27723D01*
G01X30067Y27733D01*
G01X30111Y27755D01*
G01X30134Y27766D01*
G01X30155Y27778D01*
G01X30177Y27789D01*
G01X30197Y27801D01*
G01X30218Y27814D01*
G01X30238Y27826D01*
G01X30258Y27839D01*
G01X30277Y27852D01*
G01X30296Y27866D01*
G01X30315Y27879D01*
G01X30333Y27893D01*
G01X30367Y27921D01*
G01X30383Y27936D01*
G01X30398Y27950D01*
G01X30422Y27972D01*
G01X30445Y27993D01*
G01X30467Y28012D01*
G01X30486Y28028D01*
G01X30503Y28042D01*
G01X30518Y28053D01*
G01X30528Y28059D01*
G01X30535Y28061D01*
G01X30539Y28063D01*
G01X30544Y28066D01*
G01X30551Y28072D01*
G01X30559Y28080D01*
G01X30568Y28090D01*
G01X30578Y28102D01*
G01X30590Y28115D01*
G01X30603Y28130D01*
G01X30617Y28147D01*
G01X30631Y28165D01*
G01X30663Y28205D01*
G01X30680Y28227D01*
G01X30714Y28273D01*
G01X30750Y28321D01*
G01X30768Y28346D01*
G01X30787Y28372D01*
G01X30805Y28398D01*
G01X30823Y28423D01*
G01X30842Y28449D01*
G01X30859Y28475D01*
G01X30877Y28500D01*
G01X30893Y28525D01*
G01X30910Y28549D01*
G01X30926Y28573D01*
G01X30941Y28596D01*
G01X30955Y28618D01*
G01X30968Y28639D01*
G01X30981Y28659D01*
G01X30992Y28678D01*
G01X31017Y28721D01*
G01X31040Y28761D01*
G01X31061Y28800D01*
G01X31081Y28836D01*
G01X31100Y28870D01*
G01X31118Y28902D01*
G01X31134Y28932D01*
G01X31161Y28986D01*
G01X31172Y29011D01*
G01X31182Y29032D01*
G01X31190Y29053D01*
G01X31197Y29071D01*
G01X31203Y29087D01*
G01X31207Y29101D01*
G01X31210Y29113D01*
G01X31211Y29124D01*
G01X31211Y29132D01*
G01X31210Y29138D01*
G01X31207Y29143D01*
G01X31204Y29145D01*
G01X31198Y29146D01*
G01X31190Y29148D01*
G01X31180Y29150D01*
G01X31167Y29151D01*
G01X31152Y29153D01*
G01X31135Y29154D01*
G01X31117Y29155D01*
G01X31096Y29157D01*
G01X31050Y29159D01*
G01X31025Y29161D01*
G01X30998Y29162D01*
G01X30970Y29163D01*
G01X30941Y29164D01*
G01X30881Y29166D01*
G01X30817Y29168D01*
G01X30784Y29169D01*
G01X30752Y29169D01*
G01X30651Y29171D01*
G01X30585Y29172D01*
G01X30552Y29172D01*
G01X30520Y29173D01*
G37*

%LPD*%
G36*
G01X28762Y28546D02*
G01X28750Y28549D01*
G01X28746Y28548D01*
G01X28739Y28542D01*
G01X28731Y28534D01*
G01X28719Y28523D01*
G01X28707Y28510D01*
G01X28692Y28494D01*
G01X28676Y28476D01*
G01X28659Y28456D01*
G01X28640Y28434D01*
G01X28620Y28411D01*
G01X28600Y28387D01*
G01X28579Y28362D01*
G01X28559Y28336D01*
G01X28539Y28311D01*
G01X28521Y28288D01*
G01X28505Y28265D01*
G01X28489Y28245D01*
G01X28476Y28226D01*
G01X28464Y28208D01*
G01X28455Y28194D01*
G01X28447Y28181D01*
G01X28442Y28171D01*
G01X28440Y28165D01*
G01X28440Y28161D01*
G01X28446Y28160D01*
G01X28456Y28163D01*
G01X28471Y28169D01*
G01X28489Y28179D01*
G01X28511Y28192D01*
G01X28535Y28207D01*
G01X28561Y28223D01*
G01X28589Y28242D01*
G01X28617Y28262D01*
G01X28646Y28282D01*
G01X28675Y28303D01*
G01X28703Y28324D01*
G01X28730Y28345D01*
G01X28755Y28365D01*
G01X28777Y28384D01*
G01X28797Y28401D01*
G01X28814Y28416D01*
G01X28826Y28429D01*
G01X28834Y28440D01*
G01X28836Y28447D01*
G01X28834Y28461D01*
G01X28827Y28478D01*
G01X28817Y28495D01*
G01X28804Y28511D01*
G01X28790Y28526D01*
G01X28776Y28538D01*
G01X28762Y28546D01*
G37*

%LPD*%
G36*
G01X28617Y28769D02*
G01X28607Y28776D01*
G01X28604Y28775D01*
G01X28598Y28771D01*
G01X28590Y28766D01*
G01X28579Y28758D01*
G01X28566Y28749D01*
G01X28551Y28738D01*
G01X28534Y28725D01*
G01X28493Y28694D01*
G01X28471Y28677D01*
G01X28447Y28659D01*
G01X28422Y28640D01*
G01X28396Y28619D01*
G01X28369Y28598D01*
G01X28341Y28577D01*
G01X28312Y28554D01*
G01X28256Y28510D01*
G01X28230Y28489D01*
G01X28205Y28468D01*
G01X28182Y28449D01*
G01X28160Y28430D01*
G01X28140Y28413D01*
G01X28122Y28396D01*
G01X28106Y28382D01*
G01X28091Y28368D01*
G01X28079Y28357D01*
G01X28070Y28346D01*
G01X28063Y28338D01*
G01X28058Y28332D01*
G01X28056Y28328D01*
G01X28058Y28326D01*
G01X28062Y28326D01*
G01X28070Y28328D01*
G01X28082Y28332D01*
G01X28098Y28337D01*
G01X28116Y28344D01*
G01X28138Y28351D01*
G01X28162Y28360D01*
G01X28188Y28370D01*
G01X28216Y28381D01*
G01X28246Y28393D01*
G01X28277Y28405D01*
G01X28310Y28418D01*
G01X28342Y28431D01*
G01X28409Y28458D01*
G01X28442Y28472D01*
G01X28475Y28485D01*
G01X28507Y28499D01*
G01X28538Y28512D01*
G01X28567Y28524D01*
G01X28595Y28536D01*
G01X28621Y28548D01*
G01X28644Y28558D01*
G01X28665Y28567D01*
G01X28682Y28576D01*
G01X28697Y28583D01*
G01X28708Y28589D01*
G01X28715Y28593D01*
G01X28715Y28604D01*
G01X28706Y28626D01*
G01X28691Y28656D01*
G01X28672Y28689D01*
G01X28652Y28722D01*
G01X28632Y28750D01*
G01X28617Y28769D01*
G37*

%LPD*%
G36*
G01X29626Y30293D02*
G01X29576Y30293D01*
G01X29526Y30291D01*
G01X29502Y30289D01*
G01X29477Y30286D01*
G01X29453Y30283D01*
G01X29430Y30279D01*
G01X29406Y30274D01*
G01X29385Y30269D01*
G01X29364Y30263D01*
G01X29342Y30257D01*
G01X29319Y30249D01*
G01X29296Y30240D01*
G01X29272Y30231D01*
G01X29248Y30221D01*
G01X29200Y30199D01*
G01X29175Y30187D01*
G01X29127Y30161D01*
G01X29102Y30148D01*
G01X29056Y30120D01*
G01X29033Y30105D01*
G01X29011Y30091D01*
G01X28990Y30076D01*
G01X28950Y30046D01*
G01X28932Y30032D01*
G01X28915Y30017D01*
G01X28899Y30002D01*
G01X28884Y29988D01*
G01X28868Y29970D01*
G01X28851Y29952D01*
G01X28836Y29934D01*
G01X28806Y29896D01*
G01X28792Y29877D01*
G01X28764Y29837D01*
G01X28752Y29817D01*
G01X28739Y29796D01*
G01X28727Y29776D01*
G01X28716Y29754D01*
G01X28694Y29712D01*
G01X28685Y29690D01*
G01X28675Y29668D01*
G01X28666Y29646D01*
G01X28658Y29623D01*
G01X28650Y29601D01*
G01X28642Y29578D01*
G01X28628Y29532D01*
G01X28622Y29509D01*
G01X28607Y29440D01*
G01X28603Y29416D01*
G01X28600Y29392D01*
G01X28597Y29369D01*
G01X28594Y29345D01*
G01X28593Y29321D01*
G01X28591Y29297D01*
G01X28590Y29273D01*
G01X28589Y29250D01*
G01X28590Y29226D01*
G01X28590Y29202D01*
G01X28591Y29178D01*
G01X28593Y29155D01*
G01X28595Y29131D01*
G01X28598Y29107D01*
G01X28601Y29084D01*
G01X28609Y29036D01*
G01X28619Y28990D01*
G01X28631Y28944D01*
G01X28638Y28921D01*
G01X28646Y28898D01*
G01X28653Y28876D01*
G01X28671Y28832D01*
G01X28681Y28809D01*
G01X28691Y28788D01*
G01X28702Y28766D01*
G01X28713Y28745D01*
G01X28731Y28711D01*
G01X28749Y28682D01*
G01X28765Y28655D01*
G01X28780Y28632D01*
G01X28794Y28611D01*
G01X28807Y28594D01*
G01X28820Y28581D01*
G01X28832Y28570D01*
G01X28843Y28563D01*
G01X28853Y28558D01*
G01X28863Y28557D01*
G01X28872Y28558D01*
G01X28881Y28562D01*
G01X28889Y28569D01*
G01X28897Y28579D01*
G01X28905Y28591D01*
G01X28915Y28609D01*
G01X28927Y28626D01*
G01X28939Y28644D01*
G01X28965Y28680D01*
G01X28980Y28698D01*
G01X28995Y28715D01*
G01X29010Y28733D01*
G01X29027Y28751D01*
G01X29061Y28785D01*
G01X29080Y28803D01*
G01X29098Y28820D01*
G01X29118Y28836D01*
G01X29137Y28853D01*
G01X29157Y28869D01*
G01X29178Y28886D01*
G01X29199Y28902D01*
G01X29221Y28917D01*
G01X29242Y28932D01*
G01X29264Y28947D01*
G01X29287Y28962D01*
G01X29310Y28976D01*
G01X29332Y28990D01*
G01X29356Y29003D01*
G01X29379Y29016D01*
G01X29447Y29050D01*
G01X29468Y29059D01*
G01X29489Y29069D01*
G01X29510Y29078D01*
G01X29530Y29087D01*
G01X29551Y29096D01*
G01X29572Y29104D01*
G01X29592Y29112D01*
G01X29613Y29120D01*
G01X29633Y29127D01*
G01X29654Y29135D01*
G01X29674Y29142D01*
G01X29695Y29148D01*
G01X29716Y29155D01*
G01X29758Y29167D01*
G01X29780Y29173D01*
G01X29801Y29179D01*
G01X29823Y29184D01*
G01X29845Y29190D01*
G01X29867Y29195D01*
G01X29890Y29200D01*
G01X29913Y29204D01*
G01X29936Y29209D01*
G01X29959Y29213D01*
G01X30007Y29221D01*
G01X30032Y29224D01*
G01X30056Y29228D01*
G01X30108Y29234D01*
G01X30134Y29238D01*
G01X30161Y29240D01*
G01X30188Y29243D01*
G01X30216Y29246D01*
G01X30244Y29248D01*
G01X30273Y29251D01*
G01X30333Y29255D01*
G01X30364Y29257D01*
G01X30672Y29275D01*
G01X30672Y29370D01*
G01X30671Y29390D01*
G01X30668Y29409D01*
G01X30666Y29429D01*
G01X30662Y29450D01*
G01X30658Y29470D01*
G01X30652Y29491D01*
G01X30647Y29513D01*
G01X30640Y29534D01*
G01X30633Y29556D01*
G01X30625Y29578D01*
G01X30616Y29601D01*
G01X30607Y29623D01*
G01X30597Y29646D01*
G01X30587Y29668D01*
G01X30576Y29690D01*
G01X30564Y29713D01*
G01X30540Y29757D01*
G01X30527Y29779D01*
G01X30499Y29823D01*
G01X30485Y29844D01*
G01X30455Y29886D01*
G01X30407Y29946D01*
G01X30390Y29965D01*
G01X30356Y30001D01*
G01X30338Y30018D01*
G01X30321Y30034D01*
G01X30304Y30049D01*
G01X30286Y30064D01*
G01X30248Y30092D01*
G01X30228Y30106D01*
G01X30186Y30132D01*
G01X30165Y30144D01*
G01X30143Y30157D01*
G01X30121Y30168D01*
G01X30075Y30190D01*
G01X30052Y30200D01*
G01X30028Y30209D01*
G01X30004Y30219D01*
G01X29980Y30227D01*
G01X29955Y30235D01*
G01X29931Y30243D01*
G01X29881Y30257D01*
G01X29855Y30263D01*
G01X29805Y30273D01*
G01X29779Y30278D01*
G01X29753Y30282D01*
G01X29728Y30285D01*
G01X29702Y30288D01*
G01X29652Y30292D01*
G01X29626Y30293D01*
G37*

%LPD*%
G36*
G01X28568Y28897D02*
G01X28535Y28972D01*
G01X28314Y28868D01*
G01X28284Y28854D01*
G01X28255Y28840D01*
G01X28228Y28826D01*
G01X28202Y28813D01*
G01X28179Y28800D01*
G01X28157Y28788D01*
G01X28139Y28778D01*
G01X28122Y28768D01*
G01X28110Y28759D01*
G01X28100Y28752D01*
G01X28094Y28746D01*
G01X28092Y28742D01*
G01X28093Y28739D01*
G01X28098Y28736D01*
G01X28107Y28734D01*
G01X28119Y28733D01*
G01X28134Y28733D01*
G01X28152Y28734D01*
G01X28173Y28736D01*
G01X28197Y28739D01*
G01X28223Y28742D01*
G01X28252Y28747D01*
G01X28283Y28752D01*
G01X28316Y28758D01*
G01X28351Y28765D01*
G01X28389Y28773D01*
G01X28427Y28782D01*
G01X28468Y28791D01*
G01X28511Y28801D01*
G01X28543Y28810D01*
G01X28566Y28818D01*
G01X28580Y28828D01*
G01X28585Y28839D01*
G01X28585Y28854D01*
G01X28579Y28873D01*
G01X28568Y28897D01*
G37*

%LPD*%
G36*
G01X28499Y29218D02*
G01X28493Y29219D01*
G01X28482Y29218D01*
G01X28467Y29217D01*
G01X28446Y29213D01*
G01X28422Y29209D01*
G01X28393Y29204D01*
G01X28362Y29198D01*
G01X28328Y29190D01*
G01X28291Y29182D01*
G01X28252Y29173D01*
G01X28212Y29163D01*
G01X28128Y29143D01*
G01X28088Y29132D01*
G01X28049Y29122D01*
G01X28012Y29112D01*
G01X27978Y29102D01*
G01X27947Y29093D01*
G01X27919Y29085D01*
G01X27894Y29077D01*
G01X27874Y29071D01*
G01X27859Y29065D01*
G01X27848Y29060D01*
G01X27842Y29057D01*
G01X27842Y29055D01*
G01X27846Y29053D01*
G01X27852Y29051D01*
G01X27862Y29049D01*
G01X27875Y29047D01*
G01X27891Y29046D01*
G01X27910Y29044D01*
G01X27931Y29043D01*
G01X27955Y29042D01*
G01X27980Y29040D01*
G01X28008Y29039D01*
G01X28038Y29038D01*
G01X28102Y29038D01*
G01X28136Y29037D01*
G01X28521Y29037D01*
G01X28521Y29121D01*
G01X28519Y29155D01*
G01X28514Y29184D01*
G01X28507Y29207D01*
G01X28499Y29218D01*
G37*

%LPD*%
G36*
G01X28521Y29350D02*
G01X28521Y29439D01*
G01X28341Y29435D01*
G01X28316Y29434D01*
G01X28264Y29432D01*
G01X28237Y29430D01*
G01X28211Y29429D01*
G01X28185Y29427D01*
G01X28160Y29425D01*
G01X28137Y29423D01*
G01X28115Y29421D01*
G01X28095Y29418D01*
G01X28077Y29416D01*
G01X28062Y29413D01*
G01X28041Y29409D01*
G01X28025Y29406D01*
G01X28014Y29402D01*
G01X28009Y29398D01*
G01X28009Y29394D01*
G01X28015Y29390D01*
G01X28028Y29385D01*
G01X28047Y29379D01*
G01X28074Y29372D01*
G01X28108Y29364D01*
G01X28151Y29354D01*
G01X28201Y29343D01*
G01X28234Y29336D01*
G01X28266Y29329D01*
G01X28297Y29322D01*
G01X28327Y29315D01*
G01X28356Y29308D01*
G01X28382Y29302D01*
G01X28406Y29296D01*
G01X28427Y29291D01*
G01X28446Y29286D01*
G01X28461Y29282D01*
G01X28473Y29278D01*
G01X28481Y29276D01*
G01X28499Y29273D01*
G01X28511Y29284D01*
G01X28518Y29309D01*
G01X28521Y29350D01*
G37*

%LPD*%
G36*
G01X30885Y29465D02*
G01X30792Y29465D01*
G01X30768Y29462D01*
G01X30751Y29456D01*
G01X30740Y29448D01*
G01X30733Y29436D01*
G01X30730Y29419D01*
G01X30730Y29397D01*
G01X30731Y29369D01*
G01X30736Y29344D01*
G01X30743Y29325D01*
G01X30751Y29315D01*
G01X30756Y29314D01*
G01X30766Y29314D01*
G01X30779Y29315D01*
G01X30796Y29317D01*
G01X30815Y29320D01*
G01X30838Y29324D01*
G01X30863Y29328D01*
G01X30891Y29334D01*
G01X30920Y29340D01*
G01X30951Y29347D01*
G01X30984Y29354D01*
G01X31017Y29362D01*
G01X31260Y29421D01*
G01X31131Y29442D01*
G01X31113Y29445D01*
G01X31071Y29451D01*
G01X31048Y29453D01*
G01X30952Y29461D01*
G01X30929Y29463D01*
G01X30885Y29465D01*
G37*

%LPD*%
G36*
G01X27923Y29810D02*
G01X27912Y29810D01*
G01X27903Y29809D01*
G01X27897Y29807D01*
G01X27892Y29805D01*
G01X27890Y29802D01*
G01X27889Y29798D01*
G01X27892Y29795D01*
G01X27897Y29791D01*
G01X27906Y29786D01*
G01X27918Y29778D01*
G01X27933Y29770D01*
G01X27950Y29761D01*
G01X28016Y29728D01*
G01X28041Y29715D01*
G01X28068Y29702D01*
G01X28096Y29688D01*
G01X28154Y29660D01*
G01X28244Y29618D01*
G01X28273Y29604D01*
G01X28302Y29591D01*
G01X28329Y29578D01*
G01X28356Y29567D01*
G01X28381Y29555D01*
G01X28405Y29545D01*
G01X28426Y29536D01*
G01X28446Y29528D01*
G01X28463Y29521D01*
G01X28477Y29515D01*
G01X28489Y29511D01*
G01X28513Y29507D01*
G01X28533Y29511D01*
G01X28547Y29524D01*
G01X28557Y29546D01*
G01X28564Y29569D01*
G01X28582Y29621D01*
G01X28591Y29643D01*
G01X28593Y29650D01*
G01X28594Y29657D01*
G01X28592Y29663D01*
G01X28589Y29669D01*
G01X28583Y29675D01*
G01X28574Y29681D01*
G01X28562Y29686D01*
G01X28547Y29692D01*
G01X28529Y29698D01*
G01X28507Y29704D01*
G01X28481Y29711D01*
G01X28451Y29717D01*
G01X28416Y29725D01*
G01X28377Y29733D01*
G01X28332Y29741D01*
G01X28283Y29751D01*
G01X28222Y29762D01*
G01X28168Y29772D01*
G01X28119Y29781D01*
G01X28077Y29788D01*
G01X28040Y29794D01*
G01X28008Y29800D01*
G01X27981Y29804D01*
G01X27957Y29807D01*
G01X27939Y29809D01*
G01X27923Y29810D01*
G37*

%LPD*%
G36*
G01X31343Y29836D02*
G01X31333Y29837D01*
G01X31319Y29836D01*
G01X31302Y29835D01*
G01X31282Y29833D01*
G01X31258Y29829D01*
G01X31231Y29825D01*
G01X31199Y29819D01*
G01X31163Y29813D01*
G01X31123Y29805D01*
G01X31078Y29797D01*
G01X30973Y29776D01*
G01X30897Y29760D01*
G01X30861Y29752D01*
G01X30828Y29745D01*
G01X30797Y29738D01*
G01X30768Y29732D01*
G01X30743Y29726D01*
G01X30721Y29721D01*
G01X30703Y29717D01*
G01X30690Y29713D01*
G01X30681Y29711D01*
G01X30677Y29709D01*
G01X30671Y29695D01*
G01X30671Y29671D01*
G01X30677Y29641D01*
G01X30688Y29609D01*
G01X30702Y29577D01*
G01X30717Y29550D01*
G01X30732Y29532D01*
G01X30747Y29525D01*
G01X30754Y29526D01*
G01X30764Y29529D01*
G01X30778Y29534D01*
G01X30795Y29540D01*
G01X30815Y29548D01*
G01X30838Y29558D01*
G01X30862Y29569D01*
G01X30889Y29580D01*
G01X30917Y29594D01*
G01X30946Y29607D01*
G01X30977Y29621D01*
G01X31008Y29636D01*
G01X31039Y29652D01*
G01X31102Y29683D01*
G01X31134Y29698D01*
G01X31164Y29713D01*
G01X31193Y29728D01*
G01X31221Y29743D01*
G01X31247Y29757D01*
G01X31271Y29770D01*
G01X31293Y29782D01*
G01X31313Y29793D01*
G01X31329Y29803D01*
G01X31343Y29811D01*
G01X31352Y29818D01*
G01X31359Y29823D01*
G01X31361Y29826D01*
G01X31360Y29830D01*
G01X31357Y29833D01*
G01X31351Y29835D01*
G01X31343Y29836D01*
G37*

%LPD*%
G36*
G01X28250Y30040D02*
G01X28244Y30041D01*
G01X28240Y30039D01*
G01X28237Y30035D01*
G01X28235Y30028D01*
G01X28235Y30019D01*
G01X28237Y30015D01*
G01X28244Y30007D01*
G01X28255Y29997D01*
G01X28269Y29985D01*
G01X28286Y29970D01*
G01X28306Y29953D01*
G01X28327Y29936D01*
G01X28351Y29917D01*
G01X28376Y29897D01*
G01X28454Y29837D01*
G01X28479Y29818D01*
G01X28504Y29800D01*
G01X28527Y29784D01*
G01X28548Y29769D01*
G01X28568Y29755D01*
G01X28584Y29745D01*
G01X28597Y29737D01*
G01X28607Y29732D01*
G01X28617Y29734D01*
G01X28630Y29748D01*
G01X28644Y29769D01*
G01X28659Y29796D01*
G01X28668Y29819D01*
G01X28674Y29837D01*
G01X28675Y29852D01*
G01X28671Y29865D01*
G01X28660Y29876D01*
G01X28643Y29888D01*
G01X28618Y29900D01*
G01X28585Y29915D01*
G01X28562Y29924D01*
G01X28538Y29934D01*
G01X28512Y29944D01*
G01X28485Y29955D01*
G01X28431Y29976D01*
G01X28404Y29986D01*
G01X28378Y29996D01*
G01X28353Y30005D01*
G01X28330Y30014D01*
G01X28308Y30022D01*
G01X28289Y30028D01*
G01X28272Y30034D01*
G01X28260Y30038D01*
G01X28250Y30040D01*
G37*

%LPD*%
G36*
G01X30982Y30063D02*
G01X30976Y30065D01*
G01X30966Y30064D01*
G01X30953Y30061D01*
G01X30935Y30056D01*
G01X30912Y30048D01*
G01X30884Y30036D01*
G01X30849Y30022D01*
G01X30808Y30004D01*
G01X30759Y29983D01*
G01X30722Y29966D01*
G01X30686Y29950D01*
G01X30654Y29934D01*
G01X30626Y29919D01*
G01X30602Y29905D01*
G01X30583Y29893D01*
G01X30571Y29884D01*
G01X30565Y29877D01*
G01X30565Y29864D01*
G01X30570Y29845D01*
G01X30580Y29824D01*
G01X30593Y29802D01*
G01X30602Y29792D01*
G01X30610Y29784D01*
G01X30618Y29778D01*
G01X30628Y29776D01*
G01X30639Y29777D01*
G01X30652Y29780D01*
G01X30668Y29788D01*
G01X30687Y29799D01*
G01X30710Y29814D01*
G01X30738Y29833D01*
G01X30771Y29857D01*
G01X30809Y29885D01*
G01X30845Y29912D01*
G01X30878Y29939D01*
G01X30909Y29964D01*
G01X30935Y29986D01*
G01X30957Y30007D01*
G01X30974Y30023D01*
G01X30984Y30036D01*
G01X30988Y30044D01*
G01X30988Y30052D01*
G01X30986Y30058D01*
G01X30982Y30063D01*
G37*

%LPD*%
G36*
G01X28313Y30442D02*
G01X28310Y30443D01*
G01X28303Y30441D01*
G01X28297Y30438D01*
G01X28293Y30432D01*
G01X28291Y30426D01*
G01X28293Y30421D01*
G01X28297Y30414D01*
G01X28304Y30404D01*
G01X28314Y30390D01*
G01X28326Y30375D01*
G01X28340Y30357D01*
G01X28356Y30338D01*
G01X28373Y30316D01*
G01X28392Y30294D01*
G01X28412Y30270D01*
G01X28433Y30245D01*
G01X28477Y30193D01*
G01X28522Y30141D01*
G01X28545Y30115D01*
G01X28567Y30090D01*
G01X28589Y30066D01*
G01X28609Y30043D01*
G01X28629Y30021D01*
G01X28647Y30001D01*
G01X28664Y29983D01*
G01X28680Y29967D01*
G01X28693Y29953D01*
G01X28705Y29942D01*
G01X28714Y29933D01*
G01X28720Y29928D01*
G01X28724Y29927D01*
G01X28737Y29932D01*
G01X28758Y29949D01*
G01X28782Y29972D01*
G01X28807Y29998D01*
G01X28831Y30026D01*
G01X28850Y30051D01*
G01X28862Y30069D01*
G01X28863Y30079D01*
G01X28854Y30086D01*
G01X28843Y30094D01*
G01X28829Y30104D01*
G01X28813Y30116D01*
G01X28794Y30129D01*
G01X28773Y30143D01*
G01X28751Y30158D01*
G01X28727Y30174D01*
G01X28677Y30208D01*
G01X28650Y30226D01*
G01X28622Y30244D01*
G01X28568Y30280D01*
G01X28540Y30298D01*
G01X28513Y30316D01*
G01X28487Y30333D01*
G01X28462Y30350D01*
G01X28438Y30365D01*
G01X28415Y30380D01*
G01X28393Y30393D01*
G01X28374Y30405D01*
G01X28357Y30416D01*
G01X28342Y30425D01*
G01X28330Y30433D01*
G01X28320Y30438D01*
G01X28313Y30442D01*
G37*

%LPD*%
G36*
G01X31027Y30526D02*
G01X31026Y30528D01*
G01X31022Y30527D01*
G01X31015Y30523D01*
G01X31005Y30518D01*
G01X30992Y30510D01*
G01X30977Y30501D01*
G01X30960Y30490D01*
G01X30940Y30478D01*
G01X30919Y30463D01*
G01X30895Y30448D01*
G01X30870Y30431D01*
G01X30844Y30413D01*
G01X30816Y30394D01*
G01X30787Y30374D01*
G01X30757Y30353D01*
G01X30726Y30331D01*
G01X30694Y30309D01*
G01X30387Y30091D01*
G01X30446Y30007D01*
G01X30471Y29976D01*
G01X30495Y29951D01*
G01X30515Y29935D01*
G01X30528Y29932D01*
G01X30533Y29935D01*
G01X30540Y29941D01*
G01X30550Y29950D01*
G01X30561Y29962D01*
G01X30575Y29976D01*
G01X30590Y29992D01*
G01X30607Y30011D01*
G01X30625Y30031D01*
G01X30645Y30053D01*
G01X30665Y30077D01*
G01X30686Y30101D01*
G01X30709Y30127D01*
G01X30731Y30153D01*
G01X30754Y30180D01*
G01X30801Y30236D01*
G01X30823Y30263D01*
G01X30846Y30290D01*
G01X30868Y30317D01*
G01X30889Y30344D01*
G01X30910Y30369D01*
G01X30929Y30393D01*
G01X30947Y30416D01*
G01X30964Y30437D01*
G01X30979Y30457D01*
G01X30993Y30475D01*
G01X31004Y30490D01*
G01X31013Y30503D01*
G01X31020Y30514D01*
G01X31025Y30521D01*
G01X31027Y30526D01*
G37*

%LPD*%
G36*
G01X28683Y30527D02*
G01X28675Y30529D01*
G01X28669Y30527D01*
G01X28665Y30522D01*
G01X28664Y30513D01*
G01X28667Y30503D01*
G01X28676Y30484D01*
G01X28688Y30461D01*
G01X28703Y30434D01*
G01X28724Y30399D01*
G01X28738Y30376D01*
G01X28753Y30350D01*
G01X28769Y30321D01*
G01X28803Y30263D01*
G01X28819Y30234D01*
G01X28842Y30194D01*
G01X28861Y30164D01*
G01X28878Y30142D01*
G01X28893Y30127D01*
G01X28906Y30119D01*
G01X28921Y30117D01*
G01X28935Y30120D01*
G01X28952Y30128D01*
G01X28967Y30136D01*
G01X28980Y30145D01*
G01X28989Y30154D01*
G01X28997Y30163D01*
G01X29001Y30174D01*
G01X29003Y30185D01*
G01X29002Y30196D01*
G01X28998Y30210D01*
G01X28992Y30224D01*
G01X28982Y30240D01*
G01X28969Y30258D01*
G01X28953Y30278D01*
G01X28934Y30300D01*
G01X28912Y30323D01*
G01X28886Y30350D01*
G01X28857Y30379D01*
G01X28824Y30411D01*
G01X28794Y30440D01*
G01X28768Y30464D01*
G01X28745Y30484D01*
G01X28725Y30500D01*
G01X28708Y30513D01*
G01X28694Y30522D01*
G01X28683Y30527D01*
G37*

%LPD*%
G36*
G01X30552Y30544D02*
G01X30548Y30544D01*
G01X30542Y30541D01*
G01X30534Y30535D01*
G01X30522Y30527D01*
G01X30509Y30515D01*
G01X30493Y30502D01*
G01X30476Y30486D01*
G01X30457Y30469D01*
G01X30436Y30449D01*
G01X30393Y30406D01*
G01X30369Y30383D01*
G01X30332Y30345D01*
G01X30301Y30312D01*
G01X30275Y30285D01*
G01X30256Y30263D01*
G01X30241Y30244D01*
G01X30231Y30228D01*
G01X30226Y30216D01*
G01X30225Y30205D01*
G01X30227Y30195D01*
G01X30233Y30186D01*
G01X30243Y30178D01*
G01X30255Y30169D01*
G01X30278Y30153D01*
G01X30300Y30139D01*
G01X30318Y30130D01*
G01X30330Y30127D01*
G01X30335Y30130D01*
G01X30343Y30138D01*
G01X30352Y30152D01*
G01X30364Y30169D01*
G01X30377Y30190D01*
G01X30392Y30214D01*
G01X30407Y30241D01*
G01X30423Y30269D01*
G01X30439Y30299D01*
G01X30456Y30330D01*
G01X30472Y30361D01*
G01X30487Y30391D01*
G01X30502Y30420D01*
G01X30515Y30447D01*
G01X30527Y30473D01*
G01X30537Y30495D01*
G01X30544Y30514D01*
G01X30550Y30529D01*
G01X30552Y30539D01*
G01X30552Y30544D01*
G37*

%LPD*%
G36*
G01X28889Y30900D02*
G01X28885Y30902D01*
G01X28877Y30898D01*
G01X28872Y30887D01*
G01X28872Y30871D01*
G01X28875Y30852D01*
G01X28877Y30845D01*
G01X28880Y30836D01*
G01X28883Y30823D01*
G01X28887Y30809D01*
G01X28892Y30792D01*
G01X28898Y30773D01*
G01X28904Y30753D01*
G01X28911Y30730D01*
G01X28918Y30706D01*
G01X28926Y30681D01*
G01X28934Y30654D01*
G01X28942Y30626D01*
G01X28951Y30598D01*
G01X28960Y30569D01*
G01X28968Y30539D01*
G01X28978Y30509D01*
G01X29067Y30216D01*
G01X29159Y30255D01*
G01X29196Y30273D01*
G01X29225Y30290D01*
G01X29245Y30306D01*
G01X29252Y30318D01*
G01X29251Y30325D01*
G01X29247Y30334D01*
G01X29241Y30348D01*
G01X29233Y30364D01*
G01X29223Y30382D01*
G01X29212Y30403D01*
G01X29198Y30427D01*
G01X29184Y30452D01*
G01X29168Y30479D01*
G01X29152Y30507D01*
G01X29116Y30565D01*
G01X29097Y30595D01*
G01X29078Y30626D01*
G01X29060Y30655D01*
G01X29041Y30685D01*
G01X29022Y30714D01*
G01X29004Y30742D01*
G01X28986Y30768D01*
G01X28969Y30793D01*
G01X28954Y30816D01*
G01X28939Y30837D01*
G01X28926Y30856D01*
G01X28914Y30871D01*
G01X28904Y30884D01*
G01X28896Y30894D01*
G01X28889Y30900D01*
G37*

%LPD*%
G36*
G01X30373Y30927D02*
G01X30364Y30930D01*
G01X30360Y30929D01*
G01X30348Y30917D01*
G01X30339Y30907D01*
G01X30329Y30894D01*
G01X30318Y30879D01*
G01X30306Y30862D01*
G01X30293Y30843D01*
G01X30278Y30821D01*
G01X30263Y30798D01*
G01X30247Y30774D01*
G01X30231Y30748D01*
G01X30214Y30720D01*
G01X30196Y30692D01*
G01X30160Y30632D01*
G01X30142Y30601D01*
G01X30125Y30571D01*
G01X30108Y30542D01*
G01X30076Y30488D01*
G01X30048Y30439D01*
G01X30035Y30417D01*
G01X30024Y30396D01*
G01X30014Y30378D01*
G01X30005Y30362D01*
G01X29998Y30348D01*
G01X29992Y30337D01*
G01X29987Y30328D01*
G01X29984Y30319D01*
G01X29991Y30311D01*
G01X30010Y30299D01*
G01X30038Y30285D01*
G01X30072Y30269D01*
G01X30088Y30263D01*
G01X30103Y30257D01*
G01X30116Y30253D01*
G01X30127Y30250D01*
G01X30139Y30249D01*
G01X30148Y30249D01*
G01X30158Y30252D01*
G01X30166Y30257D01*
G01X30175Y30264D01*
G01X30182Y30274D01*
G01X30190Y30287D01*
G01X30198Y30303D01*
G01X30206Y30322D01*
G01X30215Y30345D01*
G01X30224Y30372D01*
G01X30233Y30403D01*
G01X30243Y30437D01*
G01X30255Y30477D01*
G01X30267Y30521D01*
G01X30301Y30640D01*
G01X30310Y30675D01*
G01X30320Y30708D01*
G01X30329Y30739D01*
G01X30338Y30768D01*
G01X30346Y30795D01*
G01X30353Y30819D01*
G01X30359Y30840D01*
G01X30364Y30857D01*
G01X30369Y30871D01*
G01X30372Y30880D01*
G01X30377Y30900D01*
G01X30378Y30916D01*
G01X30373Y30927D01*
G37*

%LPD*%
G36*
G01X29276Y30843D02*
G01X29274Y30843D01*
G01X29272Y30838D01*
G01X29271Y30829D01*
G01X29270Y30816D01*
G01X29269Y30799D01*
G01X29269Y30779D01*
G01X29270Y30755D01*
G01X29270Y30729D01*
G01X29272Y30701D01*
G01X29273Y30670D01*
G01X29275Y30637D01*
G01X29277Y30602D01*
G01X29280Y30567D01*
G01X29283Y30534D01*
G01X29286Y30502D01*
G01X29289Y30471D01*
G01X29292Y30443D01*
G01X29294Y30418D01*
G01X29297Y30395D01*
G01X29300Y30375D01*
G01X29302Y30359D01*
G01X29305Y30346D01*
G01X29307Y30338D01*
G01X29309Y30334D01*
G01X29319Y30330D01*
G01X29338Y30330D01*
G01X29363Y30333D01*
G01X29392Y30339D01*
G01X29462Y30356D01*
G01X29378Y30592D01*
G01X29366Y30623D01*
G01X29355Y30655D01*
G01X29344Y30684D01*
G01X29333Y30712D01*
G01X29323Y30738D01*
G01X29313Y30763D01*
G01X29304Y30784D01*
G01X29297Y30803D01*
G01X29289Y30818D01*
G01X29284Y30830D01*
G01X29279Y30838D01*
G01X29276Y30843D01*
G37*

%LPD*%
G36*
G01X29940Y30819D02*
G01X29937Y30821D01*
G01X29932Y30817D01*
G01X29927Y30809D01*
G01X29920Y30795D01*
G01X29912Y30777D01*
G01X29902Y30753D01*
G01X29891Y30723D01*
G01X29878Y30686D01*
G01X29860Y30639D01*
G01X29845Y30596D01*
G01X29832Y30558D01*
G01X29811Y30495D01*
G01X29803Y30470D01*
G01X29798Y30448D01*
G01X29794Y30429D01*
G01X29791Y30413D01*
G01X29790Y30400D01*
G01X29791Y30388D01*
G01X29793Y30379D01*
G01X29797Y30371D01*
G01X29802Y30365D01*
G01X29808Y30359D01*
G01X29816Y30353D01*
G01X29835Y30342D01*
G01X29852Y30334D01*
G01X29868Y30330D01*
G01X29881Y30331D01*
G01X29892Y30335D01*
G01X29902Y30344D01*
G01X29911Y30358D01*
G01X29918Y30377D01*
G01X29925Y30401D01*
G01X29931Y30431D01*
G01X29936Y30466D01*
G01X29941Y30507D01*
G01X29943Y30532D01*
G01X29946Y30558D01*
G01X29948Y30584D01*
G01X29949Y30609D01*
G01X29951Y30635D01*
G01X29952Y30659D01*
G01X29952Y30683D01*
G01X29953Y30705D01*
G01X29953Y30725D01*
G01X29952Y30744D01*
G01X29952Y30759D01*
G01X29951Y30773D01*
G01X29948Y30790D01*
G01X29946Y30804D01*
G01X29943Y30814D01*
G01X29940Y30819D01*
G37*

%LPD*%
G36*
G01X29619Y31127D02*
G01X29616Y31128D01*
G01X29613Y31127D01*
G01X29610Y31123D01*
G01X29606Y31117D01*
G01X29603Y31109D01*
G01X29600Y31100D01*
G01X29597Y31092D01*
G01X29595Y31080D01*
G01X29592Y31067D01*
G01X29589Y31050D01*
G01X29586Y31031D01*
G01X29583Y31010D01*
G01X29580Y30987D01*
G01X29577Y30963D01*
G01X29569Y30909D01*
G01X29566Y30880D01*
G01X29562Y30851D01*
G01X29559Y30821D01*
G01X29555Y30791D01*
G01X29552Y30760D01*
G01X29548Y30730D01*
G01X29542Y30670D01*
G01X29539Y30641D01*
G01X29536Y30613D01*
G01X29534Y30586D01*
G01X29531Y30560D01*
G01X29530Y30536D01*
G01X29528Y30514D01*
G01X29527Y30494D01*
G01X29526Y30476D01*
G01X29525Y30461D01*
G01X29525Y30419D01*
G01X29527Y30398D01*
G01X29532Y30382D01*
G01X29540Y30370D01*
G01X29552Y30363D01*
G01X29570Y30359D01*
G01X29594Y30357D01*
G01X29674Y30357D01*
G01X29684Y30358D01*
G01X29692Y30360D01*
G01X29699Y30363D01*
G01X29705Y30367D01*
G01X29710Y30372D01*
G01X29714Y30379D01*
G01X29717Y30388D01*
G01X29719Y30400D01*
G01X29721Y30413D01*
G01X29721Y30429D01*
G01X29720Y30448D01*
G01X29719Y30470D01*
G01X29717Y30495D01*
G01X29714Y30523D01*
G01X29710Y30555D01*
G01X29706Y30591D01*
G01X29701Y30631D01*
G01X29695Y30675D01*
G01X29688Y30724D01*
G01X29681Y30777D01*
G01X29675Y30826D01*
G01X29669Y30871D01*
G01X29663Y30911D01*
G01X29658Y30948D01*
G01X29653Y30981D01*
G01X29648Y31011D01*
G01X29644Y31036D01*
G01X29640Y31059D01*
G01X29636Y31078D01*
G01X29632Y31093D01*
G01X29629Y31106D01*
G01X29626Y31115D01*
G01X29622Y31122D01*
G01X29619Y31127D01*
G37*

%LPD*%
G54D10*
G01X13000Y28700D02*
G01X2700Y28700D01*
G01X2700Y22000D01*
G01X13000Y22000D01*
G01X13000Y28700D01*
G01X26189Y15950D02*
G01X26189Y26190D01*
G01X24610Y26969D01*
G01X24610Y28940D01*
G01X15560Y28940D01*
G01X15560Y15950D01*
G01X16739Y14769D02*
G01X25010Y14769D01*
G54D21*
G01X1600Y2400D02*
G01X6275Y2400D01*
G01X7506Y2400D01*
G01X31914Y2400D01*
G01X1600Y10667D02*
G01X6275Y10667D01*
G01X7506Y10667D01*
G01X31914Y10667D01*
G01X1600Y2400D02*
G01X1600Y10273D01*
G01X1600Y10667D02*
G01X1600Y10273D01*
G01X31914Y10667D02*
G01X31914Y2400D01*
G54D10*
G01X19700Y12500D02*
G01X17700Y12500D01*
G01X17700Y12500D02*
G01X17700Y12800D01*
G01X17700Y12800D02*
G01X17700Y13100D01*
G01X17700Y13100D02*
G01X19700Y13100D01*
G01X19700Y13100D02*
G01X19700Y12800D01*
G01X19700Y12800D02*
G01X19700Y12500D01*
G01X17700Y12800D02*
G01X17600Y12800D01*
G01X19700Y12800D02*
G01X19800Y12800D01*
G01X24150Y12700D02*
G01X24650Y12700D01*
G01X24650Y12700D02*
G01X24900Y12450D01*
G01X24900Y11950D02*
G01X24650Y11700D01*
G01X24900Y12450D02*
G01X25150Y12700D01*
G01X25150Y12700D02*
G01X25650Y12700D01*
G01X25650Y12700D02*
G01X25900Y12450D01*
G01X25900Y11950D02*
G01X25650Y11700D01*
G01X25650Y11700D02*
G01X25150Y11700D01*
G01X25150Y11700D02*
G01X24900Y11950D01*
G01X23900Y12450D02*
G01X23900Y11950D01*
G01X24150Y12700D02*
G01X23900Y12450D01*
G01X23900Y11950D02*
G01X24150Y11700D01*
G01X24650Y11700D02*
G01X24150Y11700D01*
G01X25900Y12450D02*
G01X25900Y11950D01*
G01X5500Y31800D02*
G01X5500Y30600D01*
G01X5500Y30600D02*
G01X9000Y30600D01*
G01X9000Y30600D02*
G01X9000Y31800D01*
G01X9000Y31800D02*
G01X5500Y31800D01*
G01X4700Y14750D02*
G01X1500Y14750D01*
G01X1500Y18850D01*
G01X4700Y18850D01*
G01X4700Y14750D01*
G01X4100Y14850D02*
G01X2100Y14850D01*
G01X2100Y18750D01*
G01X4100Y18750D01*
G01X4100Y14850D01*
G01X28600Y25900D02*
G01X29600Y25900D01*
G01X29600Y22900D01*
G01X28600Y22900D01*
G01X28600Y25900D01*
G01X28600Y16800D02*
G01X29600Y16800D01*
G01X29600Y13800D01*
G01X28600Y13800D01*
G01X28600Y16800D01*
G01X8600Y19900D02*
G01X13600Y19900D01*
G01X13600Y13900D01*
G01X8600Y13900D01*
G01X8600Y19900D01*
G01X12335Y30815D02*
G01X12335Y31759D01*
G01X16234Y31759D01*
G01X16234Y30815D01*
G01X13714Y30815D01*
G01X12335Y30815D01*
G01X23535Y30815D02*
G01X23535Y31759D01*
G01X27434Y31759D01*
G01X27434Y30815D01*
G01X24914Y30815D01*
G01X23535Y30815D01*
G01X28614Y21763D02*
G01X29560Y21763D01*
G01X29560Y17865D01*
G01X28614Y17865D01*
G01X28614Y20386D01*
G01X28614Y21763D01*
G54D22*
G01X7200Y21500D02*
G01X7200Y21194D01*
G01X7219Y21132D01*
G01X7260Y21090D01*
G01X7322Y21071D01*
G01X7364Y21071D01*
G01X7425Y21090D01*
G01X7465Y21132D01*
G01X7485Y21194D01*
G01X7485Y21500D01*
G01X7621Y21419D02*
G01X7661Y21438D01*
G01X7723Y21500D01*
G01X7723Y21071D01*
G54D23*
G01X4242Y28119D02*
G01X4242Y27635D01*
G01X4000Y27877D02*
G01X4482Y27877D01*
G01X4659Y28199D02*
G01X4659Y27635D01*
G01X4838Y28199D02*
G01X4838Y27635D01*
G01X4838Y28199D02*
G01X5213Y27635D01*
G01X5213Y28199D02*
G01X5213Y27635D01*
G01X3898Y22701D02*
G01X4382Y22701D01*
G01X4559Y23023D02*
G01X4559Y22459D01*
G01X4736Y23023D02*
G01X4736Y22459D01*
G01X4736Y23023D02*
G01X5111Y22459D01*
G01X5111Y23023D02*
G01X5111Y22459D01*
G01X9560Y28100D02*
G01X9506Y28073D01*
G01X9453Y28019D01*
G01X9427Y27965D01*
G01X9400Y27884D01*
G01X9400Y27751D01*
G01X9427Y27671D01*
G01X9453Y27617D01*
G01X9506Y27563D01*
G01X9560Y27536D01*
G01X9668Y27536D01*
G01X9722Y27563D01*
G01X9776Y27617D01*
G01X9802Y27671D01*
G01X9828Y27751D01*
G01X9828Y27884D01*
G01X9802Y27965D01*
G01X9776Y28019D01*
G01X9722Y28073D01*
G01X9668Y28100D01*
G01X9560Y28100D01*
G01X10006Y28100D02*
G01X10006Y27696D01*
G01X10032Y27617D01*
G01X10086Y27563D01*
G01X10168Y27536D01*
G01X10221Y27536D01*
G01X10302Y27563D01*
G01X10356Y27617D01*
G01X10381Y27696D01*
G01X10381Y28100D01*
G01X10747Y28100D02*
G01X10747Y27536D01*
G01X10560Y28100D02*
G01X10935Y28100D01*
G01X11353Y28019D02*
G01X11353Y27536D01*
G01X11113Y27778D02*
G01X11596Y27778D01*
G01X10600Y27100D02*
G01X10600Y26536D01*
G01X10600Y27100D02*
G01X10842Y27100D01*
G01X10922Y27073D01*
G01X10948Y27046D01*
G01X10976Y26992D01*
G01X10976Y26938D01*
G01X10948Y26884D01*
G01X10922Y26859D01*
G01X10842Y26832D01*
G01X10600Y26832D02*
G01X10842Y26832D01*
G01X10922Y26805D01*
G01X10948Y26778D01*
G01X10976Y26723D01*
G01X10976Y26644D01*
G01X10948Y26590D01*
G01X10922Y26563D01*
G01X10842Y26536D01*
G01X10600Y26536D01*
G01X11394Y27019D02*
G01X11394Y26536D01*
G01X11152Y26778D02*
G01X11635Y26778D01*
G01X10500Y24000D02*
G01X10500Y23436D01*
G01X10500Y24000D02*
G01X10742Y24000D01*
G01X10822Y23973D01*
G01X10848Y23946D01*
G01X10876Y23892D01*
G01X10876Y23838D01*
G01X10848Y23784D01*
G01X10822Y23759D01*
G01X10742Y23732D01*
G01X10500Y23732D02*
G01X10742Y23732D01*
G01X10822Y23705D01*
G01X10848Y23678D01*
G01X10876Y23623D01*
G01X10876Y23544D01*
G01X10848Y23490D01*
G01X10822Y23463D01*
G01X10742Y23436D01*
G01X10500Y23436D01*
G01X11052Y23678D02*
G01X11535Y23678D01*
G01X9460Y23000D02*
G01X9406Y22973D01*
G01X9353Y22919D01*
G01X9327Y22865D01*
G01X9300Y22784D01*
G01X9300Y22651D01*
G01X9327Y22571D01*
G01X9353Y22517D01*
G01X9406Y22463D01*
G01X9460Y22436D01*
G01X9568Y22436D01*
G01X9622Y22463D01*
G01X9676Y22517D01*
G01X9702Y22571D01*
G01X9728Y22651D01*
G01X9728Y22784D01*
G01X9702Y22865D01*
G01X9676Y22919D01*
G01X9622Y22973D01*
G01X9568Y23000D01*
G01X9460Y23000D01*
G01X9906Y23000D02*
G01X9906Y22596D01*
G01X9932Y22517D01*
G01X9986Y22463D01*
G01X10068Y22436D01*
G01X10121Y22436D01*
G01X10202Y22463D01*
G01X10256Y22517D01*
G01X10281Y22596D01*
G01X10281Y23000D01*
G01X10647Y23000D02*
G01X10647Y22436D01*
G01X10460Y23000D02*
G01X10835Y23000D01*
G01X11013Y22678D02*
G01X11496Y22678D01*
G54D22*
G01X20900Y14444D02*
G01X20900Y14138D01*
G01X20919Y14076D01*
G01X20960Y14036D01*
G01X21022Y14015D01*
G01X21064Y14015D01*
G01X21125Y14036D01*
G01X21165Y14076D01*
G01X21185Y14138D01*
G01X21185Y14444D01*
G01X21342Y14342D02*
G01X21342Y14363D01*
G01X21361Y14405D01*
G01X21382Y14425D01*
G01X21423Y14444D01*
G01X21505Y14444D01*
G01X21546Y14425D01*
G01X21567Y14405D01*
G01X21586Y14363D01*
G01X21586Y14323D01*
G01X21567Y14282D01*
G01X21526Y14219D01*
G01X21321Y14015D01*
G01X21607Y14015D01*
G54D24*
G01X22389Y16021D02*
G01X22389Y16211D01*
G01X22389Y16021D02*
G01X22307Y16021D01*
G01X22281Y16030D01*
G01X22272Y16038D01*
G01X22263Y16057D01*
G01X22263Y16075D01*
G01X22272Y16094D01*
G01X22281Y16103D01*
G01X22307Y16111D01*
G01X22389Y16111D01*
G01X22326Y16111D02*
G01X22263Y16211D01*
G01X22093Y16084D02*
G01X22093Y16211D01*
G01X22093Y16111D02*
G01X22111Y16094D01*
G01X22130Y16084D01*
G01X22156Y16084D01*
G01X22175Y16094D01*
G01X22193Y16111D01*
G01X22202Y16138D01*
G01X22202Y16157D01*
G01X22193Y16184D01*
G01X22175Y16203D01*
G01X22156Y16211D01*
G01X22130Y16211D01*
G01X22111Y16203D01*
G01X22093Y16184D01*
G01X21925Y16021D02*
G01X21925Y16211D01*
G01X21925Y16111D02*
G01X21943Y16094D01*
G01X21960Y16084D01*
G01X21988Y16084D01*
G01X22006Y16094D01*
G01X22025Y16111D01*
G01X22034Y16138D01*
G01X22034Y16157D01*
G01X22025Y16184D01*
G01X22006Y16203D01*
G01X21988Y16211D01*
G01X21960Y16211D01*
G01X21943Y16203D01*
G01X21925Y16184D01*
G01X21864Y16021D02*
G01X21855Y16030D01*
G01X21846Y16021D01*
G01X21855Y16011D01*
G01X21864Y16021D01*
G01X21855Y16084D02*
G01X21855Y16211D01*
G01X21740Y16084D02*
G01X21759Y16094D01*
G01X21777Y16111D01*
G01X21785Y16138D01*
G01X21785Y16157D01*
G01X21777Y16184D01*
G01X21759Y16203D01*
G01X21740Y16211D01*
G01X21714Y16211D01*
G01X21694Y16203D01*
G01X21677Y16184D01*
G01X21668Y16157D01*
G01X21668Y16138D01*
G01X21677Y16111D01*
G01X21694Y16094D01*
G01X21714Y16084D01*
G01X21740Y16084D01*
G01X21394Y16021D02*
G01X21468Y16211D01*
G01X21394Y16021D02*
G01X21322Y16211D01*
G01X21440Y16148D02*
G01X21350Y16148D01*
G01X21263Y16084D02*
G01X21263Y16211D01*
G01X21263Y16121D02*
G01X21235Y16094D01*
G01X21217Y16084D01*
G01X21189Y16084D01*
G01X21172Y16094D01*
G01X21163Y16121D01*
G01X21163Y16211D01*
G01X21075Y16021D02*
G01X21075Y16175D01*
G01X21065Y16203D01*
G01X21047Y16211D01*
G01X21030Y16211D01*
G01X21102Y16084D02*
G01X21039Y16084D01*
G01X20969Y16138D02*
G01X20860Y16138D01*
G01X20860Y16121D01*
G01X20869Y16103D01*
G01X20878Y16094D01*
G01X20897Y16084D01*
G01X20925Y16084D01*
G01X20943Y16094D01*
G01X20960Y16111D01*
G01X20969Y16138D01*
G01X20969Y16157D01*
G01X20960Y16184D01*
G01X20943Y16203D01*
G01X20925Y16211D01*
G01X20897Y16211D01*
G01X20878Y16203D01*
G01X20860Y16184D01*
G01X20801Y16084D02*
G01X20801Y16211D01*
G01X20801Y16121D02*
G01X20773Y16094D01*
G01X20755Y16084D01*
G01X20727Y16084D01*
G01X20710Y16094D01*
G01X20701Y16121D01*
G01X20701Y16211D01*
G01X20640Y16084D02*
G01X20640Y16211D01*
G01X20640Y16121D02*
G01X20614Y16094D01*
G01X20594Y16084D01*
G01X20568Y16084D01*
G01X20550Y16094D01*
G01X20540Y16121D01*
G01X20540Y16211D01*
G01X20372Y16084D02*
G01X20372Y16211D01*
G01X20372Y16111D02*
G01X20389Y16094D01*
G01X20407Y16084D01*
G01X20435Y16084D01*
G01X20453Y16094D01*
G01X20472Y16111D01*
G01X20481Y16138D01*
G01X20481Y16157D01*
G01X20472Y16184D01*
G01X20453Y16203D01*
G01X20435Y16211D01*
G01X20407Y16211D01*
G01X20389Y16203D01*
G01X20372Y16184D01*
G01X20031Y16021D02*
G01X20031Y16211D01*
G01X20031Y16021D02*
G01X19914Y16021D01*
G01X20031Y16111D02*
G01X19959Y16111D01*
G01X19744Y16084D02*
G01X19744Y16211D01*
G01X19744Y16111D02*
G01X19763Y16094D01*
G01X19781Y16084D01*
G01X19807Y16084D01*
G01X19826Y16094D01*
G01X19844Y16111D01*
G01X19853Y16138D01*
G01X19853Y16157D01*
G01X19844Y16184D01*
G01X19826Y16203D01*
G01X19807Y16211D01*
G01X19781Y16211D01*
G01X19763Y16203D01*
G01X19744Y16184D01*
G01X19575Y16111D02*
G01X19593Y16094D01*
G01X19611Y16084D01*
G01X19639Y16084D01*
G01X19656Y16094D01*
G01X19675Y16111D01*
G01X19685Y16138D01*
G01X19685Y16157D01*
G01X19675Y16184D01*
G01X19656Y16203D01*
G01X19639Y16211D01*
G01X19611Y16211D01*
G01X19593Y16203D01*
G01X19575Y16184D01*
G01X19514Y16021D02*
G01X19506Y16030D01*
G01X19497Y16021D01*
G01X19506Y16011D01*
G01X19514Y16021D01*
G01X19506Y16084D02*
G01X19506Y16211D01*
G01X19436Y16084D02*
G01X19436Y16211D01*
G01X19436Y16121D02*
G01X19410Y16094D01*
G01X19392Y16084D01*
G01X19364Y16084D01*
G01X19346Y16094D01*
G01X19336Y16121D01*
G01X19336Y16211D01*
G01X19168Y16084D02*
G01X19168Y16230D01*
G01X19177Y16257D01*
G01X19185Y16265D01*
G01X19205Y16275D01*
G01X19231Y16275D01*
G01X19250Y16265D01*
G01X19168Y16111D02*
G01X19185Y16094D01*
G01X19205Y16084D01*
G01X19231Y16084D01*
G01X19250Y16094D01*
G01X19268Y16111D01*
G01X19277Y16138D01*
G01X19277Y16157D01*
G01X19268Y16184D01*
G01X19250Y16203D01*
G01X19231Y16211D01*
G01X19205Y16211D01*
G01X19185Y16203D01*
G01X19168Y16184D01*
G01X18968Y16021D02*
G01X18968Y16157D01*
G01X18959Y16184D01*
G01X18940Y16203D01*
G01X18914Y16211D01*
G01X18894Y16211D01*
G01X18868Y16203D01*
G01X18850Y16184D01*
G01X18840Y16157D01*
G01X18840Y16021D01*
G01X18781Y16021D02*
G01X18781Y16211D01*
G01X18781Y16021D02*
G01X18698Y16021D01*
G01X18672Y16030D01*
G01X18663Y16038D01*
G01X18653Y16057D01*
G01X18653Y16084D01*
G01X18663Y16103D01*
G01X18672Y16111D01*
G01X18698Y16121D01*
G01X18781Y16121D01*
G01X21969Y28221D02*
G01X21969Y28357D01*
G01X21960Y28384D01*
G01X21943Y28403D01*
G01X21914Y28411D01*
G01X21897Y28411D01*
G01X21869Y28403D01*
G01X21852Y28384D01*
G01X21843Y28357D01*
G01X21843Y28221D01*
G01X21655Y28248D02*
G01X21673Y28230D01*
G01X21701Y28221D01*
G01X21736Y28221D01*
G01X21764Y28230D01*
G01X21782Y28248D01*
G01X21782Y28265D01*
G01X21773Y28284D01*
G01X21764Y28294D01*
G01X21746Y28303D01*
G01X21692Y28321D01*
G01X21673Y28330D01*
G01X21664Y28338D01*
G01X21655Y28357D01*
G01X21655Y28384D01*
G01X21673Y28403D01*
G01X21701Y28411D01*
G01X21736Y28411D01*
G01X21764Y28403D01*
G01X21782Y28384D01*
G01X21594Y28221D02*
G01X21594Y28411D01*
G01X21594Y28221D02*
G01X21514Y28221D01*
G01X21485Y28230D01*
G01X21477Y28238D01*
G01X21468Y28257D01*
G01X21468Y28275D01*
G01X21477Y28294D01*
G01X21485Y28303D01*
G01X21514Y28311D01*
G01X21594Y28311D02*
G01X21514Y28311D01*
G01X21485Y28321D01*
G01X21477Y28330D01*
G01X21468Y28348D01*
G01X21468Y28375D01*
G01X21477Y28394D01*
G01X21485Y28403D01*
G01X21514Y28411D01*
G01X21594Y28411D01*
G01X21268Y28221D02*
G01X21268Y28411D01*
G01X21268Y28311D02*
G01X21250Y28294D01*
G01X21231Y28284D01*
G01X21205Y28284D01*
G01X21185Y28294D01*
G01X21168Y28311D01*
G01X21159Y28338D01*
G01X21159Y28357D01*
G01X21168Y28384D01*
G01X21185Y28403D01*
G01X21205Y28411D01*
G01X21231Y28411D01*
G01X21250Y28403D01*
G01X21268Y28384D01*
G01X21053Y28284D02*
G01X21072Y28294D01*
G01X21089Y28311D01*
G01X21098Y28338D01*
G01X21098Y28357D01*
G01X21089Y28384D01*
G01X21072Y28403D01*
G01X21053Y28411D01*
G01X21026Y28411D01*
G01X21007Y28403D01*
G01X20989Y28384D01*
G01X20981Y28357D01*
G01X20981Y28338D01*
G01X20989Y28311D01*
G01X21007Y28294D01*
G01X21026Y28284D01*
G01X21053Y28284D01*
G01X20893Y28221D02*
G01X20893Y28375D01*
G01X20885Y28403D01*
G01X20865Y28411D01*
G01X20847Y28411D01*
G01X20921Y28284D02*
G01X20856Y28284D01*
G01X20760Y28221D02*
G01X20760Y28375D01*
G01X20752Y28403D01*
G01X20734Y28411D01*
G01X20714Y28411D01*
G01X20788Y28284D02*
G01X20725Y28284D01*
G01X20610Y28284D02*
G01X20627Y28294D01*
G01X20646Y28311D01*
G01X20655Y28338D01*
G01X20655Y28357D01*
G01X20646Y28384D01*
G01X20627Y28403D01*
G01X20610Y28411D01*
G01X20582Y28411D01*
G01X20564Y28403D01*
G01X20546Y28384D01*
G01X20536Y28357D01*
G01X20536Y28338D01*
G01X20546Y28311D01*
G01X20564Y28294D01*
G01X20582Y28284D01*
G01X20610Y28284D01*
G01X20477Y28284D02*
G01X20477Y28411D01*
G01X20477Y28321D02*
G01X20450Y28294D01*
G01X20431Y28284D01*
G01X20405Y28284D01*
G01X20385Y28294D01*
G01X20377Y28321D01*
G01X20377Y28411D01*
G01X20377Y28321D02*
G01X20350Y28294D01*
G01X20331Y28284D01*
G01X20305Y28284D01*
G01X20285Y28294D01*
G01X20277Y28321D01*
G01X20277Y28411D01*
G01X20217Y28221D02*
G01X20217Y28411D01*
G01X20217Y28221D02*
G01X20098Y28221D01*
G01X20217Y28311D02*
G01X20144Y28311D01*
G01X19930Y28284D02*
G01X19930Y28411D01*
G01X19930Y28311D02*
G01X19947Y28294D01*
G01X19965Y28284D01*
G01X19993Y28284D01*
G01X20011Y28294D01*
G01X20030Y28311D01*
G01X20039Y28338D01*
G01X20039Y28357D01*
G01X20030Y28384D01*
G01X20011Y28403D01*
G01X19993Y28411D01*
G01X19965Y28411D01*
G01X19947Y28403D01*
G01X19930Y28384D01*
G01X19760Y28311D02*
G01X19778Y28294D01*
G01X19797Y28284D01*
G01X19825Y28284D01*
G01X19843Y28294D01*
G01X19860Y28311D01*
G01X19869Y28338D01*
G01X19869Y28357D01*
G01X19860Y28384D01*
G01X19843Y28403D01*
G01X19825Y28411D01*
G01X19797Y28411D01*
G01X19778Y28403D01*
G01X19760Y28384D01*
G01X19701Y28221D02*
G01X19692Y28230D01*
G01X19682Y28221D01*
G01X19692Y28211D01*
G01X19701Y28221D01*
G01X19692Y28284D02*
G01X19692Y28411D01*
G01X19622Y28284D02*
G01X19622Y28411D01*
G01X19622Y28321D02*
G01X19594Y28294D01*
G01X19577Y28284D01*
G01X19550Y28284D01*
G01X19531Y28294D01*
G01X19522Y28321D01*
G01X19522Y28411D01*
G01X19353Y28284D02*
G01X19353Y28430D01*
G01X19363Y28457D01*
G01X19372Y28465D01*
G01X19389Y28475D01*
G01X19417Y28475D01*
G01X19435Y28465D01*
G01X19353Y28311D02*
G01X19372Y28294D01*
G01X19389Y28284D01*
G01X19417Y28284D01*
G01X19435Y28294D01*
G01X19453Y28311D01*
G01X19463Y28338D01*
G01X19463Y28357D01*
G01X19453Y28384D01*
G01X19435Y28403D01*
G01X19417Y28411D01*
G01X19389Y28411D01*
G01X19372Y28403D01*
G01X19353Y28384D01*
G01X19153Y28221D02*
G01X19153Y28411D01*
G01X19153Y28221D02*
G01X19089Y28221D01*
G01X19063Y28230D01*
G01X19044Y28248D01*
G01X19035Y28265D01*
G01X19026Y28294D01*
G01X19026Y28338D01*
G01X19035Y28365D01*
G01X19044Y28384D01*
G01X19063Y28403D01*
G01X19089Y28411D01*
G01X19153Y28411D01*
G01X18911Y28221D02*
G01X18930Y28230D01*
G01X18947Y28248D01*
G01X18956Y28265D01*
G01X18965Y28294D01*
G01X18965Y28338D01*
G01X18956Y28365D01*
G01X18947Y28384D01*
G01X18930Y28403D01*
G01X18911Y28411D01*
G01X18875Y28411D01*
G01X18856Y28403D01*
G01X18839Y28384D01*
G01X18830Y28365D01*
G01X18821Y28338D01*
G01X18821Y28294D01*
G01X18830Y28265D01*
G01X18839Y28248D01*
G01X18856Y28230D01*
G01X18875Y28221D01*
G01X18911Y28221D01*
G01X18760Y28221D02*
G01X18714Y28411D01*
G01X18669Y28221D02*
G01X18714Y28411D01*
G01X18669Y28221D02*
G01X18625Y28411D01*
G01X18578Y28221D02*
G01X18625Y28411D01*
G01X18518Y28221D02*
G01X18518Y28411D01*
G01X18518Y28221D02*
G01X18392Y28411D01*
G01X18392Y28221D02*
G01X18392Y28411D01*
G01X18168Y28184D02*
G01X18331Y28475D01*
G01X18107Y28221D02*
G01X18107Y28411D01*
G01X18107Y28221D02*
G01X18026Y28221D01*
G01X17998Y28230D01*
G01X17989Y28238D01*
G01X17981Y28257D01*
G01X17981Y28284D01*
G01X17989Y28303D01*
G01X17998Y28311D01*
G01X18026Y28321D01*
G01X18107Y28321D01*
G01X17785Y28265D02*
G01X17793Y28248D01*
G01X17811Y28230D01*
G01X17830Y28221D01*
G01X17865Y28221D01*
G01X17885Y28230D01*
G01X17902Y28248D01*
G01X17911Y28265D01*
G01X17921Y28294D01*
G01X17921Y28338D01*
G01X17911Y28365D01*
G01X17902Y28384D01*
G01X17885Y28403D01*
G01X17865Y28411D01*
G01X17830Y28411D01*
G01X17811Y28403D01*
G01X17793Y28384D01*
G01X17785Y28365D01*
G01X17725Y28221D02*
G01X17725Y28411D01*
G01X17725Y28221D02*
G01X17643Y28221D01*
G01X17614Y28230D01*
G01X17606Y28238D01*
G01X17597Y28257D01*
G01X17597Y28275D01*
G01X17606Y28294D01*
G01X17614Y28303D01*
G01X17643Y28311D01*
G01X17725Y28311D02*
G01X17643Y28311D01*
G01X17614Y28321D01*
G01X17606Y28330D01*
G01X17597Y28348D01*
G01X17597Y28375D01*
G01X17606Y28394D01*
G01X17614Y28403D01*
G01X17643Y28411D01*
G01X17725Y28411D01*
G54D22*
G01X10400Y11600D02*
G01X10400Y11171D01*
G01X10400Y11600D02*
G01X10584Y11600D01*
G01X10644Y11580D01*
G01X10665Y11559D01*
G01X10685Y11519D01*
G01X10685Y11478D01*
G01X10665Y11436D01*
G01X10644Y11415D01*
G01X10584Y11396D01*
G01X10400Y11396D02*
G01X10584Y11396D01*
G01X10644Y11375D01*
G01X10665Y11355D01*
G01X10685Y11313D01*
G01X10685Y11253D01*
G01X10665Y11211D01*
G01X10644Y11190D01*
G01X10584Y11171D01*
G01X10400Y11171D01*
G01X10985Y11600D02*
G01X10821Y11171D01*
G01X10985Y11600D02*
G01X11148Y11171D01*
G01X10882Y11313D02*
G01X11086Y11313D01*
G01X11427Y11600D02*
G01X11427Y11171D01*
G01X11284Y11600D02*
G01X11569Y11600D01*
G54D25*
G01X9080Y7590D02*
G01X9080Y6086D01*
G01X9080Y7590D02*
G01X9724Y7590D01*
G01X9939Y7517D01*
G01X10010Y7446D01*
G01X10082Y7303D01*
G01X10082Y7159D01*
G01X10010Y7017D01*
G01X9939Y6944D01*
G01X9724Y6873D01*
G01X9080Y6873D02*
G01X9724Y6873D01*
G01X9939Y6801D01*
G01X10010Y6730D01*
G01X10082Y6588D01*
G01X10082Y6373D01*
G01X10010Y6230D01*
G01X9939Y6157D01*
G01X9724Y6086D01*
G01X9080Y6086D01*
G01X11413Y7088D02*
G01X11413Y6086D01*
G01X11413Y6873D02*
G01X11270Y7017D01*
G01X11127Y7088D01*
G01X10912Y7088D01*
G01X10769Y7017D01*
G01X10626Y6873D01*
G01X10554Y6659D01*
G01X10554Y6515D01*
G01X10626Y6301D01*
G01X10769Y6157D01*
G01X10912Y6086D01*
G01X11127Y6086D01*
G01X11270Y6157D01*
G01X11413Y6301D01*
G01X12100Y7590D02*
G01X12100Y6373D01*
G01X12172Y6157D01*
G01X12315Y6086D01*
G01X12458Y6086D01*
G01X11886Y7088D02*
G01X12387Y7088D01*
G01X13146Y7590D02*
G01X13146Y6373D01*
G01X13217Y6157D01*
G01X13360Y6086D01*
G01X13503Y6086D01*
G01X12931Y7088D02*
G01X13432Y7088D01*
G01X13976Y6659D02*
G01X14835Y6659D01*
G01X14835Y6801D01*
G01X14763Y6944D01*
G01X14692Y7017D01*
G01X14549Y7088D01*
G01X14334Y7088D01*
G01X14191Y7017D01*
G01X14047Y6873D01*
G01X13976Y6659D01*
G01X13976Y6515D01*
G01X14047Y6301D01*
G01X14191Y6157D01*
G01X14334Y6086D01*
G01X14549Y6086D01*
G01X14692Y6157D01*
G01X14835Y6301D01*
G01X15307Y7088D02*
G01X15307Y6086D01*
G01X15307Y6659D02*
G01X15379Y6873D01*
G01X15522Y7017D01*
G01X15665Y7088D01*
G01X15880Y7088D01*
G01X16424Y7088D02*
G01X16853Y6086D01*
G01X17283Y7088D02*
G01X16853Y6086D01*
G01X16710Y5800D01*
G01X16567Y5657D01*
G01X16424Y5584D01*
G01X16352Y5584D01*
G01X18858Y7303D02*
G01X19001Y7375D01*
G01X19216Y7590D01*
G01X19216Y6086D01*
G01X20046Y7590D02*
G01X19831Y7517D01*
G01X19760Y7375D01*
G01X19760Y7232D01*
G01X19831Y7088D01*
G01X19974Y7017D01*
G01X20261Y6944D01*
G01X20476Y6873D01*
G01X20619Y6730D01*
G01X20690Y6588D01*
G01X20690Y6373D01*
G01X20619Y6230D01*
G01X20547Y6157D01*
G01X20332Y6086D01*
G01X20046Y6086D01*
G01X19831Y6157D01*
G01X19760Y6230D01*
G01X19688Y6373D01*
G01X19688Y6588D01*
G01X19760Y6730D01*
G01X19903Y6873D01*
G01X20118Y6944D01*
G01X20404Y7017D01*
G01X20547Y7088D01*
G01X20619Y7232D01*
G01X20619Y7375D01*
G01X20547Y7517D01*
G01X20332Y7590D01*
G01X20046Y7590D01*
G01X22022Y7375D02*
G01X21950Y7517D01*
G01X21735Y7590D01*
G01X21592Y7590D01*
G01X21377Y7517D01*
G01X21234Y7303D01*
G01X21163Y6944D01*
G01X21163Y6588D01*
G01X21234Y6301D01*
G01X21377Y6157D01*
G01X21592Y6086D01*
G01X21664Y6086D01*
G01X21879Y6157D01*
G01X22022Y6301D01*
G01X22093Y6515D01*
G01X22093Y6588D01*
G01X22022Y6801D01*
G01X21879Y6944D01*
G01X21664Y7017D01*
G01X21592Y7017D01*
G01X21377Y6944D01*
G01X21234Y6801D01*
G01X21163Y6588D01*
G01X23425Y7590D02*
G01X22709Y7590D01*
G01X22637Y6944D01*
G01X22709Y7017D01*
G01X22924Y7088D01*
G01X23138Y7088D01*
G01X23353Y7017D01*
G01X23496Y6873D01*
G01X23568Y6659D01*
G01X23568Y6515D01*
G01X23496Y6301D01*
G01X23353Y6157D01*
G01X23138Y6086D01*
G01X22924Y6086D01*
G01X22709Y6157D01*
G01X22637Y6230D01*
G01X22566Y6373D01*
G01X24470Y7590D02*
G01X24255Y7517D01*
G01X24112Y7303D01*
G01X24040Y6944D01*
G01X24040Y6730D01*
G01X24112Y6373D01*
G01X24255Y6157D01*
G01X24470Y6086D01*
G01X24613Y6086D01*
G01X24828Y6157D01*
G01X24971Y6373D01*
G01X25042Y6730D01*
G01X25042Y6944D01*
G01X24971Y7303D01*
G01X24828Y7517D01*
G01X24613Y7590D01*
G01X24470Y7590D01*
G54D26*
G01X3569Y7178D02*
G01X3569Y6051D01*
G01X3569Y7178D02*
G01X4051Y7178D01*
G01X4213Y7123D01*
G01X4265Y7071D01*
G01X4319Y6963D01*
G01X4319Y6855D01*
G01X4265Y6748D01*
G01X4213Y6694D01*
G01X4051Y6640D01*
G01X3569Y6640D02*
G01X4051Y6640D01*
G01X4213Y6586D01*
G01X4265Y6534D01*
G01X4319Y6426D01*
G01X4319Y6265D01*
G01X4265Y6157D01*
G01X4213Y6103D01*
G01X4051Y6051D01*
G01X3569Y6051D01*
G01X5157Y7017D02*
G01X5157Y6051D01*
G01X4673Y6534D02*
G01X5640Y6534D01*
G01X28174Y7124D02*
G01X28174Y5997D01*
G01X28174Y7124D02*
G01X28657Y7124D01*
G01X28818Y7071D01*
G01X28872Y7017D01*
G01X28925Y6910D01*
G01X28925Y6802D01*
G01X28872Y6695D01*
G01X28818Y6641D01*
G01X28657Y6588D01*
G01X28174Y6588D02*
G01X28657Y6588D01*
G01X28818Y6534D01*
G01X28872Y6480D01*
G01X28925Y6373D01*
G01X28925Y6212D01*
G01X28872Y6104D01*
G01X28818Y6051D01*
G01X28657Y5997D01*
G01X28174Y5997D01*
G01X29280Y6480D02*
G01X30246Y6480D01*
G54D22*
G01X18500Y12200D02*
G01X18500Y11771D01*
G01X18500Y12200D02*
G01X18684Y12200D01*
G01X18744Y12180D01*
G01X18765Y12159D01*
G01X18785Y12119D01*
G01X18785Y12078D01*
G01X18765Y12036D01*
G01X18744Y12015D01*
G01X18684Y11996D01*
G01X18500Y11996D01*
G01X18643Y11996D02*
G01X18785Y11771D01*
G01X18921Y12119D02*
G01X18961Y12138D01*
G01X19023Y12200D01*
G01X19023Y11771D01*
G01X24605Y13500D02*
G01X24605Y13173D01*
G01X24584Y13111D01*
G01X24564Y13090D01*
G01X24522Y13071D01*
G01X24481Y13071D01*
G01X24440Y13090D01*
G01X24419Y13111D01*
G01X24400Y13173D01*
G01X24400Y13213D01*
G01X24739Y13500D02*
G01X24739Y13071D01*
G01X24739Y13500D02*
G01X24923Y13500D01*
G01X24985Y13480D01*
G01X25005Y13459D01*
G01X25026Y13419D01*
G01X25026Y13357D01*
G01X25005Y13315D01*
G01X24985Y13296D01*
G01X24923Y13275D01*
G01X24739Y13275D01*
G01X25181Y13398D02*
G01X25181Y13419D01*
G01X25202Y13459D01*
G01X25222Y13480D01*
G01X25263Y13500D01*
G01X25344Y13500D01*
G01X25385Y13480D01*
G01X25406Y13459D01*
G01X25427Y13419D01*
G01X25427Y13378D01*
G01X25406Y13336D01*
G01X25364Y13275D01*
G01X25160Y13071D01*
G01X25447Y13071D01*
G01X7360Y29555D02*
G01X7319Y29515D01*
G01X7300Y29453D01*
G01X7300Y29371D01*
G01X7319Y29311D01*
G01X7360Y29269D01*
G01X7402Y29269D01*
G01X7443Y29290D01*
G01X7463Y29311D01*
G01X7484Y29352D01*
G01X7525Y29475D01*
G01X7544Y29515D01*
G01X7564Y29536D01*
G01X7606Y29555D01*
G01X7668Y29555D01*
G01X7709Y29515D01*
G01X7728Y29453D01*
G01X7728Y29371D01*
G01X7709Y29311D01*
G01X7668Y29269D01*
G01X7300Y29690D02*
G01X7728Y29794D01*
G01X7300Y29896D02*
G01X7728Y29794D01*
G01X7300Y29896D02*
G01X7728Y29998D01*
G01X7300Y30100D02*
G01X7728Y29998D01*
G01X2386Y14038D02*
G01X2344Y14080D01*
G01X2284Y14100D01*
G01X2201Y14100D01*
G01X2140Y14080D01*
G01X2100Y14038D01*
G01X2100Y13998D01*
G01X2119Y13957D01*
G01X2140Y13936D01*
G01X2182Y13915D01*
G01X2305Y13875D01*
G01X2344Y13855D01*
G01X2365Y13834D01*
G01X2386Y13794D01*
G01X2386Y13732D01*
G01X2344Y13690D01*
G01X2284Y13671D01*
G01X2201Y13671D01*
G01X2140Y13690D01*
G01X2100Y13732D01*
G01X2644Y14100D02*
G01X2603Y14080D01*
G01X2561Y14038D01*
G01X2542Y13998D01*
G01X2521Y13936D01*
G01X2521Y13834D01*
G01X2542Y13773D01*
G01X2561Y13732D01*
G01X2603Y13690D01*
G01X2644Y13671D01*
G01X2726Y13671D01*
G01X2767Y13690D01*
G01X2807Y13732D01*
G01X2828Y13773D01*
G01X2848Y13834D01*
G01X2848Y13936D01*
G01X2828Y13998D01*
G01X2807Y14038D01*
G01X2767Y14080D01*
G01X2726Y14100D01*
G01X2644Y14100D01*
G01X2984Y14100D02*
G01X2984Y13671D01*
G01X2984Y13671D02*
G01X3228Y13671D01*
G01X3528Y14100D02*
G01X3363Y13671D01*
G01X3528Y14100D02*
G01X3690Y13671D01*
G01X3425Y13813D02*
G01X3630Y13813D01*
G01X3826Y14100D02*
G01X3826Y13671D01*
G01X3826Y14100D02*
G01X4009Y14100D01*
G01X4071Y14080D01*
G01X4092Y14059D01*
G01X4113Y14019D01*
G01X4113Y13978D01*
G01X4092Y13936D01*
G01X4071Y13915D01*
G01X4009Y13896D01*
G01X3826Y13896D01*
G01X3969Y13896D02*
G01X4113Y13671D01*
G01X27400Y24800D02*
G01X27400Y24371D01*
G01X27400Y24800D02*
G01X27584Y24800D01*
G01X27644Y24780D01*
G01X27665Y24759D01*
G01X27685Y24719D01*
G01X27685Y24657D01*
G01X27665Y24615D01*
G01X27644Y24596D01*
G01X27584Y24575D01*
G01X27400Y24575D01*
G01X27842Y24698D02*
G01X27842Y24719D01*
G01X27861Y24759D01*
G01X27882Y24780D01*
G01X27923Y24800D01*
G01X28005Y24800D01*
G01X28046Y24780D01*
G01X28067Y24759D01*
G01X28086Y24719D01*
G01X28086Y24678D01*
G01X28067Y24636D01*
G01X28026Y24575D01*
G01X27821Y24371D01*
G01X28107Y24371D01*
G01X27600Y16000D02*
G01X27600Y15571D01*
G01X27600Y16000D02*
G01X27784Y16000D01*
G01X27844Y15980D01*
G01X27865Y15959D01*
G01X27885Y15919D01*
G01X27885Y15857D01*
G01X27865Y15815D01*
G01X27844Y15796D01*
G01X27784Y15775D01*
G01X27600Y15775D01*
G01X28226Y16000D02*
G01X28021Y15713D01*
G01X28327Y15713D01*
G01X28226Y16000D02*
G01X28226Y15571D01*
G01X10800Y13400D02*
G01X10800Y13094D01*
G01X10819Y13032D01*
G01X10860Y12990D01*
G01X10922Y12971D01*
G01X10964Y12971D01*
G01X11025Y12990D01*
G01X11065Y13032D01*
G01X11085Y13094D01*
G01X11085Y13400D01*
G01X11261Y13400D02*
G01X11486Y13400D01*
G01X11364Y13236D01*
G01X11426Y13236D01*
G01X11467Y13215D01*
G01X11486Y13196D01*
G01X11507Y13134D01*
G01X11507Y13094D01*
G01X11486Y13032D01*
G01X11446Y12990D01*
G01X11385Y12971D01*
G01X11323Y12971D01*
G01X11261Y12990D01*
G01X11242Y13011D01*
G01X11221Y13053D01*
G01X11400Y30937D02*
G01X11828Y30937D01*
G01X11502Y31092D02*
G01X11481Y31092D01*
G01X11439Y31113D01*
G01X11419Y31133D01*
G01X11400Y31174D01*
G01X11400Y31256D01*
G01X11419Y31297D01*
G01X11439Y31317D01*
G01X11481Y31338D01*
G01X11522Y31338D01*
G01X11563Y31317D01*
G01X11625Y31277D01*
G01X11828Y31072D01*
G01X11828Y31358D01*
G01X11502Y31800D02*
G01X11460Y31780D01*
G01X11419Y31739D01*
G01X11400Y31698D01*
G01X11400Y31616D01*
G01X11419Y31575D01*
G01X11460Y31534D01*
G01X11502Y31514D01*
G01X11563Y31493D01*
G01X11664Y31493D01*
G01X11727Y31514D01*
G01X11768Y31534D01*
G01X11809Y31575D01*
G01X11828Y31616D01*
G01X11828Y31698D01*
G01X11809Y31739D01*
G01X11768Y31780D01*
G01X11727Y31800D01*
G01X22700Y30892D02*
G01X23128Y30892D01*
G01X22700Y30892D02*
G01X22700Y31076D01*
G01X22719Y31136D01*
G01X22739Y31157D01*
G01X22781Y31178D01*
G01X22843Y31178D01*
G01X22884Y31157D01*
G01X22903Y31136D01*
G01X22925Y31076D01*
G01X22925Y30892D01*
G01X22781Y31313D02*
G01X22760Y31353D01*
G01X22700Y31415D01*
G01X23128Y31415D01*
G01X27500Y20200D02*
G01X27500Y19771D01*
G01X27500Y20200D02*
G01X27684Y20200D01*
G01X27744Y20180D01*
G01X27765Y20159D01*
G01X27785Y20119D01*
G01X27785Y20057D01*
G01X27765Y20015D01*
G01X27744Y19996D01*
G01X27684Y19975D01*
G01X27500Y19975D01*
G01X27961Y20200D02*
G01X28186Y20200D01*
G01X28064Y20036D01*
G01X28126Y20036D01*
G01X28167Y20015D01*
G01X28186Y19996D01*
G01X28207Y19934D01*
G01X28207Y19894D01*
G01X28186Y19832D01*
G01X28146Y19790D01*
G01X28085Y19771D01*
G01X28023Y19771D01*
G01X27961Y19790D01*
G01X27942Y19811D01*
G01X27921Y19853D01*
G54D23*
G01X32200Y14563D02*
G01X32519Y14655D01*
G01X32200Y14746D02*
G01X32519Y14655D01*
G01X32200Y14746D02*
G01X32519Y14836D01*
G01X32200Y14928D02*
G01X32519Y14836D01*
G01X32200Y15078D02*
G01X32519Y15169D01*
G01X32200Y15259D02*
G01X32519Y15169D01*
G01X32200Y15259D02*
G01X32519Y15350D01*
G01X32200Y15440D02*
G01X32519Y15350D01*
G01X32200Y15590D02*
G01X32519Y15682D01*
G01X32200Y15773D02*
G01X32519Y15682D01*
G01X32200Y15773D02*
G01X32519Y15863D01*
G01X32200Y15955D02*
G01X32519Y15863D01*
G01X32405Y16128D02*
G01X32428Y16105D01*
G01X32450Y16128D01*
G01X32428Y16150D01*
G01X32405Y16128D01*
G01X32200Y16413D02*
G01X32223Y16369D01*
G01X32269Y16323D01*
G01X32337Y16300D01*
G01X32382Y16300D01*
G01X32450Y16323D01*
G01X32496Y16369D01*
G01X32519Y16413D01*
G01X32519Y16482D01*
G01X32496Y16528D01*
G01X32450Y16573D01*
G01X32382Y16596D01*
G01X32337Y16596D01*
G01X32269Y16573D01*
G01X32223Y16528D01*
G01X32200Y16482D01*
G01X32200Y16413D01*
G01X32200Y16746D02*
G01X32678Y16746D01*
G01X32269Y16746D02*
G01X32223Y16790D01*
G01X32200Y16836D01*
G01X32200Y16905D01*
G01X32223Y16950D01*
G01X32269Y16996D01*
G01X32337Y17019D01*
G01X32382Y17019D01*
G01X32450Y16996D01*
G01X32496Y16950D01*
G01X32519Y16905D01*
G01X32519Y16836D01*
G01X32496Y16790D01*
G01X32450Y16746D01*
G01X32337Y17169D02*
G01X32337Y17440D01*
G01X32291Y17440D01*
G01X32246Y17419D01*
G01X32223Y17396D01*
G01X32200Y17350D01*
G01X32200Y17282D01*
G01X32223Y17236D01*
G01X32269Y17190D01*
G01X32337Y17169D01*
G01X32382Y17169D01*
G01X32450Y17190D01*
G01X32496Y17236D01*
G01X32519Y17282D01*
G01X32519Y17350D01*
G01X32496Y17396D01*
G01X32450Y17440D01*
G01X32200Y17590D02*
G01X32519Y17590D01*
G01X32291Y17590D02*
G01X32223Y17659D01*
G01X32200Y17705D01*
G01X32200Y17773D01*
G01X32223Y17819D01*
G01X32291Y17840D01*
G01X32519Y17840D01*
G01X32200Y18263D02*
G01X32564Y18263D01*
G01X32632Y18240D01*
G01X32655Y18219D01*
G01X32678Y18173D01*
G01X32678Y18105D01*
G01X32655Y18059D01*
G01X32269Y18263D02*
G01X32223Y18219D01*
G01X32200Y18173D01*
G01X32200Y18105D01*
G01X32223Y18059D01*
G01X32269Y18013D01*
G01X32337Y17990D01*
G01X32382Y17990D01*
G01X32450Y18013D01*
G01X32496Y18059D01*
G01X32519Y18105D01*
G01X32519Y18173D01*
G01X32496Y18219D01*
G01X32450Y18263D01*
G01X32200Y18413D02*
G01X32519Y18413D01*
G01X32337Y18413D02*
G01X32269Y18436D01*
G01X32223Y18482D01*
G01X32200Y18528D01*
G01X32200Y18596D01*
G01X32337Y18746D02*
G01X32337Y19019D01*
G01X32291Y19019D01*
G01X32246Y18996D01*
G01X32223Y18973D01*
G01X32200Y18928D01*
G01X32200Y18859D01*
G01X32223Y18813D01*
G01X32269Y18769D01*
G01X32337Y18746D01*
G01X32382Y18746D01*
G01X32450Y18769D01*
G01X32496Y18813D01*
G01X32519Y18859D01*
G01X32519Y18928D01*
G01X32496Y18973D01*
G01X32450Y19019D01*
G01X32337Y19169D02*
G01X32337Y19440D01*
G01X32291Y19440D01*
G01X32246Y19419D01*
G01X32223Y19396D01*
G01X32200Y19350D01*
G01X32200Y19282D01*
G01X32223Y19236D01*
G01X32269Y19190D01*
G01X32337Y19169D01*
G01X32382Y19169D01*
G01X32450Y19190D01*
G01X32496Y19236D01*
G01X32519Y19282D01*
G01X32519Y19350D01*
G01X32496Y19396D01*
G01X32450Y19440D01*
G01X32200Y19590D02*
G01X32519Y19590D01*
G01X32291Y19590D02*
G01X32223Y19659D01*
G01X32200Y19705D01*
G01X32200Y19773D01*
G01X32223Y19819D01*
G01X32291Y19840D01*
G01X32519Y19840D01*
G01X32337Y19990D02*
G01X32337Y20263D01*
G01X32291Y20263D01*
G01X32246Y20240D01*
G01X32223Y20219D01*
G01X32200Y20173D01*
G01X32200Y20105D01*
G01X32223Y20059D01*
G01X32269Y20013D01*
G01X32337Y19990D01*
G01X32382Y19990D01*
G01X32450Y20013D01*
G01X32496Y20059D01*
G01X32519Y20105D01*
G01X32519Y20173D01*
G01X32496Y20219D01*
G01X32450Y20263D01*
G01X32200Y20413D02*
G01X32519Y20413D01*
G01X32291Y20413D02*
G01X32223Y20482D01*
G01X32200Y20528D01*
G01X32200Y20596D01*
G01X32223Y20640D01*
G01X32291Y20663D01*
G01X32519Y20663D01*
G01X32337Y20813D02*
G01X32337Y21086D01*
G01X32291Y21086D01*
G01X32246Y21063D01*
G01X32223Y21040D01*
G01X32200Y20996D01*
G01X32200Y20928D01*
G01X32223Y20882D01*
G01X32269Y20836D01*
G01X32337Y20813D01*
G01X32382Y20813D01*
G01X32450Y20836D01*
G01X32496Y20882D01*
G01X32519Y20928D01*
G01X32519Y20996D01*
G01X32496Y21040D01*
G01X32450Y21086D01*
G01X32200Y21236D02*
G01X32519Y21236D01*
G01X32337Y21236D02*
G01X32269Y21259D01*
G01X32223Y21305D01*
G01X32200Y21350D01*
G01X32200Y21419D01*
G01X32200Y21840D02*
G01X32564Y21840D01*
G01X32632Y21819D01*
G01X32655Y21796D01*
G01X32678Y21750D01*
G01X32678Y21682D01*
G01X32655Y21636D01*
G01X32269Y21840D02*
G01X32223Y21796D01*
G01X32200Y21750D01*
G01X32200Y21682D01*
G01X32223Y21636D01*
G01X32269Y21590D01*
G01X32337Y21569D01*
G01X32382Y21569D01*
G01X32450Y21590D01*
G01X32496Y21636D01*
G01X32519Y21682D01*
G01X32519Y21750D01*
G01X32496Y21796D01*
G01X32450Y21840D01*
G01X32200Y22013D02*
G01X32519Y22150D01*
G01X32200Y22286D02*
G01X32519Y22150D01*
G01X32609Y22105D01*
G01X32655Y22059D01*
G01X32678Y22013D01*
G01X32678Y21990D01*
G01X32405Y22459D02*
G01X32428Y22436D01*
G01X32450Y22459D01*
G01X32428Y22482D01*
G01X32405Y22459D01*
G01X32269Y22905D02*
G01X32223Y22859D01*
G01X32200Y22813D01*
G01X32200Y22746D01*
G01X32223Y22700D01*
G01X32269Y22655D01*
G01X32337Y22632D01*
G01X32382Y22632D01*
G01X32450Y22655D01*
G01X32496Y22700D01*
G01X32519Y22746D01*
G01X32519Y22813D01*
G01X32496Y22859D01*
G01X32450Y22905D01*
G01X32200Y23169D02*
G01X32223Y23123D01*
G01X32269Y23078D01*
G01X32337Y23055D01*
G01X32382Y23055D01*
G01X32450Y23078D01*
G01X32496Y23123D01*
G01X32519Y23169D01*
G01X32519Y23236D01*
G01X32496Y23282D01*
G01X32450Y23328D01*
G01X32382Y23350D01*
G01X32337Y23350D01*
G01X32269Y23328D01*
G01X32223Y23282D01*
G01X32200Y23236D01*
G01X32200Y23169D01*
G01X32200Y23500D02*
G01X32519Y23500D01*
G01X32291Y23500D02*
G01X32223Y23569D01*
G01X32200Y23613D01*
G01X32200Y23682D01*
G01X32223Y23728D01*
G01X32291Y23750D01*
G01X32519Y23750D01*
G01X32291Y23750D02*
G01X32223Y23819D01*
G01X32200Y23863D01*
G01X32200Y23932D01*
G01X32223Y23978D01*
G01X32291Y24000D01*
G01X32519Y24000D01*
G01X17372Y25599D02*
G01X17144Y25599D01*
G01X17122Y25394D01*
G01X17144Y25417D01*
G01X17214Y25440D01*
G01X17281Y25440D01*
G01X17350Y25417D01*
G01X17394Y25371D01*
G01X17418Y25303D01*
G01X17418Y25258D01*
G01X17394Y25190D01*
G01X17350Y25144D01*
G01X17281Y25121D01*
G01X17214Y25121D01*
G01X17144Y25144D01*
G01X17122Y25167D01*
G01X17100Y25212D01*
G01X17568Y25599D02*
G01X17750Y25121D01*
G01X17931Y25599D02*
G01X17750Y25121D01*
G01X17440Y24486D02*
G01X17418Y24532D01*
G01X17372Y24577D01*
G01X17327Y24600D01*
G01X17235Y24600D01*
G01X17190Y24577D01*
G01X17144Y24532D01*
G01X17122Y24486D01*
G01X17100Y24417D01*
G01X17100Y24303D01*
G01X17122Y24236D01*
G01X17144Y24190D01*
G01X17190Y24144D01*
G01X17235Y24121D01*
G01X17327Y24121D01*
G01X17372Y24144D01*
G01X17418Y24190D01*
G01X17440Y24236D01*
G01X17440Y24303D01*
G01X17327Y24303D02*
G01X17440Y24303D01*
G01X17590Y24600D02*
G01X17590Y24121D01*
G01X17590Y24600D02*
G01X17909Y24121D01*
G01X17909Y24600D02*
G01X17909Y24121D01*
G01X18059Y24600D02*
G01X18059Y24121D01*
G01X18059Y24600D02*
G01X18218Y24600D01*
G01X18285Y24577D01*
G01X18331Y24532D01*
G01X18355Y24486D01*
G01X18377Y24417D01*
G01X18377Y24303D01*
G01X18355Y24236D01*
G01X18331Y24190D01*
G01X18285Y24144D01*
G01X18218Y24121D01*
G01X18059Y24121D01*
G01X17200Y23600D02*
G01X17200Y23121D01*
G01X17200Y23600D02*
G01X17359Y23600D01*
G01X17427Y23577D01*
G01X17472Y23532D01*
G01X17494Y23486D01*
G01X17518Y23417D01*
G01X17518Y23303D01*
G01X17494Y23236D01*
G01X17472Y23190D01*
G01X17427Y23144D01*
G01X17359Y23121D01*
G01X17200Y23121D01*
G01X17894Y23600D02*
G01X17668Y23282D01*
G01X18009Y23282D01*
G01X17894Y23600D02*
G01X17894Y23121D01*
G01X17200Y22600D02*
G01X17200Y22121D01*
G01X17200Y22600D02*
G01X17359Y22600D01*
G01X17427Y22577D01*
G01X17472Y22532D01*
G01X17494Y22486D01*
G01X17518Y22417D01*
G01X17518Y22303D01*
G01X17494Y22236D01*
G01X17472Y22190D01*
G01X17427Y22144D01*
G01X17359Y22121D01*
G01X17200Y22121D01*
G01X17714Y22600D02*
G01X17964Y22600D01*
G01X17827Y22417D01*
G01X17894Y22417D01*
G01X17940Y22394D01*
G01X17964Y22371D01*
G01X17985Y22303D01*
G01X17985Y22259D01*
G01X17964Y22190D01*
G01X17918Y22144D01*
G01X17850Y22121D01*
G01X17781Y22121D01*
G01X17714Y22144D01*
G01X17690Y22167D01*
G01X17668Y22213D01*
G01X17200Y21673D02*
G01X17200Y21194D01*
G01X17200Y21673D02*
G01X17359Y21673D01*
G01X17427Y21650D01*
G01X17472Y21605D01*
G01X17494Y21559D01*
G01X17518Y21490D01*
G01X17518Y21377D01*
G01X17494Y21309D01*
G01X17472Y21263D01*
G01X17427Y21217D01*
G01X17359Y21194D01*
G01X17200Y21194D01*
G01X17690Y21559D02*
G01X17690Y21582D01*
G01X17714Y21627D01*
G01X17735Y21650D01*
G01X17781Y21673D01*
G01X17872Y21673D01*
G01X17918Y21650D01*
G01X17940Y21627D01*
G01X17964Y21582D01*
G01X17964Y21536D01*
G01X17940Y21490D01*
G01X17894Y21423D01*
G01X17668Y21194D01*
G01X17985Y21194D01*
G01X17200Y20600D02*
G01X17200Y20121D01*
G01X17200Y20600D02*
G01X17359Y20600D01*
G01X17427Y20577D01*
G01X17472Y20532D01*
G01X17494Y20486D01*
G01X17518Y20417D01*
G01X17518Y20303D01*
G01X17494Y20236D01*
G01X17472Y20190D01*
G01X17427Y20144D01*
G01X17359Y20121D01*
G01X17200Y20121D01*
G01X17668Y20509D02*
G01X17714Y20532D01*
G01X17781Y20600D01*
G01X17781Y20121D01*
G01X17200Y19600D02*
G01X17200Y19121D01*
G01X17200Y19600D02*
G01X17405Y19600D01*
G01X17472Y19577D01*
G01X17494Y19553D01*
G01X17518Y19509D01*
G01X17518Y19463D01*
G01X17494Y19417D01*
G01X17472Y19394D01*
G01X17405Y19371D01*
G01X17200Y19371D01*
G01X17359Y19371D02*
G01X17518Y19121D01*
G01X17668Y19440D02*
G01X17918Y19121D01*
G01X17918Y19440D02*
G01X17668Y19121D01*
G01X17259Y18600D02*
G01X17259Y18121D01*
G01X17100Y18600D02*
G01X17418Y18600D01*
G01X17568Y18440D02*
G01X17818Y18121D01*
G01X17818Y18440D02*
G01X17568Y18121D01*
G01X23344Y25600D02*
G01X23594Y25600D01*
G01X23459Y25417D01*
G01X23527Y25417D01*
G01X23572Y25394D01*
G01X23594Y25371D01*
G01X23618Y25303D01*
G01X23618Y25259D01*
G01X23594Y25190D01*
G01X23550Y25144D01*
G01X23481Y25121D01*
G01X23414Y25121D01*
G01X23344Y25144D01*
G01X23322Y25167D01*
G01X23300Y25213D01*
G01X23768Y25600D02*
G01X23950Y25121D01*
G01X24131Y25600D02*
G01X23950Y25121D01*
G01X24327Y25600D02*
G01X24577Y25600D01*
G01X24440Y25417D01*
G01X24509Y25417D01*
G01X24555Y25394D01*
G01X24577Y25371D01*
G01X24600Y25303D01*
G01X24600Y25259D01*
G01X24577Y25190D01*
G01X24531Y25144D01*
G01X24464Y25121D01*
G01X24394Y25121D01*
G01X24327Y25144D01*
G01X24305Y25167D01*
G01X24281Y25213D01*
G01X23700Y24473D02*
G01X23700Y23994D01*
G01X23700Y24473D02*
G01X23859Y24473D01*
G01X23927Y24450D01*
G01X23972Y24405D01*
G01X23994Y24359D01*
G01X24018Y24290D01*
G01X24018Y24177D01*
G01X23994Y24109D01*
G01X23972Y24063D01*
G01X23927Y24017D01*
G01X23859Y23994D01*
G01X23700Y23994D01*
G01X24281Y24473D02*
G01X24214Y24450D01*
G01X24190Y24405D01*
G01X24190Y24359D01*
G01X24214Y24313D01*
G01X24259Y24290D01*
G01X24350Y24267D01*
G01X24418Y24244D01*
G01X24464Y24200D01*
G01X24485Y24155D01*
G01X24485Y24086D01*
G01X24464Y24040D01*
G01X24440Y24017D01*
G01X24372Y23994D01*
G01X24281Y23994D01*
G01X24214Y24017D01*
G01X24190Y24040D01*
G01X24168Y24086D01*
G01X24168Y24155D01*
G01X24190Y24200D01*
G01X24235Y24244D01*
G01X24305Y24267D01*
G01X24394Y24290D01*
G01X24440Y24313D01*
G01X24464Y24359D01*
G01X24464Y24405D01*
G01X24440Y24450D01*
G01X24372Y24473D01*
G01X24281Y24473D01*
G01X23700Y23573D02*
G01X23700Y23094D01*
G01X23700Y23573D02*
G01X23859Y23573D01*
G01X23927Y23550D01*
G01X23972Y23505D01*
G01X23994Y23459D01*
G01X24018Y23390D01*
G01X24018Y23277D01*
G01X23994Y23209D01*
G01X23972Y23163D01*
G01X23927Y23117D01*
G01X23859Y23094D01*
G01X23700Y23094D01*
G01X24485Y23573D02*
G01X24259Y23094D01*
G01X24168Y23573D02*
G01X24485Y23573D01*
G01X23700Y22573D02*
G01X23700Y22094D01*
G01X23700Y22573D02*
G01X23859Y22573D01*
G01X23927Y22550D01*
G01X23972Y22505D01*
G01X23994Y22459D01*
G01X24018Y22390D01*
G01X24018Y22277D01*
G01X23994Y22209D01*
G01X23972Y22163D01*
G01X23927Y22117D01*
G01X23859Y22094D01*
G01X23700Y22094D01*
G01X24440Y22505D02*
G01X24418Y22550D01*
G01X24350Y22573D01*
G01X24305Y22573D01*
G01X24235Y22550D01*
G01X24190Y22482D01*
G01X24168Y22367D01*
G01X24168Y22255D01*
G01X24190Y22163D01*
G01X24235Y22117D01*
G01X24305Y22094D01*
G01X24327Y22094D01*
G01X24394Y22117D01*
G01X24440Y22163D01*
G01X24464Y22232D01*
G01X24464Y22255D01*
G01X24440Y22323D01*
G01X24394Y22367D01*
G01X24327Y22390D01*
G01X24305Y22390D01*
G01X24235Y22367D01*
G01X24190Y22323D01*
G01X24168Y22255D01*
G01X23700Y21473D02*
G01X23700Y20994D01*
G01X23700Y21473D02*
G01X23859Y21473D01*
G01X23927Y21450D01*
G01X23972Y21405D01*
G01X23994Y21359D01*
G01X24018Y21290D01*
G01X24018Y21177D01*
G01X23994Y21109D01*
G01X23972Y21063D01*
G01X23927Y21017D01*
G01X23859Y20994D01*
G01X23700Y20994D01*
G01X24440Y21473D02*
G01X24214Y21473D01*
G01X24190Y21267D01*
G01X24214Y21290D01*
G01X24281Y21313D01*
G01X24350Y21313D01*
G01X24418Y21290D01*
G01X24464Y21244D01*
G01X24485Y21177D01*
G01X24485Y21132D01*
G01X24464Y21063D01*
G01X24418Y21017D01*
G01X24350Y20994D01*
G01X24281Y20994D01*
G01X24214Y21017D01*
G01X24190Y21040D01*
G01X24168Y21086D01*
G01X23700Y20573D02*
G01X23700Y20094D01*
G01X23700Y20573D02*
G01X23859Y20573D01*
G01X23927Y20550D01*
G01X23972Y20505D01*
G01X23994Y20459D01*
G01X24018Y20390D01*
G01X24018Y20277D01*
G01X23994Y20209D01*
G01X23972Y20163D01*
G01X23927Y20117D01*
G01X23859Y20094D01*
G01X23700Y20094D01*
G01X24305Y20573D02*
G01X24235Y20550D01*
G01X24190Y20482D01*
G01X24168Y20367D01*
G01X24168Y20300D01*
G01X24190Y20186D01*
G01X24235Y20117D01*
G01X24305Y20094D01*
G01X24350Y20094D01*
G01X24418Y20117D01*
G01X24464Y20186D01*
G01X24485Y20300D01*
G01X24485Y20367D01*
G01X24464Y20482D01*
G01X24418Y20550D01*
G01X24350Y20573D01*
G01X24305Y20573D01*
G01X23781Y19473D02*
G01X23600Y18994D01*
G01X23781Y19473D02*
G01X23964Y18994D01*
G01X23668Y19155D02*
G01X23894Y19155D01*
G01X24250Y19473D02*
G01X24181Y19450D01*
G01X24135Y19382D01*
G01X24114Y19267D01*
G01X24114Y19200D01*
G01X24135Y19086D01*
G01X24181Y19017D01*
G01X24250Y18994D01*
G01X24294Y18994D01*
G01X24364Y19017D01*
G01X24409Y19086D01*
G01X24431Y19200D01*
G01X24431Y19267D01*
G01X24409Y19382D01*
G01X24364Y19450D01*
G01X24294Y19473D01*
G01X24250Y19473D01*
G01X23400Y18600D02*
G01X23400Y18121D01*
G01X23400Y18600D02*
G01X23605Y18600D01*
G01X23672Y18577D01*
G01X23694Y18553D01*
G01X23718Y18509D01*
G01X23718Y18463D01*
G01X23694Y18417D01*
G01X23672Y18394D01*
G01X23605Y18371D01*
G01X23400Y18371D01*
G01X23559Y18371D02*
G01X23718Y18121D01*
G01X24185Y18532D02*
G01X24140Y18577D01*
G01X24072Y18600D01*
G01X23981Y18600D01*
G01X23914Y18577D01*
G01X23868Y18532D01*
G01X23868Y18486D01*
G01X23890Y18440D01*
G01X23914Y18417D01*
G01X23959Y18394D01*
G01X24094Y18350D01*
G01X24140Y18327D01*
G01X24164Y18303D01*
G01X24185Y18259D01*
G01X24185Y18190D01*
G01X24140Y18144D01*
G01X24072Y18121D01*
G01X23981Y18121D01*
G01X23914Y18144D01*
G01X23868Y18190D01*
G01X24494Y18600D02*
G01X24494Y18121D01*
G01X24335Y18600D02*
G01X24655Y18600D01*
G01X30000Y25673D02*
G01X30181Y25194D01*
G01X30364Y25673D02*
G01X30181Y25194D01*
G01X30855Y25559D02*
G01X30831Y25605D01*
G01X30785Y25650D01*
G01X30740Y25673D01*
G01X30650Y25673D01*
G01X30605Y25650D01*
G01X30559Y25605D01*
G01X30535Y25559D01*
G01X30514Y25490D01*
G01X30514Y25377D01*
G01X30535Y25309D01*
G01X30559Y25263D01*
G01X30605Y25217D01*
G01X30650Y25194D01*
G01X30740Y25194D01*
G01X30785Y25217D01*
G01X30831Y25263D01*
G01X30855Y25309D01*
G01X31344Y25559D02*
G01X31322Y25605D01*
G01X31277Y25650D01*
G01X31231Y25673D01*
G01X31140Y25673D01*
G01X31094Y25650D01*
G01X31050Y25605D01*
G01X31027Y25559D01*
G01X31005Y25490D01*
G01X31005Y25377D01*
G01X31027Y25309D01*
G01X31050Y25263D01*
G01X31094Y25217D01*
G01X31140Y25194D01*
G01X31231Y25194D01*
G01X31277Y25217D01*
G01X31322Y25263D01*
G01X31344Y25309D01*
G01X30100Y24673D02*
G01X30100Y24194D01*
G01X30100Y24673D02*
G01X30259Y24673D01*
G01X30327Y24650D01*
G01X30372Y24605D01*
G01X30394Y24559D01*
G01X30418Y24490D01*
G01X30418Y24377D01*
G01X30394Y24309D01*
G01X30372Y24263D01*
G01X30327Y24217D01*
G01X30259Y24194D01*
G01X30100Y24194D01*
G01X30681Y24673D02*
G01X30614Y24650D01*
G01X30590Y24605D01*
G01X30590Y24559D01*
G01X30614Y24513D01*
G01X30659Y24490D01*
G01X30750Y24467D01*
G01X30818Y24444D01*
G01X30864Y24400D01*
G01X30885Y24355D01*
G01X30885Y24286D01*
G01X30864Y24240D01*
G01X30840Y24217D01*
G01X30772Y24194D01*
G01X30681Y24194D01*
G01X30614Y24217D01*
G01X30590Y24240D01*
G01X30568Y24286D01*
G01X30568Y24355D01*
G01X30590Y24400D01*
G01X30635Y24444D01*
G01X30705Y24467D01*
G01X30794Y24490D01*
G01X30840Y24513D01*
G01X30864Y24559D01*
G01X30864Y24605D01*
G01X30840Y24650D01*
G01X30772Y24673D01*
G01X30681Y24673D01*
G01X30440Y23459D02*
G01X30418Y23505D01*
G01X30372Y23550D01*
G01X30327Y23573D01*
G01X30235Y23573D01*
G01X30190Y23550D01*
G01X30144Y23505D01*
G01X30122Y23459D01*
G01X30100Y23390D01*
G01X30100Y23277D01*
G01X30122Y23209D01*
G01X30144Y23163D01*
G01X30190Y23117D01*
G01X30235Y23094D01*
G01X30327Y23094D01*
G01X30372Y23117D01*
G01X30418Y23163D01*
G01X30440Y23209D01*
G01X30440Y23277D01*
G01X30327Y23277D02*
G01X30440Y23277D01*
G01X30590Y23573D02*
G01X30590Y23094D01*
G01X30590Y23573D02*
G01X30909Y23094D01*
G01X30909Y23573D02*
G01X30909Y23094D01*
G01X31059Y23573D02*
G01X31059Y23094D01*
G01X31059Y23573D02*
G01X31218Y23573D01*
G01X31285Y23550D01*
G01X31331Y23505D01*
G01X31355Y23459D01*
G01X31377Y23390D01*
G01X31377Y23277D01*
G01X31355Y23209D01*
G01X31331Y23163D01*
G01X31285Y23117D01*
G01X31218Y23094D01*
G01X31059Y23094D01*
G01X30000Y21500D02*
G01X30181Y21021D01*
G01X30364Y21500D02*
G01X30181Y21021D01*
G01X30855Y21386D02*
G01X30831Y21432D01*
G01X30785Y21477D01*
G01X30740Y21500D01*
G01X30650Y21500D01*
G01X30605Y21477D01*
G01X30559Y21432D01*
G01X30535Y21386D01*
G01X30514Y21317D01*
G01X30514Y21203D01*
G01X30535Y21136D01*
G01X30559Y21090D01*
G01X30605Y21044D01*
G01X30650Y21021D01*
G01X30740Y21021D01*
G01X30785Y21044D01*
G01X30831Y21090D01*
G01X30855Y21136D01*
G01X31344Y21386D02*
G01X31322Y21432D01*
G01X31277Y21477D01*
G01X31231Y21500D01*
G01X31140Y21500D01*
G01X31094Y21477D01*
G01X31050Y21432D01*
G01X31027Y21386D01*
G01X31005Y21317D01*
G01X31005Y21203D01*
G01X31027Y21136D01*
G01X31050Y21090D01*
G01X31094Y21044D01*
G01X31140Y21021D01*
G01X31231Y21021D01*
G01X31277Y21044D01*
G01X31322Y21090D01*
G01X31344Y21136D01*
G01X30100Y20500D02*
G01X30100Y20021D01*
G01X30100Y20500D02*
G01X30259Y20500D01*
G01X30327Y20477D01*
G01X30372Y20432D01*
G01X30394Y20386D01*
G01X30418Y20317D01*
G01X30418Y20203D01*
G01X30394Y20136D01*
G01X30372Y20090D01*
G01X30327Y20044D01*
G01X30259Y20021D01*
G01X30100Y20021D01*
G01X30840Y20500D02*
G01X30614Y20500D01*
G01X30590Y20294D01*
G01X30614Y20317D01*
G01X30681Y20340D01*
G01X30750Y20340D01*
G01X30818Y20317D01*
G01X30864Y20271D01*
G01X30885Y20203D01*
G01X30885Y20159D01*
G01X30864Y20090D01*
G01X30818Y20044D01*
G01X30750Y20021D01*
G01X30681Y20021D01*
G01X30614Y20044D01*
G01X30590Y20067D01*
G01X30568Y20113D01*
G01X30100Y19473D02*
G01X30100Y18994D01*
G01X30100Y19473D02*
G01X30259Y19473D01*
G01X30327Y19450D01*
G01X30372Y19405D01*
G01X30394Y19359D01*
G01X30418Y19290D01*
G01X30418Y19177D01*
G01X30394Y19109D01*
G01X30372Y19063D01*
G01X30327Y19017D01*
G01X30259Y18994D01*
G01X30100Y18994D01*
G01X30840Y19405D02*
G01X30818Y19450D01*
G01X30750Y19473D01*
G01X30705Y19473D01*
G01X30635Y19450D01*
G01X30590Y19382D01*
G01X30568Y19267D01*
G01X30568Y19155D01*
G01X30590Y19063D01*
G01X30635Y19017D01*
G01X30705Y18994D01*
G01X30727Y18994D01*
G01X30794Y19017D01*
G01X30840Y19063D01*
G01X30864Y19132D01*
G01X30864Y19155D01*
G01X30840Y19223D01*
G01X30794Y19267D01*
G01X30727Y19290D01*
G01X30705Y19290D01*
G01X30635Y19267D01*
G01X30590Y19223D01*
G01X30568Y19155D01*
G01X30340Y18386D02*
G01X30318Y18432D01*
G01X30272Y18477D01*
G01X30227Y18500D01*
G01X30135Y18500D01*
G01X30090Y18477D01*
G01X30044Y18432D01*
G01X30022Y18386D01*
G01X30000Y18317D01*
G01X30000Y18203D01*
G01X30022Y18136D01*
G01X30044Y18090D01*
G01X30090Y18044D01*
G01X30135Y18021D01*
G01X30227Y18021D01*
G01X30272Y18044D01*
G01X30318Y18090D01*
G01X30340Y18136D01*
G01X30340Y18203D01*
G01X30227Y18203D02*
G01X30340Y18203D01*
G01X30490Y18500D02*
G01X30490Y18021D01*
G01X30490Y18500D02*
G01X30809Y18021D01*
G01X30809Y18500D02*
G01X30809Y18021D01*
G01X30959Y18500D02*
G01X30959Y18021D01*
G01X30959Y18500D02*
G01X31118Y18500D01*
G01X31185Y18477D01*
G01X31231Y18432D01*
G01X31255Y18386D01*
G01X31277Y18317D01*
G01X31277Y18203D01*
G01X31255Y18136D01*
G01X31231Y18090D01*
G01X31185Y18044D01*
G01X31118Y18021D01*
G01X30959Y18021D01*
G01X30000Y16500D02*
G01X30181Y16021D01*
G01X30364Y16500D02*
G01X30181Y16021D01*
G01X30855Y16386D02*
G01X30831Y16432D01*
G01X30785Y16477D01*
G01X30740Y16500D01*
G01X30650Y16500D01*
G01X30605Y16477D01*
G01X30559Y16432D01*
G01X30535Y16386D01*
G01X30514Y16317D01*
G01X30514Y16203D01*
G01X30535Y16136D01*
G01X30559Y16090D01*
G01X30605Y16044D01*
G01X30650Y16021D01*
G01X30740Y16021D01*
G01X30785Y16044D01*
G01X30831Y16090D01*
G01X30855Y16136D01*
G01X31344Y16386D02*
G01X31322Y16432D01*
G01X31277Y16477D01*
G01X31231Y16500D01*
G01X31140Y16500D01*
G01X31094Y16477D01*
G01X31050Y16432D01*
G01X31027Y16386D01*
G01X31005Y16317D01*
G01X31005Y16203D01*
G01X31027Y16136D01*
G01X31050Y16090D01*
G01X31094Y16044D01*
G01X31140Y16021D01*
G01X31231Y16021D01*
G01X31277Y16044D01*
G01X31322Y16090D01*
G01X31344Y16136D01*
G01X30100Y15500D02*
G01X30100Y15021D01*
G01X30100Y15500D02*
G01X30259Y15500D01*
G01X30327Y15476D01*
G01X30372Y15432D01*
G01X30394Y15386D01*
G01X30418Y15317D01*
G01X30418Y15203D01*
G01X30394Y15136D01*
G01X30372Y15090D01*
G01X30327Y15044D01*
G01X30259Y15021D01*
G01X30100Y15021D01*
G01X30885Y15500D02*
G01X30659Y15021D01*
G01X30568Y15500D02*
G01X30885Y15500D01*
G01X30340Y14359D02*
G01X30318Y14405D01*
G01X30272Y14450D01*
G01X30227Y14473D01*
G01X30135Y14473D01*
G01X30090Y14450D01*
G01X30044Y14405D01*
G01X30022Y14359D01*
G01X30000Y14290D01*
G01X30000Y14176D01*
G01X30022Y14109D01*
G01X30044Y14063D01*
G01X30090Y14017D01*
G01X30135Y13994D01*
G01X30227Y13994D01*
G01X30272Y14017D01*
G01X30318Y14063D01*
G01X30340Y14109D01*
G01X30340Y14176D01*
G01X30227Y14176D02*
G01X30340Y14176D01*
G01X30490Y14473D02*
G01X30490Y13994D01*
G01X30490Y14473D02*
G01X30809Y13994D01*
G01X30809Y14473D02*
G01X30809Y13994D01*
G01X30959Y14473D02*
G01X30959Y13994D01*
G01X30959Y14473D02*
G01X31118Y14473D01*
G01X31185Y14450D01*
G01X31231Y14405D01*
G01X31255Y14359D01*
G01X31277Y14290D01*
G01X31277Y14176D01*
G01X31255Y14109D01*
G01X31231Y14063D01*
G01X31185Y14017D01*
G01X31118Y13994D01*
G01X30959Y13994D01*
G01X12599Y29154D02*
G01X13077Y29336D01*
G01X12599Y29518D02*
G01X13077Y29336D01*
G01X12713Y30009D02*
G01X12667Y29986D01*
G01X12622Y29940D01*
G01X12599Y29895D01*
G01X12599Y29804D01*
G01X12622Y29759D01*
G01X12667Y29713D01*
G01X12713Y29690D01*
G01X12781Y29668D01*
G01X12895Y29668D01*
G01X12963Y29690D01*
G01X13008Y29713D01*
G01X13054Y29759D01*
G01X13077Y29804D01*
G01X13077Y29895D01*
G01X13054Y29940D01*
G01X13008Y29986D01*
G01X12963Y30009D01*
G01X12713Y30499D02*
G01X12667Y30477D01*
G01X12622Y30431D01*
G01X12599Y30386D01*
G01X12599Y30295D01*
G01X12622Y30249D01*
G01X12667Y30204D01*
G01X12713Y30181D01*
G01X12781Y30159D01*
G01X12895Y30159D01*
G01X12963Y30181D01*
G01X13008Y30204D01*
G01X13054Y30249D01*
G01X13077Y30295D01*
G01X13077Y30386D01*
G01X13054Y30431D01*
G01X13008Y30477D01*
G01X12963Y30499D01*
G01X13713Y29563D02*
G01X13667Y29540D01*
G01X13622Y29495D01*
G01X13599Y29449D01*
G01X13599Y29358D01*
G01X13622Y29313D01*
G01X13667Y29267D01*
G01X13713Y29245D01*
G01X13781Y29222D01*
G01X13895Y29222D01*
G01X13963Y29245D01*
G01X14008Y29267D01*
G01X14054Y29313D01*
G01X14077Y29358D01*
G01X14077Y29449D01*
G01X14054Y29495D01*
G01X14008Y29540D01*
G01X13963Y29563D01*
G01X13895Y29563D01*
G01X13895Y29449D02*
G01X13895Y29563D01*
G01X13599Y29713D02*
G01X14077Y29713D01*
G01X13599Y29713D02*
G01X14077Y30031D01*
G01X13599Y30031D02*
G01X14077Y30031D01*
G01X13599Y30181D02*
G01X14077Y30181D01*
G01X13599Y30181D02*
G01X13599Y30340D01*
G01X13622Y30408D01*
G01X13667Y30454D01*
G01X13713Y30477D01*
G01X13781Y30499D01*
G01X13895Y30499D01*
G01X13963Y30477D01*
G01X14008Y30454D01*
G01X14054Y30408D01*
G01X14077Y30340D01*
G01X14077Y30181D01*
G01X14567Y29586D02*
G01X14522Y29541D01*
G01X14499Y29473D01*
G01X14499Y29382D01*
G01X14522Y29313D01*
G01X14567Y29268D01*
G01X14613Y29268D01*
G01X14658Y29291D01*
G01X14681Y29313D01*
G01X14704Y29359D01*
G01X14749Y29495D01*
G01X14772Y29541D01*
G01X14795Y29563D01*
G01X14840Y29586D01*
G01X14908Y29586D01*
G01X14954Y29541D01*
G01X14977Y29473D01*
G01X14977Y29382D01*
G01X14954Y29313D01*
G01X14908Y29268D01*
G01X14613Y30077D02*
G01X14567Y30054D01*
G01X14522Y30009D01*
G01X14499Y29963D01*
G01X14499Y29873D01*
G01X14522Y29827D01*
G01X14567Y29782D01*
G01X14613Y29759D01*
G01X14681Y29736D01*
G01X14795Y29736D01*
G01X14863Y29759D01*
G01X14908Y29782D01*
G01X14954Y29827D01*
G01X14977Y29873D01*
G01X14977Y29963D01*
G01X14954Y30009D01*
G01X14908Y30054D01*
G01X14863Y30077D01*
G01X14499Y30227D02*
G01X14977Y30227D01*
G01X14977Y30227D02*
G01X14977Y30500D01*
G01X15567Y29517D02*
G01X15522Y29472D01*
G01X15499Y29404D01*
G01X15499Y29313D01*
G01X15522Y29244D01*
G01X15567Y29199D01*
G01X15613Y29199D01*
G01X15658Y29222D01*
G01X15681Y29244D01*
G01X15704Y29290D01*
G01X15749Y29426D01*
G01X15772Y29472D01*
G01X15795Y29494D01*
G01X15840Y29517D01*
G01X15908Y29517D01*
G01X15954Y29472D01*
G01X15977Y29404D01*
G01X15977Y29313D01*
G01X15954Y29244D01*
G01X15908Y29199D01*
G01X15499Y29667D02*
G01X15977Y29667D01*
G01X15499Y29667D02*
G01X15499Y29826D01*
G01X15522Y29894D01*
G01X15567Y29940D01*
G01X15613Y29963D01*
G01X15681Y29985D01*
G01X15795Y29985D01*
G01X15863Y29963D01*
G01X15908Y29940D01*
G01X15954Y29894D01*
G01X15977Y29826D01*
G01X15977Y29667D01*
G01X15499Y30317D02*
G01X15977Y30135D01*
G01X15499Y30317D02*
G01X15977Y30499D01*
G01X15817Y30204D02*
G01X15817Y30431D01*
G01X23799Y29154D02*
G01X24277Y29336D01*
G01X23799Y29518D02*
G01X24277Y29336D01*
G01X23913Y30009D02*
G01X23867Y29986D01*
G01X23822Y29940D01*
G01X23799Y29895D01*
G01X23799Y29804D01*
G01X23822Y29759D01*
G01X23867Y29713D01*
G01X23913Y29690D01*
G01X23981Y29668D01*
G01X24095Y29668D01*
G01X24163Y29690D01*
G01X24208Y29713D01*
G01X24254Y29759D01*
G01X24277Y29804D01*
G01X24277Y29895D01*
G01X24254Y29940D01*
G01X24208Y29986D01*
G01X24163Y30009D01*
G01X23913Y30499D02*
G01X23867Y30477D01*
G01X23822Y30431D01*
G01X23799Y30386D01*
G01X23799Y30295D01*
G01X23822Y30249D01*
G01X23867Y30204D01*
G01X23913Y30181D01*
G01X23981Y30159D01*
G01X24095Y30159D01*
G01X24163Y30181D01*
G01X24208Y30204D01*
G01X24254Y30249D01*
G01X24277Y30295D01*
G01X24277Y30386D01*
G01X24254Y30431D01*
G01X24208Y30477D01*
G01X24163Y30499D01*
G01X24826Y29499D02*
G01X25304Y29499D01*
G01X24826Y29499D02*
G01X24826Y29658D01*
G01X24849Y29726D01*
G01X24894Y29772D01*
G01X24940Y29794D01*
G01X25008Y29817D01*
G01X25122Y29817D01*
G01X25190Y29794D01*
G01X25235Y29772D01*
G01X25281Y29726D01*
G01X25304Y29658D01*
G01X25304Y29499D01*
G01X24826Y30013D02*
G01X24826Y30263D01*
G01X25008Y30126D01*
G01X25008Y30194D01*
G01X25031Y30240D01*
G01X25054Y30263D01*
G01X25122Y30285D01*
G01X25167Y30285D01*
G01X25235Y30263D01*
G01X25281Y30217D01*
G01X25304Y30149D01*
G01X25304Y30081D01*
G01X25281Y30013D01*
G01X25258Y29990D01*
G01X25213Y29967D01*
G01X25826Y29499D02*
G01X26304Y29499D01*
G01X25826Y29499D02*
G01X25826Y29658D01*
G01X25849Y29726D01*
G01X25894Y29772D01*
G01X25940Y29794D01*
G01X26008Y29817D01*
G01X26122Y29817D01*
G01X26190Y29794D01*
G01X26235Y29772D01*
G01X26281Y29726D01*
G01X26304Y29658D01*
G01X26304Y29499D01*
G01X25826Y30194D02*
G01X26144Y29967D01*
G01X26144Y30308D01*
G01X25826Y30194D02*
G01X26304Y30194D01*
G01X26913Y29563D02*
G01X26867Y29540D01*
G01X26822Y29495D01*
G01X26799Y29449D01*
G01X26799Y29358D01*
G01X26822Y29313D01*
G01X26867Y29267D01*
G01X26913Y29245D01*
G01X26981Y29222D01*
G01X27095Y29222D01*
G01X27163Y29245D01*
G01X27208Y29267D01*
G01X27254Y29313D01*
G01X27277Y29358D01*
G01X27277Y29449D01*
G01X27254Y29495D01*
G01X27208Y29540D01*
G01X27163Y29563D01*
G01X27095Y29563D01*
G01X27095Y29449D02*
G01X27095Y29563D01*
G01X26799Y29713D02*
G01X27277Y29713D01*
G01X26799Y29713D02*
G01X27277Y30031D01*
G01X26799Y30031D02*
G01X27277Y30031D01*
G01X26799Y30181D02*
G01X27277Y30181D01*
G01X26799Y30181D02*
G01X26799Y30340D01*
G01X26822Y30408D01*
G01X26867Y30454D01*
G01X26913Y30477D01*
G01X26981Y30499D01*
G01X27095Y30499D01*
G01X27163Y30477D01*
G01X27208Y30454D01*
G01X27254Y30408D01*
G01X27277Y30340D01*
G01X27277Y30181D01*
G01X4399Y30904D02*
G01X4422Y30859D01*
G01X4467Y30813D01*
G01X4513Y30791D01*
G01X4581Y30768D01*
G01X4695Y30768D01*
G01X4763Y30791D01*
G01X4808Y30813D01*
G01X4854Y30859D01*
G01X4877Y30904D01*
G01X4877Y30995D01*
G01X4854Y31041D01*
G01X4808Y31086D01*
G01X4763Y31109D01*
G01X4695Y31132D01*
G01X4581Y31132D01*
G01X4513Y31109D01*
G01X4467Y31086D01*
G01X4422Y31041D01*
G01X4399Y30995D01*
G01X4399Y30904D01*
G01X4399Y31282D02*
G01X4877Y31282D01*
G01X4399Y31282D02*
G01X4877Y31600D01*
G01X4399Y31600D02*
G01X4877Y31600D01*
G01X9800Y19600D02*
G01X9981Y19121D01*
G01X10164Y19600D02*
G01X9981Y19121D01*
G01X10655Y19486D02*
G01X10631Y19532D01*
G01X10585Y19577D01*
G01X10540Y19600D01*
G01X10450Y19600D01*
G01X10405Y19577D01*
G01X10359Y19532D01*
G01X10335Y19486D01*
G01X10314Y19417D01*
G01X10314Y19303D01*
G01X10335Y19236D01*
G01X10359Y19190D01*
G01X10405Y19144D01*
G01X10450Y19121D01*
G01X10540Y19121D01*
G01X10585Y19144D01*
G01X10631Y19190D01*
G01X10655Y19236D01*
G01X11144Y19486D02*
G01X11122Y19532D01*
G01X11077Y19577D01*
G01X11031Y19600D01*
G01X10940Y19600D01*
G01X10894Y19577D01*
G01X10850Y19532D01*
G01X10827Y19486D01*
G01X10805Y19417D01*
G01X10805Y19303D01*
G01X10827Y19236D01*
G01X10850Y19190D01*
G01X10894Y19144D01*
G01X10940Y19121D01*
G01X11031Y19121D01*
G01X11077Y19144D01*
G01X11122Y19190D01*
G01X11144Y19236D01*
G01X10240Y18486D02*
G01X10218Y18532D01*
G01X10172Y18577D01*
G01X10127Y18600D01*
G01X10035Y18600D01*
G01X9990Y18577D01*
G01X9944Y18532D01*
G01X9922Y18486D01*
G01X9900Y18417D01*
G01X9900Y18303D01*
G01X9922Y18236D01*
G01X9944Y18190D01*
G01X9990Y18144D01*
G01X10035Y18121D01*
G01X10127Y18121D01*
G01X10172Y18144D01*
G01X10218Y18190D01*
G01X10240Y18236D01*
G01X10240Y18303D01*
G01X10127Y18303D02*
G01X10240Y18303D01*
G01X10390Y18600D02*
G01X10390Y18121D01*
G01X10390Y18600D02*
G01X10709Y18121D01*
G01X10709Y18600D02*
G01X10709Y18121D01*
G01X10859Y18600D02*
G01X10859Y18121D01*
G01X10859Y18600D02*
G01X11018Y18600D01*
G01X11085Y18577D01*
G01X11131Y18532D01*
G01X11155Y18486D01*
G01X11177Y18417D01*
G01X11177Y18303D01*
G01X11155Y18236D01*
G01X11131Y18190D01*
G01X11085Y18144D01*
G01X11018Y18121D01*
G01X10859Y18121D01*
G01X10218Y17532D02*
G01X10172Y17577D01*
G01X10105Y17600D01*
G01X10014Y17600D01*
G01X9944Y17577D01*
G01X9900Y17532D01*
G01X9900Y17486D01*
G01X9922Y17440D01*
G01X9944Y17417D01*
G01X9990Y17394D01*
G01X10127Y17350D01*
G01X10172Y17327D01*
G01X10194Y17303D01*
G01X10218Y17259D01*
G01X10218Y17190D01*
G01X10172Y17144D01*
G01X10105Y17121D01*
G01X10014Y17121D01*
G01X9944Y17144D01*
G01X9900Y17190D01*
G01X10709Y17486D02*
G01X10685Y17532D01*
G01X10640Y17577D01*
G01X10594Y17600D01*
G01X10505Y17600D01*
G01X10459Y17577D01*
G01X10414Y17532D01*
G01X10390Y17486D01*
G01X10368Y17417D01*
G01X10368Y17303D01*
G01X10390Y17236D01*
G01X10414Y17190D01*
G01X10459Y17144D01*
G01X10505Y17121D01*
G01X10594Y17121D01*
G01X10640Y17144D01*
G01X10685Y17190D01*
G01X10709Y17236D01*
G01X10859Y17600D02*
G01X10859Y17121D01*
G01X10859Y17121D02*
G01X11131Y17121D01*
G01X10218Y16532D02*
G01X10172Y16577D01*
G01X10105Y16600D01*
G01X10014Y16600D01*
G01X9944Y16577D01*
G01X9900Y16532D01*
G01X9900Y16486D01*
G01X9922Y16440D01*
G01X9944Y16417D01*
G01X9990Y16394D01*
G01X10127Y16350D01*
G01X10172Y16326D01*
G01X10194Y16303D01*
G01X10218Y16259D01*
G01X10218Y16190D01*
G01X10172Y16144D01*
G01X10105Y16121D01*
G01X10014Y16121D01*
G01X9944Y16144D01*
G01X9900Y16190D01*
G01X10368Y16600D02*
G01X10368Y16121D01*
G01X10368Y16600D02*
G01X10527Y16600D01*
G01X10594Y16577D01*
G01X10640Y16532D01*
G01X10664Y16486D01*
G01X10685Y16417D01*
G01X10685Y16303D01*
G01X10664Y16236D01*
G01X10640Y16190D01*
G01X10594Y16144D01*
G01X10527Y16121D01*
G01X10368Y16121D01*
G01X11018Y16600D02*
G01X10835Y16121D01*
G01X11018Y16600D02*
G01X11200Y16121D01*
G01X10905Y16282D02*
G01X11131Y16282D01*
G01X10240Y15486D02*
G01X10218Y15532D01*
G01X10172Y15576D01*
G01X10127Y15600D01*
G01X10035Y15600D01*
G01X9990Y15576D01*
G01X9944Y15532D01*
G01X9922Y15486D01*
G01X9900Y15417D01*
G01X9900Y15303D01*
G01X9922Y15236D01*
G01X9944Y15190D01*
G01X9990Y15144D01*
G01X10035Y15121D01*
G01X10127Y15121D01*
G01X10172Y15144D01*
G01X10218Y15190D01*
G01X10240Y15236D01*
G01X10709Y15532D02*
G01X10664Y15576D01*
G01X10594Y15600D01*
G01X10505Y15600D01*
G01X10435Y15576D01*
G01X10390Y15532D01*
G01X10390Y15486D01*
G01X10414Y15440D01*
G01X10435Y15417D01*
G01X10481Y15394D01*
G01X10618Y15350D01*
G01X10664Y15326D01*
G01X10685Y15303D01*
G01X10709Y15259D01*
G01X10709Y15190D01*
G01X10664Y15144D01*
G01X10594Y15121D01*
G01X10505Y15121D01*
G01X10435Y15144D01*
G01X10390Y15190D01*
G01X10859Y15600D02*
G01X10859Y15121D01*
G01X10859Y15600D02*
G01X11064Y15600D01*
G01X11131Y15576D01*
G01X11155Y15553D01*
G01X11177Y15509D01*
G01X11177Y15463D01*
G01X11155Y15417D01*
G01X11131Y15394D01*
G01X11064Y15371D01*
G01X10859Y15371D02*
G01X11064Y15371D01*
G01X11131Y15350D01*
G01X11155Y15326D01*
G01X11177Y15282D01*
G01X11177Y15213D01*
G01X11155Y15167D01*
G01X11131Y15144D01*
G01X11064Y15121D01*
G01X10859Y15121D01*
G01X10218Y14532D02*
G01X10172Y14576D01*
G01X10105Y14600D01*
G01X10014Y14600D01*
G01X9944Y14576D01*
G01X9900Y14532D01*
G01X9900Y14486D01*
G01X9922Y14440D01*
G01X9944Y14417D01*
G01X9990Y14394D01*
G01X10127Y14350D01*
G01X10172Y14326D01*
G01X10194Y14303D01*
G01X10218Y14259D01*
G01X10218Y14190D01*
G01X10172Y14144D01*
G01X10105Y14121D01*
G01X10014Y14121D01*
G01X9944Y14144D01*
G01X9900Y14190D01*
G01X10368Y14600D02*
G01X10368Y14121D01*
G01X10368Y14600D02*
G01X10527Y14600D01*
G01X10594Y14576D01*
G01X10640Y14532D01*
G01X10664Y14486D01*
G01X10685Y14417D01*
G01X10685Y14303D01*
G01X10664Y14236D01*
G01X10640Y14190D01*
G01X10594Y14144D01*
G01X10527Y14121D01*
G01X10368Y14121D01*
G01X10972Y14600D02*
G01X10927Y14576D01*
G01X10881Y14532D01*
G01X10859Y14486D01*
G01X10835Y14417D01*
G01X10835Y14303D01*
G01X10859Y14236D01*
G01X10881Y14190D01*
G01X10927Y14144D01*
G01X10972Y14121D01*
G01X11064Y14121D01*
G01X11109Y14144D01*
G01X11155Y14190D01*
G01X11177Y14236D01*
G01X11200Y14303D01*
G01X11200Y14417D01*
G01X11177Y14486D01*
G01X11155Y14532D01*
G01X11109Y14576D01*
G01X11064Y14600D01*
G01X10972Y14600D01*
G01X12291Y14459D02*
G01X12769Y14459D01*
G01X12291Y14459D02*
G01X12291Y14664D01*
G01X12314Y14732D01*
G01X12337Y14754D01*
G01X12382Y14777D01*
G01X12428Y14777D01*
G01X12473Y14754D01*
G01X12496Y14732D01*
G01X12519Y14664D01*
G01X12519Y14459D02*
G01X12519Y14664D01*
G01X12541Y14732D01*
G01X12564Y14754D01*
G01X12609Y14777D01*
G01X12678Y14777D01*
G01X12723Y14754D01*
G01X12746Y14732D01*
G01X12769Y14664D01*
G01X12769Y14459D01*
G01X12291Y14927D02*
G01X12769Y14927D01*
G01X12291Y14927D02*
G01X12769Y15109D01*
G01X12291Y15291D02*
G01X12769Y15109D01*
G01X12291Y15291D02*
G01X12769Y15291D01*
G01X12291Y15441D02*
G01X12769Y15441D01*
G01X12291Y15441D02*
G01X12291Y15645D01*
G01X12314Y15714D01*
G01X12337Y15736D01*
G01X12382Y15759D01*
G01X12450Y15759D01*
G01X12496Y15736D01*
G01X12519Y15714D01*
G01X12541Y15645D01*
G01X12541Y15441D01*
G01X12200Y16318D02*
G01X12928Y15909D01*
G01X12291Y16468D02*
G01X12769Y16468D01*
G01X12291Y16468D02*
G01X12291Y16673D01*
G01X12314Y16741D01*
G01X12337Y16764D01*
G01X12382Y16786D01*
G01X12428Y16786D01*
G01X12473Y16764D01*
G01X12496Y16741D01*
G01X12519Y16673D01*
G01X12519Y16468D02*
G01X12519Y16673D01*
G01X12541Y16741D01*
G01X12564Y16764D01*
G01X12609Y16786D01*
G01X12678Y16786D01*
G01X12723Y16764D01*
G01X12746Y16741D01*
G01X12769Y16673D01*
G01X12769Y16468D01*
G01X12291Y16936D02*
G01X12769Y16936D01*
G01X12291Y16936D02*
G01X12769Y17118D01*
G01X12291Y17300D02*
G01X12769Y17118D01*
G01X12291Y17300D02*
G01X12769Y17300D01*
G01X12291Y17450D02*
G01X12769Y17450D01*
G01X12291Y17450D02*
G01X12291Y17745D01*
G01X12519Y17450D02*
G01X12519Y17632D01*
G01X12769Y17450D02*
G01X12769Y17745D01*
G01X12405Y18268D02*
G01X12382Y18268D01*
G01X12337Y18291D01*
G01X12314Y18314D01*
G01X12291Y18359D01*
G01X12291Y18450D01*
G01X12314Y18495D01*
G01X12337Y18518D01*
G01X12382Y18541D01*
G01X12428Y18541D01*
G01X12473Y18518D01*
G01X12541Y18473D01*
G01X12769Y18245D01*
G01X12769Y18564D01*
G01X12291Y18827D02*
G01X12314Y18759D01*
G01X12359Y18736D01*
G01X12405Y18736D01*
G01X12450Y18759D01*
G01X12473Y18804D01*
G01X12496Y18895D01*
G01X12519Y18964D01*
G01X12564Y19009D01*
G01X12609Y19032D01*
G01X12678Y19032D01*
G01X12723Y19009D01*
G01X12746Y18986D01*
G01X12769Y18918D01*
G01X12769Y18827D01*
G01X12746Y18759D01*
G01X12723Y18736D01*
G01X12678Y18714D01*
G01X12609Y18714D01*
G01X12564Y18736D01*
G01X12519Y18782D01*
G01X12496Y18850D01*
G01X12473Y18941D01*
G01X12450Y18986D01*
G01X12405Y19009D01*
G01X12359Y19009D01*
G01X12314Y18986D01*
G01X12291Y18918D01*
G01X12291Y18827D01*
G01X12291Y19318D02*
G01X12314Y19250D01*
G01X12382Y19204D01*
G01X12496Y19182D01*
G01X12564Y19182D01*
G01X12678Y19204D01*
G01X12746Y19250D01*
G01X12769Y19318D01*
G01X12769Y19364D01*
G01X12746Y19432D01*
G01X12678Y19477D01*
G01X12564Y19500D01*
G01X12496Y19500D01*
G01X12382Y19477D01*
G01X12314Y19432D01*
G01X12291Y19364D01*
G01X12291Y19318D01*
G01X5527Y18100D02*
G01X5527Y17446D01*
G01X5200Y17773D02*
G01X5855Y17773D01*
G01X5200Y15700D02*
G01X5855Y15700D01*
G01X926Y6826D02*
G01X926Y6173D01*
G01X600Y6500D02*
G01X1255Y6500D01*
G01X32300Y6700D02*
G01X32955Y6700D01*
G54D10*
G01X8844Y1371D02*
G01X8781Y1435D01*
G01X8685Y1467D01*
G01X8559Y1467D01*
G01X8464Y1435D01*
G01X8400Y1371D01*
G01X8400Y1308D01*
G01X8431Y1244D01*
G01X8464Y1212D01*
G01X8527Y1180D01*
G01X8718Y1117D01*
G01X8781Y1085D01*
G01X8814Y1053D01*
G01X8844Y990D01*
G01X8844Y894D01*
G01X8781Y830D01*
G01X8685Y799D01*
G01X8559Y799D01*
G01X8464Y830D01*
G01X8400Y894D01*
G01X9214Y1244D02*
G01X9151Y1212D01*
G01X9086Y1149D01*
G01X9055Y1053D01*
G01X9055Y990D01*
G01X9086Y894D01*
G01X9151Y830D01*
G01X9214Y799D01*
G01X9310Y799D01*
G01X9373Y830D01*
G01X9436Y894D01*
G01X9468Y990D01*
G01X9468Y1053D01*
G01X9436Y1149D01*
G01X9373Y1212D01*
G01X9310Y1244D01*
G01X9214Y1244D01*
G01X9678Y1467D02*
G01X9678Y799D01*
G01X10271Y1244D02*
G01X10271Y799D01*
G01X10271Y1149D02*
G01X10206Y1212D01*
G01X10143Y1244D01*
G01X10047Y1244D01*
G01X9985Y1212D01*
G01X9921Y1149D01*
G01X9889Y1053D01*
G01X9889Y990D01*
G01X9921Y894D01*
G01X9985Y830D01*
G01X10047Y799D01*
G01X10143Y799D01*
G01X10206Y830D01*
G01X10271Y894D01*
G01X10481Y1244D02*
G01X10481Y799D01*
G01X10481Y1053D02*
G01X10513Y1149D01*
G01X10576Y1212D01*
G01X10639Y1244D01*
G01X10735Y1244D01*
G01X11435Y1467D02*
G01X11594Y799D01*
G01X11753Y1467D02*
G01X11594Y799D01*
G01X11753Y1467D02*
G01X11913Y799D01*
G01X12072Y1467D02*
G01X11913Y799D01*
G01X12281Y1467D02*
G01X12314Y1435D01*
G01X12344Y1467D01*
G01X12314Y1499D01*
G01X12281Y1467D01*
G01X12314Y1244D02*
G01X12314Y799D01*
G01X12555Y1467D02*
G01X12555Y799D01*
G01X12555Y1467D02*
G01X12968Y1467D01*
G01X12555Y1149D02*
G01X12810Y1149D01*
G01X13178Y1467D02*
G01X13210Y1435D01*
G01X13243Y1467D01*
G01X13210Y1499D01*
G01X13178Y1467D01*
G01X13210Y1244D02*
G01X13210Y799D01*
G01X13943Y1467D02*
G01X14102Y799D01*
G01X14260Y1467D02*
G01X14102Y799D01*
G01X14260Y1467D02*
G01X14419Y799D01*
G01X14578Y1467D02*
G01X14419Y799D01*
G01X14789Y1053D02*
G01X15171Y1053D01*
G01X15171Y1117D01*
G01X15139Y1180D01*
G01X15106Y1212D01*
G01X15043Y1244D01*
G01X14947Y1244D01*
G01X14885Y1212D01*
G01X14821Y1149D01*
G01X14789Y1053D01*
G01X14789Y990D01*
G01X14821Y894D01*
G01X14885Y830D01*
G01X14947Y799D01*
G01X15043Y799D01*
G01X15106Y830D01*
G01X15171Y894D01*
G01X15763Y1244D02*
G01X15763Y799D01*
G01X15763Y1149D02*
G01X15698Y1212D01*
G01X15635Y1244D01*
G01X15539Y1244D01*
G01X15476Y1212D01*
G01X15413Y1149D01*
G01X15381Y1053D01*
G01X15381Y990D01*
G01X15413Y894D01*
G01X15476Y830D01*
G01X15539Y799D01*
G01X15635Y799D01*
G01X15698Y830D01*
G01X15763Y894D01*
G01X16068Y1467D02*
G01X16068Y926D01*
G01X16100Y830D01*
G01X16164Y799D01*
G01X16227Y799D01*
G01X15972Y1244D02*
G01X16194Y1244D01*
G01X16436Y1467D02*
G01X16436Y799D01*
G01X16436Y1117D02*
G01X16532Y1212D01*
G01X16596Y1244D01*
G01X16692Y1244D01*
G01X16755Y1212D01*
G01X16786Y1117D01*
G01X16786Y799D01*
G01X16997Y1053D02*
G01X17378Y1053D01*
G01X17378Y1117D01*
G01X17347Y1180D01*
G01X17314Y1212D01*
G01X17252Y1244D01*
G01X17156Y1244D01*
G01X17093Y1212D01*
G01X17028Y1149D01*
G01X16997Y1053D01*
G01X16997Y990D01*
G01X17028Y894D01*
G01X17093Y830D01*
G01X17156Y799D01*
G01X17252Y799D01*
G01X17314Y830D01*
G01X17378Y894D01*
G01X17589Y1244D02*
G01X17589Y799D01*
G01X17589Y1053D02*
G01X17621Y1149D01*
G01X17685Y1212D01*
G01X17747Y1244D01*
G01X17843Y1244D01*
G01X18989Y1371D02*
G01X18925Y1435D01*
G01X18830Y1467D01*
G01X18702Y1467D01*
G01X18606Y1435D01*
G01X18543Y1371D01*
G01X18543Y1308D01*
G01X18575Y1244D01*
G01X18606Y1212D01*
G01X18671Y1180D01*
G01X18861Y1117D01*
G01X18925Y1085D01*
G01X18956Y1053D01*
G01X18989Y990D01*
G01X18989Y894D01*
G01X18925Y830D01*
G01X18830Y799D01*
G01X18702Y799D01*
G01X18606Y830D01*
G01X18543Y894D01*
G01X19294Y1467D02*
G01X19294Y926D01*
G01X19326Y830D01*
G01X19389Y799D01*
G01X19453Y799D01*
G01X19198Y1244D02*
G01X19422Y1244D01*
G01X20044Y1244D02*
G01X20044Y799D01*
G01X20044Y1149D02*
G01X19981Y1212D01*
G01X19918Y1244D01*
G01X19822Y1244D01*
G01X19759Y1212D01*
G01X19694Y1149D01*
G01X19664Y1053D01*
G01X19664Y990D01*
G01X19694Y894D01*
G01X19759Y830D01*
G01X19822Y799D01*
G01X19918Y799D01*
G01X19981Y830D01*
G01X20044Y894D01*
G01X20351Y1467D02*
G01X20351Y926D01*
G01X20382Y830D01*
G01X20446Y799D01*
G01X20510Y799D01*
G01X20255Y1244D02*
G01X20477Y1244D01*
G01X20719Y1467D02*
G01X20752Y1435D01*
G01X20784Y1467D01*
G01X20752Y1499D01*
G01X20719Y1467D01*
G01X20752Y1244D02*
G01X20752Y799D01*
G01X21152Y1244D02*
G01X21089Y1212D01*
G01X21025Y1149D01*
G01X20993Y1053D01*
G01X20993Y990D01*
G01X21025Y894D01*
G01X21089Y830D01*
G01X21152Y799D01*
G01X21247Y799D01*
G01X21311Y830D01*
G01X21375Y894D01*
G01X21406Y990D01*
G01X21406Y1053D01*
G01X21375Y1149D01*
G01X21311Y1212D01*
G01X21247Y1244D01*
G01X21152Y1244D01*
G01X21617Y1244D02*
G01X21617Y799D01*
G01X21617Y1117D02*
G01X21713Y1212D01*
G01X21776Y1244D01*
G01X21872Y1244D01*
G01X21935Y1212D01*
G01X21967Y1117D01*
G01X21967Y799D01*
G01X22667Y1467D02*
G01X22922Y799D01*
G01X23176Y1467D02*
G01X22922Y799D01*
G01X23418Y1308D02*
G01X23418Y1340D01*
G01X23450Y1403D01*
G01X23481Y1435D01*
G01X23544Y1467D01*
G01X23672Y1467D01*
G01X23735Y1435D01*
G01X23768Y1403D01*
G01X23800Y1340D01*
G01X23800Y1276D01*
G01X23768Y1212D01*
G01X23705Y1117D01*
G01X23385Y799D01*
G01X23831Y799D01*
G01X24073Y958D02*
G01X24042Y926D01*
G01X24073Y894D01*
G01X24105Y926D01*
G01X24073Y958D01*
G01X24506Y1467D02*
G01X24410Y1435D01*
G01X24347Y1340D01*
G01X24314Y1180D01*
G01X24314Y1085D01*
G01X24347Y926D01*
G01X24410Y830D01*
G01X24506Y799D01*
G01X24569Y799D01*
G01X24664Y830D01*
G01X24728Y926D01*
G01X24760Y1085D01*
G01X24760Y1180D01*
G01X24728Y1340D01*
G01X24664Y1435D01*
G01X24569Y1467D01*
G01X24506Y1467D01*
G54D23*
G01X18022Y13886D02*
G01X18022Y13909D01*
G01X18044Y13953D01*
G01X18068Y13976D01*
G01X18114Y14000D01*
G01X18205Y14000D01*
G01X18250Y13976D01*
G01X18272Y13953D01*
G01X18294Y13909D01*
G01X18294Y13863D01*
G01X18272Y13817D01*
G01X18227Y13750D01*
G01X18000Y13521D01*
G01X18318Y13521D01*
G01X18490Y13886D02*
G01X18490Y13909D01*
G01X18514Y13953D01*
G01X18535Y13976D01*
G01X18581Y14000D01*
G01X18672Y14000D01*
G01X18718Y13976D01*
G01X18740Y13953D01*
G01X18764Y13909D01*
G01X18764Y13863D01*
G01X18740Y13817D01*
G01X18694Y13750D01*
G01X18468Y13521D01*
G01X18785Y13521D01*
G01X19072Y14000D02*
G01X19005Y13976D01*
G01X18959Y13909D01*
G01X18935Y13794D01*
G01X18935Y13726D01*
G01X18959Y13613D01*
G01X19005Y13544D01*
G01X19072Y13521D01*
G01X19118Y13521D01*
G01X19185Y13544D01*
G01X19231Y13613D01*
G01X19255Y13726D01*
G01X19255Y13794D01*
G01X19231Y13909D01*
G01X19185Y13976D01*
G01X19118Y14000D01*
G01X19072Y14000D01*
G01X19405Y14000D02*
G01X19405Y13521D01*
G01X19722Y14000D02*
G01X19405Y13682D01*
G01X19518Y13794D02*
G01X19722Y13521D01*
G54D10*
G01X6359Y25600D02*
G01X6359Y25122D01*
G01X6200Y25600D02*
G01X6518Y25600D01*
G01X6668Y25600D02*
G01X6668Y25122D01*
G01X6668Y25600D02*
G01X6872Y25600D01*
G01X6940Y25577D01*
G01X6964Y25554D01*
G01X6985Y25509D01*
G01X6985Y25441D01*
G01X6964Y25395D01*
G01X6940Y25372D01*
G01X6872Y25350D01*
G01X6668Y25350D01*
G01X7364Y25600D02*
G01X7135Y25282D01*
G01X7477Y25282D01*
G01X7364Y25600D02*
G01X7364Y25122D01*
G01X7764Y25600D02*
G01X7694Y25577D01*
G01X7650Y25509D01*
G01X7627Y25395D01*
G01X7627Y25327D01*
G01X7650Y25213D01*
G01X7694Y25145D01*
G01X7764Y25122D01*
G01X7809Y25122D01*
G01X7877Y25145D01*
G01X7922Y25213D01*
G01X7944Y25327D01*
G01X7944Y25395D01*
G01X7922Y25509D01*
G01X7877Y25577D01*
G01X7809Y25600D01*
G01X7764Y25600D01*
G01X8368Y25600D02*
G01X8140Y25600D01*
G01X8118Y25395D01*
G01X8140Y25418D01*
G01X8209Y25441D01*
G01X8277Y25441D01*
G01X8344Y25418D01*
G01X8390Y25372D01*
G01X8414Y25304D01*
G01X8414Y25259D01*
G01X8390Y25191D01*
G01X8344Y25145D01*
G01X8277Y25122D01*
G01X8209Y25122D01*
G01X8140Y25145D01*
G01X8118Y25168D01*
G01X8094Y25213D01*
G01X8835Y25532D02*
G01X8814Y25577D01*
G01X8744Y25600D01*
G01X8700Y25600D01*
G01X8631Y25577D01*
G01X8585Y25509D01*
G01X8564Y25395D01*
G01X8564Y25282D01*
G01X8585Y25191D01*
G01X8631Y25145D01*
G01X8700Y25122D01*
G01X8722Y25122D01*
G01X8790Y25145D01*
G01X8835Y25191D01*
G01X8859Y25259D01*
G01X8859Y25282D01*
G01X8835Y25350D01*
G01X8790Y25395D01*
G01X8722Y25418D01*
G01X8700Y25418D01*
G01X8631Y25395D01*
G01X8585Y25350D01*
G01X8564Y25282D01*
G75*
G01X26187Y15951D02*
G02X25006Y14770I-1181J0D01*
G01*
G75*
G01X15557Y15951D02*
G03X16739Y14770I1182J0D01*
G01*
G75*
G01X4000Y15800D02*
G03X4000Y15800I-900J0D01*
G01*
G75*
G01X4000Y17800D02*
G03X4000Y17800I-900J0D01*
G01*
M00*
M02*
