G04 Layer: BottomSolderMaskLayer*
G04 EasyEDA v5.9.42, Fri, 15 Feb 2019 08:44:07 GMT*
G04 63fce91bb22149d2a5f5640f5a0d42c2*
G04 Gerber Generator version 0.2*
G04 Scale: 100 percent, Rotated: No, Reflected: No *
G04 Dimensions in inches *
G04 leading zeros omitted , absolute positions ,2 integer and 4 decimal *
%FSLAX24Y24*%
%MOIN*%
G90*
G70D02*

%ADD27R,0.086740X0.086740*%
%ADD28R,0.070992X0.070992*%
%ADD29C,0.106425*%
%ADD30C,0.082000*%
%ADD31R,0.082000X0.082000*%
%ADD32R,0.088000X0.088000*%
%ADD33C,0.088000*%
%ADD34C,0.068000*%
%ADD35C,0.086740*%

%LPD*%
G54D27*
G01X3300Y27900D03*
G01X3300Y22700D03*
G01X12300Y26900D03*
G01X12300Y23700D03*
G01X12300Y27900D03*
G01X12300Y22700D03*
G54D28*
G01X25400Y25400D03*
G01X25400Y24400D03*
G01X25400Y23400D03*
G01X25400Y22400D03*
G01X25400Y21400D03*
G01X25400Y20400D03*
G01X25400Y19400D03*
G01X25400Y18400D03*
G01X16400Y25400D03*
G01X16400Y24400D03*
G01X16400Y23400D03*
G01X16400Y22400D03*
G01X16400Y21400D03*
G01X16400Y20400D03*
G01X16400Y19400D03*
G01X16400Y18400D03*
G54D29*
G01X2386Y6534D03*
G01X31127Y6534D03*
G54D30*
G01X20200Y12800D03*
G01X17200Y12800D03*
G01X24400Y12200D03*
G01X25400Y12200D03*
G54D31*
G01X7200Y31200D03*
G54D30*
G01X6200Y31200D03*
G01X8200Y31200D03*
G54D32*
G01X3100Y15819D03*
G54D33*
G01X3100Y17780D03*
G54D32*
G01X29100Y25400D03*
G54D33*
G01X29100Y24400D03*
G01X29100Y23400D03*
G54D32*
G01X29100Y16300D03*
G54D33*
G01X29100Y15300D03*
G01X29100Y14300D03*
G54D34*
G01X9100Y19400D03*
G01X9100Y18400D03*
G01X9100Y17400D03*
G01X9100Y16400D03*
G01X9100Y15400D03*
G01X9100Y14400D03*
G54D35*
G01X12800Y31300D03*
G01X13800Y31300D03*
G01X14800Y31300D03*
G01X15800Y31300D03*
G01X24000Y31300D03*
G01X25000Y31300D03*
G01X26000Y31300D03*
G01X27000Y31300D03*
G01X29100Y21300D03*
G01X29100Y20300D03*
G01X29100Y19300D03*
G01X29100Y18300D03*
M00*
M02*
