;Layer: Drill PTH
;EasyEDA v5.9.42, Fri, 15 Feb 2019 08:44:07 GMT
;63fce91bb22149d2a5f5640f5a0d42c2
;Gerber Generator version 0.2
M48
INCH,LZ,00.0000
;Holesize 1 = 0.012 INCH
T01C0.012
;Holesize 2 = 0.032 INCH
T02C0.032
;Holesize 3 = 0.035 INCH
T03C0.035
;Holesize 4 = 0.036 INCH
T04C0.036
;Holesize 5 = 0.039 INCH
T05C0.039
;Holesize 6 = 0.040 INCH
T06C0.040
;Holesize 7 = 0.046 INCH
T07C0.046
;Holesize 8 = 0.059 INCH
T08C0.059
%
G05
G90
T01
X+013400Y+018800
X+005500Y+021500
X+019300Y+022800
X+018600Y+024200
X+018600Y+022900
X+017200Y+020800
X+027500Y+022100
T02
X+003300Y+027900
X+003300Y+022700
X+012300Y+026900
X+012300Y+023700
X+012300Y+027900
X+012300Y+022700
T03
X+020200Y+012800
X+017200Y+012800
T04
X+009100Y+019400
X+009100Y+018400
X+009100Y+017400
X+009100Y+016400
X+009100Y+015400
X+009100Y+014400
T05
X+025400Y+025400
X+025400Y+024400
X+025400Y+023400
X+025400Y+022400
X+025400Y+021400
X+025400Y+020400
X+025400Y+019400
X+025400Y+018400
X+016400Y+025400
X+016400Y+024400
X+016400Y+023400
X+016400Y+022400
X+016400Y+021400
X+016400Y+020400
X+016400Y+019400
X+016400Y+018400
X+012800Y+031300
X+013800Y+031300
X+014800Y+031300
X+015800Y+031300
X+024000Y+031300
X+025000Y+031300
X+026000Y+031300
X+027000Y+031300
X+029100Y+021300
X+029100Y+020300
X+029100Y+019300
X+029100Y+018300
T06
X+024400Y+012200
X+025400Y+012200
X+007200Y+031200
X+006200Y+031200
X+008200Y+031200
X+029100Y+025400
X+029100Y+024400
X+029100Y+023400
X+029100Y+016300
X+029100Y+015300
X+029100Y+014300
T07
X+003100Y+015819
X+003100Y+017780
T08
X+002386Y+006534
X+031127Y+006534
M30
